SplineFontDB: 2.0
FontName: Garuda-BoldOblique
FullName: Garuda Bold Oblique
FamilyName: Garuda
Weight: Bold
Copyright: Generated by NECTEC for Public Domain\n\nModified under GNU General Public License by TLWG
Version: 2.55: 2007-12-07
ItalicAngle: -12
UnderlinePosition: -27
UnderlineWidth: 20
Ascent: 872
Descent: 128
NeedsXUIDChange: 1
FSType: 0
OS2Version: 0
OS2_WeightWidthSlopeOnly: 0
OS2_UseTypoMetrics: 0
CreationTime: 1153661423
ModificationTime: 1198741389
PfmFamily: 33
TTFWeight: 700
TTFWidth: 5
LineGap: 0
VLineGap: 0
Panose: 2 11 7 4 2 2 2 2 2 4
OS2TypoAscent: 0
OS2TypoAOffset: 1
OS2TypoDescent: 0
OS2TypoDOffset: 1
OS2TypoLinegap: 0
OS2WinAscent: -53
OS2WinAOffset: 1
OS2WinDescent: 0
OS2WinDOffset: 1
HheadAscent: -53
HheadAOffset: 1
HheadDescent: 0
HheadDOffset: 1
OS2Vendor: 'PfEd'
Lookup: 6 0 0 "'ccmp' Thai Conditional Descender Removal"  {"'ccmp' Thai Conditional Descender Removal"  } ['ccmp' ('thai' <'KUY ' 'PAL ' 'THA ' 'dflt' > ) ]
Lookup: 6 0 0 "'ccmp' Thai General Composition"  {"'ccmp' Thai Below Vowel Tone Reordering"  "'ccmp' Thai General Composition"  } ['ccmp' ('thai' <'KUY ' 'PAL ' 'THA ' 'dflt' > ) ]
Lookup: 5 0 0 "Required Thai Descender Removal"  {"Required Thai Descender Removal"  } [' RQD' ('thai' <'PAL ' > ) ]
Lookup: 1 0 0 "Thai Phinthu Nikhahit Reordering"  {"Thai Phinthu Nikhahit Reordering"  } []
Lookup: 1 0 0 "Thai Phinthu Thanthakhat Reordering"  {"Thai Phinthu Thanthakhat Reordering"  } []
Lookup: 1 0 0 "Thai Phinthu Mai Chattawa Reordering"  {"Thai Phinthu Mai Chattawa Reordering"  } []
Lookup: 1 0 0 "Thai Phinthu Mai Tri Reordering"  {"Thai Phinthu Mai Tri Reordering"  } []
Lookup: 1 0 0 "Thai Phinthu Mai Tho Reordering"  {"Thai Phinthu Mai Tho Reordering"  } []
Lookup: 1 0 0 "Thai Phinthu Mai Ek Reordering"  {"Thai Phinthu Mai Ek Reordering"  } []
Lookup: 1 0 0 "Thai Phinthu Maitaikhu Reordering"  {"Thai Phinthu Maitaikhu Reordering"  } []

StartChar: .notdef
Encoding: 0 -1 0
Width: 766
VWidth: 2048
Flags: W
HStem: 0 95<212 595> 1242 95<455 838>
Fore
95 0 m 1
 379 1337 l 1
 955 1337 l 1
 671 0 l 1
 95 0 l 1
212 95 m 1
 595 95 l 1
 838 1242 l 1
 455 1242 l 1
 212 95 l 1
EndSplineSet
EndChar
StartChar: exclam
Encoding: 33 33 2
Width: 308
Flags: W
HStem: 2 21G<142 186>
Fore
266 212 m 1
 143 212 l 1
 246 697 l 1
 369 697 l 1
 266 212 l 1
245 93 m 0
 245 50 211 2 161 2 c 0
 123 2 108 29 108 57 c 0
 108 97 140 147 192 147 c 0
 230 147 245 121 245 93 c 0
EndSplineSet
EndChar
StartChar: quotedbl
Encoding: 34 34 3
Width: 458
Flags: W
VStem: 184 362<578 697>
Fore
457 455 m 1
 431 455 l 1
 418 578 l 1
 445 697 l 1
 546 697 l 1
 520 578 l 1
 457 455 l 1
221 455 m 1
 195 455 l 1
 184 578 l 1
 210 697 l 1
 311 697 l 1
 285 578 l 1
 221 455 l 1
EndSplineSet
EndChar
StartChar: numbersign
Encoding: 35 35 4
Width: 597
Flags: W
HStem: 0 21G<86 192.313 290 394.554> 166 99<87 155 294 360 498 575> 412 103<181 253 391 461 593 655> 680 20G<357 464 566.568 670>
Fore
498 265 m 1
 596 265 l 1
 575 166 l 1
 457 166 l 1
 386 0 l 1
 290 0 l 1
 360 166 l 1
 253 166 l 1
 184 0 l 1
 86 0 l 1
 155 166 l 1
 66 166 l 1
 87 265 l 1
 196 265 l 1
 253 412 l 1
 159 412 l 1
 181 515 l 1
 291 515 l 1
 365 700 l 1
 464 700 l 1
 391 515 l 1
 497 515 l 1
 575 700 l 1
 670 700 l 1
 593 515 l 1
 676 515 l 1
 655 412 l 1
 556 412 l 1
 498 265 l 1
294 265 m 1
 400 265 l 1
 461 412 l 1
 351 412 l 1
 294 265 l 1
EndSplineSet
EndChar
StartChar: dollar
Encoding: 36 36 5
Width: 574
Flags: W
HStem: 680 20G<408.625 508>
VStem: 128 112<117.821 195.721> 184 115<403 500.824> 456 116<142.303 249.976> 506 116<465.464 524.856>
Fore
184 415 m 0xa0
 184 532 289 636 399 636 c 1
 413 700 l 1
 508 700 l 1
 494 636 l 1
 566 626 622 575 622 504 c 0
 622 481 616 434 589 434 c 2
 518 434 l 2
 515 434 503 435 503 449 c 0
 503 456 506 465 506 480 c 0xa8
 506 504 497 524 472 532 c 1
 439 377 l 1
 496 356 572 320 572 228 c 0
 572 101 458 2 359 2 c 1
 343 -75 l 1
 248 -75 l 1
 264 2 l 1
 157 2 128 83 128 145 c 0
 128 202 146 210 158 210 c 2
 227 210 l 2
 241 210 244 198 244 190 c 0
 244 184 240 175 240 160 c 0xd0
 240 135 252 117 287 106 c 1
 325 285 l 1
 292 291 232 310 199 357 c 0
 189 371 184 391 184 415 c 0xa0
379 535 m 1
 320 525 299 474 299 453 c 0
 299 425 333 403 350 400 c 1
 379 535 l 1
381 104 m 1
 437 116 456 175 456 205 c 0x90
 456 236 436 254 415 264 c 1
 381 104 l 1
EndSplineSet
EndChar
StartChar: percent
Encoding: 37 37 6
Width: 697
Flags: W
HStem: -8 62<524.969 596.967> 311 58<570.333 642.631> 322 61<228.83 299.725> 642 57<275.889 347.387>
VStem: 142 82<385.518 512.145> 352 80<515.741 638.042> 437 83<56.9164 185.394> 648 82<182.518 307.044>
Fore
142 448 m 0xbf
 142 563 213 699 327 699 c 0
 403 699 432 644 432 575 c 0
 432 464 366 322 246 322 c 0
 171 322 142 379 142 448 c 0xbf
314 642 m 0
 238 642 224 442 224 436 c 0
 224 408 231 383 259 383 c 0
 316 383 331 469 339 507 c 0
 345 535 352 567 352 593 c 0
 352 621 343 642 314 642 c 0
437 117 m 0
 437 226 503 369 622 369 c 0xdf
 699 369 730 314 730 243 c 0
 730 129 657 -8 542 -8 c 0
 467 -8 437 48 437 117 c 0
610 311 m 0
 555 311 539 219 531 182 c 0
 527 165 520 134 520 106 c 0
 520 78 528 54 555 54 c 0
 610 54 628 139 635 176 c 0
 639 195 648 229 648 257 c 0
 648 287 639 311 610 311 c 0
656 700 m 1
 773 700 l 1
 215 0 l 1
 95 0 l 1
 656 700 l 1
EndSplineSet
EndChar
StartChar: ampersand
Encoding: 38 38 7
Width: 717
Flags: W
HStem: -8 95<244.658 388.818> 0 100<623.52 685.273> 635 72<405.662 522.77>
VStem: 72 135<126.46 261.067> 250 116<478.543 596.674> 544 87<498.686 614.515>
Fore
72 163 m 0xbc
 72 310 174 350 296 394 c 1
 273 435 250 476 250 523 c 0
 250 611 329 707 478 707 c 0
 568 707 631 665 631 581 c 0
 631 456 529 402 450 372 c 1
 550 235 l 1
 605 288 636 342 656 389 c 1
 758 374 l 1
 725 299 670 228 599 155 c 1
 624 117 635 100 682 100 c 0
 689 100 705 101 705 101 c 1
 686 8 l 1
 668 3 651 0 635 0 c 0x7c
 576 0 539 18 506 81 c 1
 415 14 351 -8 269 -8 c 0
 211 -8 154 3 115 38 c 0
 87 65 72 113 72 163 c 0xbc
421 429 m 1
 467 447 544 483 544 563 c 0
 544 609 509 635 466 635 c 0
 419 635 366 597 366 538 c 0
 366 492 404 462 421 429 c 1
339 326 m 1
 309 321 207 300 207 196 c 0
 207 136 245 87 309 87 c 0xbc
 354 87 403 107 463 149 c 1
 339 326 l 1
EndSplineSet
EndChar
StartChar: quotesingle
Encoding: 39 39 8
Width: 298
Flags: W
VStem: 230 124<612 731>
Fore
267 489 m 1
 241 489 l 1
 230 612 l 1
 254 731 l 1
 354 731 l 1
 330 612 l 1
 267 489 l 1
EndSplineSet
EndChar
StartChar: parenleft
Encoding: 40 40 9
Width: 378
Flags: W
VStem: 100 92<-63.2494 266.89>
Fore
415 731 m 1
 257 514 192 260 192 63 c 0
 192 -18 202 -97 222 -167 c 1
 155 -167 l 1
 120 -83 100 14 100 115 c 0
 100 386 235 606 348 731 c 1
 415 731 l 1
EndSplineSet
EndChar
StartChar: parenright
Encoding: 41 41 10
Width: 378
Flags: W
VStem: 262 95<290.592 625.752>
Fore
357 454 m 0
 357 180.04 219.591 -38.6499 110 -167 c 1
 43 -167 l 1
 147.022 -18.2371 262 219.973 262 501 c 0
 262 581 253 659 230 731 c 1
 297 731 l 1
 337 650 357 553 357 454 c 0
EndSplineSet
EndChar
StartChar: asterisk
Encoding: 42 42 11
Width: 597
Flags: W
HStem: 359 372<432 464>
VStem: 242 356<572 572>
Fore
437 524 m 1
 504 386 l 1
 464 359 l 1
 406 504 l 1
 287 359 l 1
 259 386 l 1
 388 524 l 1
 242 572 l 1
 265 616 l 1
 402 558 l 1
 432 731 l 1
 475 731 l 1
 432 558 l 1
 595 618 l 1
 598 572 l 1
 437 524 l 1
EndSplineSet
EndChar
StartChar: plus
Encoding: 43 43 12
Width: 565
Flags: W
HStem: 264 90<141 303 405 567>
VStem: 123 463<264 354>
Fore
386 264 m 1
 343 64 l 1
 261 64 l 1
 303 264 l 1
 123 264 l 1
 141 354 l 1
 322 354 l 1
 365 553 l 1
 448 553 l 1
 405 354 l 1
 586 354 l 1
 567 264 l 1
 386 264 l 1
EndSplineSet
EndChar
StartChar: comma
Encoding: 44 44 13
Width: 252
Flags: W
Fore
29 -110 m 1
 117 -97 125 -40 132 0 c 1
 83 0 63 27 63 60 c 0
 63 106 100 159 153 159 c 0
 203 159 219 122 219 83 c 0
 219 64 216 46 212 29 c 0
 178 -71 126 -143 18 -161 c 1
 29 -110 l 1
EndSplineSet
EndChar
StartChar: hyphen
Encoding: 45 45 14
AltUni2: 002010.ffffffff.0
Width: 455
Flags: W
HStem: 241 81<109 463>
VStem: 90 391<241 322>
Fore
90 241 m 1
 109 322 l 1
 481 322 l 1
 463 241 l 1
 90 241 l 1
EndSplineSet
EndChar
StartChar: period
Encoding: 46 46 15
Width: 217
Flags: W
HStem: 0 21G<99 143.5>
Fore
203 92 m 0
 203 51 169 0 118 0 c 0
 80 0 65 28 65 57 c 0
 65 97 97 147 149 147 c 0
 187 147 203 121 203 92 c 0
EndSplineSet
EndChar
StartChar: slash
Encoding: 47 47 16
Width: 597
Flags: W
HStem: 0 21G<32 176.943> 680 20G<577.943 719>
Fore
594 700 m 1
 719 700 l 1
 161 0 l 1
 32 0 l 1
 594 700 l 1
EndSplineSet
EndChar
StartChar: zero
Encoding: 48 48 17
Width: 697
Flags: W
HStem: 0 77<318.149 465.138> 619 81<428.897 579.806>
VStem: 143 124<132.821 380.826> 626 124<371.157 569.402>
Fore
143 236 m 0
 143 432 265 700 518 700 c 0
 696 700 750 593 750 469 c 0
 750 431 745 391 737 353 c 0
 700 181 613 0 369 0 c 0
 202 0 143 105 143 236 c 0
388 77 m 0
 579 77 626 384 626 475 c 0
 626 553 600 619 506 619 c 0
 340 619 267 377 267 239 c 0
 267 155 294 77 388 77 c 0
EndSplineSet
EndChar
StartChar: one
Encoding: 49 49 18
Width: 697
Flags: W
HStem: 0 21G<376 508.257> 680 20G<471 653>
VStem: 276 377<538 700>
Fore
508 622 m 1
 462 580 400 528 321 479 c 1
 276 538 l 1
 331 571 447 654 495 700 c 1
 653 700 l 1
 504 0 l 1
 376 0 l 1
 508 622 l 1
EndSplineSet
EndChar
StartChar: two
Encoding: 50 50 19
Width: 697
Flags: W
HStem: 0 98<288 668> 625 89<423.431 606.908>
VStem: 207 132<447.344 549.048> 663 121<477.153 579.771>
Fore
207 460 m 0
 207 590 345 714 546 714 c 0
 712 714 784 625 784 541 c 0
 784 445 686 374 650 354 c 0
 594 322 552 297 511 276 c 0
 447 244 380 205 315 144 c 0
 299 130 292 116 288 98 c 1
 689 98 l 1
 668 0 l 1
 116 0 l 1
 134 83 157 155 228 216 c 0
 312 290 393 328 488 372 c 0
 574 411 663 467 663 531 c 0
 663 586 592 625 515 625 c 0
 416 625 339 561 339 488 c 0
 339 475 341 461 346 445 c 1
 220 400 l 1
 210 420 207 440 207 460 c 0
EndSplineSet
EndChar
StartChar: three
Encoding: 51 51 20
Width: 697
Flags: W
HStem: -8 84<312.03 499.419> 326 82<423 550.288> 618 88<434.801 618.091>
VStem: 594 130<161.69 289.557> 650 119<471.98 587.693>
Fore
724 233 m 0xf0
 724 88.4 577.126 -8 390 -8 c 0
 256 -8 140 39 140 162 c 0
 140 178 142 194 146 212 c 1
 272 212 l 1
 269 200 268 188 268 178 c 0
 268 101 335 76 405 76 c 0
 513 76 594 143 594 234 c 0xf0
 594 316 503 326 423 326 c 2
 391 326 l 1
 410 412 l 1
 431 412 448 408 464 408 c 0
 504 408 650 425 650 534 c 0
 650 573 627 618 527 618 c 0
 423 618 365 552 354 501 c 1
 232 501 l 1
 263 644 413 706 557 706 c 0
 715 706 769 624 769 549 c 0xe8
 769 518 760 416 604 377 c 1
 602 368 l 1
 660 359 724 313 724 233 c 0xf0
EndSplineSet
EndChar
StartChar: four
Encoding: 52 52 21
Width: 697
Flags: W
HStem: 0 21G<458 591.27> 178 83<244 496 641 738> 680 20G<546.487 735>
Fore
625 178 m 1
 587 0 l 1
 458 0 l 1
 496 178 l 1
 107 178 l 1
 127 271 l 1
 567 700 l 1
 735 700 l 1
 641 261 l 1
 755 261 l 1
 738 178 l 1
 625 178 l 1
586 607 m 1
 244 261 l 1
 512 261 l 1
 586 607 l 1
EndSplineSet
EndChar
StartChar: five
Encoding: 53 53 22
Width: 697
Flags: W
HStem: -15 89<322.627 508.689> 393 103<426.461 566.846> 601 96<409 779>
VStem: 619 126<185.422 343.712>
Fore
410 74 m 0
 589 74 619 226 619 277 c 0
 619 354 560 393 487 393 c 0
 427 393 358 367 306 314 c 1
 188 314 l 1
 324 697 l 1
 786 697 l 1
 779 601 l 1
 409 601 l 1
 339 429 l 1
 385 451 434 496 546 496 c 0
 686 496 745 418 745 307 c 0
 745 169 676 -15 400 -15 c 0
 172 -15 157 96 157 164 c 2
 157 184 l 1
 286 184 l 1
 286 173 l 2
 286 100 333 74 410 74 c 0
EndSplineSet
EndChar
StartChar: six
Encoding: 54 54 23
Width: 697
Flags: W
HStem: -15 86<330.697 506.396> 380 78<411.687 559.739> 628 82<456.346 628.622>
VStem: 164 124<111.924 275.107> 608 122<179.21 334.411>
Fore
730 282 m 0
 730 180 656 -15 410 -15 c 0
 222 -15 164 84 164 209 c 0
 164 247 169 288 178 329 c 0
 245 644 443 710 566 710 c 0
 683 710 770 669 781 550 c 1
 667 550 l 1
 651 607 608 628 541 628 c 0
 473 628 364 589 320 382 c 1
 376 424 432 458 521 458 c 0
 658 458 730 389 730 282 c 0
414 71 m 0
 546 71 608 172 608 263 c 0
 608 343 550 380 483 380 c 0
 366 380 288 287 288 183 c 0
 288 118 325 71 414 71 c 0
EndSplineSet
EndChar
StartChar: seven
Encoding: 55 55 24
Width: 697
Flags: W
HStem: 0 21G<231 386> 615 85<281 683>
Fore
477 253 m 0
 422 158 396 92 376 0 c 1
 231 0 l 1
 252 98 321 224 409 339 c 0
 483 435 579 530 683 615 c 1
 263 615 l 1
 281 700 l 1
 810 700 l 1
 790 607 l 1
 668 513 551 376 477 253 c 0
EndSplineSet
EndChar
StartChar: eight
Encoding: 56 56 25
Width: 697
Flags: W
HStem: -6 73<322.77 495.63> 348 87<403.017 549.722> 639 66<437.724 610.671>
VStem: 151 119<118.892 258.429> 254 120<463.085 579.649> 595 120<160.001 306.216> 635 121<497.602 614.174>
Fore
254 513 m 0xe8
 254 628 376 705 539 705 c 0
 653 705 756 672 756 576 c 0xea
 756 547 742 433 597 408 c 1
 594 385 l 1
 628 378 715 351 715 254 c 0
 715 154 633 -6 396 -6 c 0
 201 -6 151 88 151 171 c 0xf4
 151 343 328 381 359 385 c 1
 364 408 l 1
 301 416 254 452 254 513 c 0xe8
408 67 m 0
 507 67 595 141 595 240 c 0
 595 292 567 348 462 348 c 0
 323 348 270 247 270 184 c 0xf4
 270 123 315 67 408 67 c 0
478 435 m 0
 609 435 635 519 635 564 c 0
 635 624 581 639 525 639 c 0
 412 639 374 565 374 515 c 0xea
 374 468 411 435 478 435 c 0
EndSplineSet
EndChar
StartChar: nine
Encoding: 57 57 26
Width: 697
Flags: W
HStem: -8 74<303.063 465.772> 248 80<375.885 533.018> 628 82<424.748 601.622>
VStem: 208 120<373.244 524.791> 645 123<425.807 587.012>
Fore
768 496 m 0
 768 359 678 -8 369 -8 c 0
 177 -8 161 103 157 144 c 1
 264 144 l 1
 278 87 323 66 389 66 c 0
 500 66 597 185 630 337 c 1
 608 315 548 248 419 248 c 0
 284 248 208 313 208 419 c 0
 208 531 292 710 521 710 c 0
 709 710 768 619 768 496 c 0
454 328 m 0
 542 328 645 393 645 514 c 0
 645 570 619 628 521 628 c 0
 366 628 328 499 328 441 c 0
 328 365 387 328 454 328 c 0
EndSplineSet
EndChar
StartChar: colon
Encoding: 58 58 27
Width: 294
Flags: W
HStem: 2 21G<124 169>
Fore
307 474 m 0
 307 434 276 383 224 383 c 0
 186 383 170 410 170 438 c 0
 170 479 204 529 255 529 c 0
 293 529 307 502 307 474 c 0
226 93 m 0
 226 53 195 2 143 2 c 0
 105 2 89 29 89 58 c 0
 89 100 123 147 174 147 c 0
 212 147 226 121 226 93 c 0
EndSplineSet
EndChar
StartChar: semicolon
Encoding: 59 59 28
Width: 320
Flags: W
HStem: -161 51<62.677 136.169> 504 20G<232 277.5>
VStem: 89 158<13.1972 121.088>
Fore
89 60 m 0
 89 108 128 159 181 159 c 0
 231 159 247 122 247 83 c 0
 247 11.8559 189.094 -139.94 45 -161 c 1
 56 -110 l 1
 153 -97 154 -22 159 0 c 1
 108 0 89 28 89 60 c 0
313 467 m 0
 313 428 279 379 228 379 c 0
 190 379 174 405 174 434 c 0
 174 473 206 524 258 524 c 0
 297 524 313 496 313 467 c 0
EndSplineSet
EndChar
StartChar: less
Encoding: 60 60 29
Width: 597
Flags: W
HStem: 63 470<538 638>
Fore
126 247 m 1
 147 349 l 1
 638 533 l 1
 616 435 l 1
 236 299 l 1
 558 161 l 1
 538 63 l 1
 126 247 l 1
EndSplineSet
EndChar
StartChar: equal
Encoding: 61 61 30
Width: 544
Flags: W
HStem: 138 92<115 526> 402 90<170 582>
Fore
152 402 m 1
 170 492 l 1
 601 492 l 1
 582 402 l 1
 152 402 l 1
95 138 m 1
 115 230 l 1
 546 230 l 1
 526 138 l 1
 95 138 l 1
EndSplineSet
EndChar
StartChar: greater
Encoding: 62 62 31
Width: 597
Flags: W
HStem: 63 470<87 187>
Fore
87 63 m 1
 107 161 l 1
 486 299 l 1
 166 435 l 1
 187 533 l 1
 598 349 l 1
 576 247 l 1
 87 63 l 1
EndSplineSet
EndChar
StartChar: question
Encoding: 63 63 32
Width: 538
Flags: W
HStem: -2 115<242.414 318.835> 626 81<317.435 450.292>
VStem: 166 86<500 558.556> 222 117<18.517 92.7852> 480 115<462.161 595.033>
Fore
166 470 m 0xe8
 166 580 268 707 421 707 c 0
 486 707 595 676 595 559 c 0
 595 480 547 390 472 325 c 0
 418 279 357 244 342 173 c 0
 340 167 337 162 333 141 c 1
 252 141 l 1
 270 226 278 234 326 305 c 0
 374 376 480 437 480 537 c 0
 480 595 436 626 385 626 c 0
 304 626 252 552 252 509 c 0
 252 506 253 503 253 500 c 1
 276 511 294 516 309 516 c 0
 342 516 357 492 357 464 c 0
 357 400 296 369 256 369 c 0
 216 369 166 398 166 470 c 0xe8
222 43 m 0xd8
 222 77 250 113 292 113 c 0
 324 113 339 92 339 68 c 0
 339 36 312 -2 268 -2 c 0
 236 -2 222 19 222 43 c 0xd8
EndSplineSet
EndChar
StartChar: at
Encoding: 64 64 33
Width: 784
Flags: W
HStem: -26 80<328.014 526.556> 135 64<527 630.304> 138 95<350 444.536> 440 96<437.871 540.896> 644 79<440.216 645.228>
VStem: 120 94<164.458 384.945> 266 108<245.107 365.276> 743 81<402.152 551.007>
Fore
120 251 m 0xdf
 120 496 323 723 562 723 c 0
 718 723 824 621 824 482 c 0
 824 462 822 441 817 420 c 0
 800 340 780 282 724 222 c 0
 663 156 628 135 541 135 c 0xdf
 513 135 490 149 490 180 c 0
 490 185 491 190 492 195 c 1
 443 152 412 138 385 138 c 0xbf
 315 138 266 195 266 270 c 0
 266 371 360 536 502 536 c 0
 543 536 572 523 601 472 c 1
 623 530 l 1
 703 530 l 1
 626 310 592 229 592 207 c 0
 592 199 597 199 605 199 c 0
 657 199 743 327 743 459 c 0
 743 581 662 644 543 644 c 0
 341 644 214 441 214 270 c 0
 214 135 300 54 433 54 c 0
 498 54 563 80 621 121 c 1
 705 121 l 1
 614 32 529 -26 408 -26 c 0
 225 -26 120 86 120 251 c 0xdf
494 440 m 0
 433 440 374 368 374 299 c 0
 374 262 392 233 430 233 c 0xbf
 504 233 553 319 553 377 c 0
 553 415 532 440 494 440 c 0
EndSplineSet
EndChar
StartChar: A
Encoding: 65 65 34
Width: 628
Flags: W
HStem: 0 21G<25 150.868 458.684 590> 152 96<263 445> 680 20G<368.886 541.429>
VStem: 460 130<0 152.329>
Fore
460 0 m 1
 450 152 l 1
 216 152 l 1
 141 0 l 1
 25 0 l 1
 379 700 l 1
 540 700 l 1
 590 0 l 1
 460 0 l 1
429 592 m 1
 263 248 l 1
 445 248 l 1
 429 592 l 1
EndSplineSet
EndChar
StartChar: B
Encoding: 66 66 35
Width: 646
Flags: W
HStem: 0 97<223 405.781> 316 90<288 451.413> 608 92<331 514.079>
VStem: 519 124<161.123 292.129> 570 129<478.808 590.172>
Fore
643 218 m 0xf0
 643 131 581 69 535 37 c 0
 483 2 425 0 365 0 c 2
 83 0 l 1
 232 700 l 1
 523 700 l 2
 569 700 617 699 652 670 c 0
 683 645 699 611 699 569 c 0xe8
 699 461 616 389 535 366 c 1
 531 357 l 1
 603 340 643 286 643 218 c 0xf0
570 536 m 0
 570 605 512 608 477 608 c 2
 331 608 l 1
 288 406 l 1
 422 406 l 2
 451 406 483 407 513 428 c 0
 547 453 570 498 570 536 c 0
519 232 m 0xf0
 519 319 440 316 404 316 c 2
 269 316 l 1
 223 97 l 1
 351 97 l 2
 384 97 421 97 454 117 c 0
 492 139 519 190 519 232 c 0xf0
EndSplineSet
EndChar
StartChar: C
Encoding: 67 67 36
Width: 646
Flags: W
HStem: -3 100<303.811 438.987> 615 101<404.117 534.617>
VStem: 115 139<152.874 346.753> 570 126<471.197 580.851>
Fore
470 615 m 0
 350 615 254 410 254 260 c 0
 254 174 283 97 367 97 c 0
 449 97 501 167 528 235 c 1
 643 227 l 1
 590 80 477 -3 338 -3 c 0
 187 -3 115 104 115 248 c 0
 115 283 119 319 127 357 c 0
 169 555 307 716 495 716 c 0
 635 716 696 640 696 506 c 0
 696 495 696 483 695 471 c 1
 567 461 l 1
 569 475 570 489 570 502 c 0
 570 563 546 615 470 615 c 0
EndSplineSet
EndChar
StartChar: D
Encoding: 68 68 37
Width: 646
Flags: W
HStem: 0 106<199 391.815> 592 108<302 445.472>
VStem: 553 126<313.14 498.404>
Fore
679 452 m 0
 679 386 658 220 531 97 c 0
 454 22 351 0 259 0 c 2
 55 0 l 1
 204 700 l 1
 382 700 l 2
 479 700 576 692 629 621 c 0
 664 574 679 516 679 452 c 0
529 536 m 0
 503 590 443 592 390 592 c 2
 302 592 l 1
 199 106 l 1
 270 106 l 2
 339 106 412 115 468 187 c 0
 523 258 553 349 553 428 c 0
 553 467 545 504 529 536 c 0
EndSplineSet
EndChar
StartChar: E
Encoding: 69 69 38
Width: 568
Flags: W
HStem: 0 93<219 523> 294 98<282 516> 599 101<326 650>
Fore
80 0 m 1
 229 700 l 1
 672 700 l 1
 650 599 l 1
 326 599 l 1
 282 392 l 1
 537 392 l 1
 516 294 l 1
 261 294 l 1
 219 93 l 1
 543 93 l 1
 523 0 l 1
 80 0 l 1
EndSplineSet
EndChar
StartChar: F
Encoding: 70 70 39
Width: 530
Flags: W
HStem: 0 21G<78 202.236> 288 104<281 515> 595 105<324 646>
Fore
324 595 m 1
 281 392 l 1
 537 392 l 1
 515 288 l 1
 259 288 l 1
 198 0 l 1
 78 0 l 1
 227 700 l 1
 669 700 l 1
 646 595 l 1
 324 595 l 1
EndSplineSet
EndChar
StartChar: G
Encoding: 71 71 40
Width: 646
Flags: W
HStem: -6 98<299.525 449.226> 261 96<432 536> 615 96<401.107 542.424>
VStem: 95 128<182.88 390.562> 589 116<497 568.31>
Fore
476 615 m 0
 335 615 223 412 223 289 c 0
 223 200 265 92 373 92 c 0
 454 92 513 149 536 261 c 1
 411 261 l 1
 432 357 l 1
 671 357 l 1
 595 0 l 1
 495 0 l 1
 511 75 l 1
 470 5 405 -6 333 -6 c 0
 181 -6 95 107 95 255 c 0
 95 427 219 711 500 711 c 0
 628 711 705 636 705 507 c 2
 705 497 l 1
 589 480 l 1
 589 488 l 2
 589 557 551 615 476 615 c 0
EndSplineSet
EndChar
StartChar: H
Encoding: 72 72 41
Width: 657
Flags: W
HStem: 0 21G<60 185.262 480 609.257> 305 107<269 545> 680 20G<204.743 330 624.764 754>
Fore
480 0 m 1
 545 305 l 1
 246 305 l 1
 181 0 l 1
 60 0 l 1
 209 700 l 1
 330 700 l 1
 269 412 l 1
 568 412 l 1
 629 700 l 1
 754 700 l 1
 605 0 l 1
 480 0 l 1
EndSplineSet
EndChar
StartChar: I
Encoding: 73 73 42
Width: 294
Flags: W
HStem: 0 21G<83 206.257> 680 20G<227.743 351>
VStem: 83 268<0 700>
Fore
83 0 m 1
 232 700 l 1
 351 700 l 1
 202 0 l 1
 83 0 l 1
EndSplineSet
EndChar
StartChar: J
Encoding: 74 74 43
Width: 482
Flags: W
HStem: -3 109<200.768 315.025> 680 20G<470.736 594>
VStem: 65 119<122.632 186.041>
Fore
490 210 m 2
 471 124 386 -3 236 -3 c 0
 106 -3 65 76 65 147 c 0
 65 161 66 175 69 187 c 2
 87 274 l 1
 204 274 l 1
 186 190 l 2
 185 183 184 177 184 171 c 0
 184 129 215 106 253 106 c 0
 310 106 358 150 375 231 c 2
 475 700 l 1
 594 700 l 1
 490 210 l 2
EndSplineSet
EndChar
StartChar: K
Encoding: 75 75 44
Width: 628
Flags: W
HStem: 0 21G<83 202.308 453.767 593> 680 20G<227.743 347 566.394 710>
Fore
458 0 m 1
 389 326 l 1
 226 130 l 1
 198 0 l 1
 83 0 l 1
 232 700 l 1
 347 700 l 1
 265 317 l 1
 583 700 l 1
 710 700 l 1
 499 438 l 1
 593 0 l 1
 458 0 l 1
EndSplineSet
EndChar
StartChar: L
Encoding: 76 76 45
Width: 490
Flags: W
HStem: 0 107<219 466> 680 20G<219.743 345>
VStem: 75 414<0 107>
Fore
75 0 m 1
 224 700 l 1
 345 700 l 1
 219 107 l 1
 489 107 l 1
 466 0 l 1
 75 0 l 1
EndSplineSet
EndChar
StartChar: M
Encoding: 77 77 46
Width: 862
Flags: W
HStem: 0 21G<80 180.245 372.806 463.784 658 781.257> 603 97<304 338 749 786>
Fore
658 0 m 1
 786 603 l 1
 749 603 l 1
 454 0 l 1
 374 0 l 1
 338 603 l 1
 304 603 l 1
 176 0 l 1
 80 0 l 1
 229 700 l 1
 443 700 l 1
 470 205 l 1
 712 700 l 1
 926 700 l 1
 777 0 l 1
 658 0 l 1
EndSplineSet
EndChar
StartChar: N
Encoding: 78 78 47
Width: 646
Flags: W
HStem: 0 21G<80 168.267 449.476 565.257> 680 20G<224.743 373.439 619.76 710>
Fore
455 0 m 1
 310 525 l 1
 276 525 l 1
 164 0 l 1
 80 0 l 1
 229 700 l 1
 368 700 l 1
 495 233 l 1
 525 233 l 1
 624 700 l 1
 710 700 l 1
 561 0 l 1
 455 0 l 1
EndSplineSet
EndChar
StartChar: O
Encoding: 79 79 48
Width: 646
Flags: W
HStem: -3 104<283.005 418.524> 616 100<383.668 524.7>
VStem: 97 131<162.407 395.461> 570 121<388.893 568.875>
Fore
97 249 m 0
 97 466 240 716 481 716 c 0
 643 716 691 614 691 494 c 0
 691 450 685 404 675 359 c 0
 636 175 514 -3 319 -3 c 0
 162 -3 97 109 97 249 c 0
347 101 m 0
 493 101 570 330 570 471 c 0
 570 551 543 616 456 616 c 0
 328 616 228 427 228 270 c 0
 228 185 257 101 347 101 c 0
EndSplineSet
EndChar
StartChar: P
Encoding: 80 80 49
Width: 625
Flags: W
HStem: 0 21G<63 186.218> 275 93<260 454.453> 604 96<310 485.524>
VStem: 554 127<442.491 578.337>
Fore
681 544 m 0
 681 460 619 299 483 280 c 0
 462 276 441 275 420 275 c 2
 240 275 l 1
 182 0 l 1
 63 0 l 1
 212 700 l 1
 469 700 l 2
 529 700 587 699 630 661 c 0
 664 631 681 591 681 544 c 0
554 515 m 0
 554 608 473 604 439 604 c 2
 310 604 l 1
 260 368 l 1
 404 368 l 2
 506 368 554 452 554 515 c 0
EndSplineSet
EndChar
StartChar: Q
Encoding: 81 81 50
Width: 646
Flags: W
HStem: -153 93<464.858 540.435> -9 104<289.273 368.028> 612 99<380.791 519.246>
VStem: 109 130<150.644 346.171> 384 73<-51.4577 -2.7782> 564 129<322.566 560.375>
Fore
109 246 m 0
 109 438 238 711 477 711 c 0
 641 711 693 601 693 475 c 0
 693 310 614 116 461 28 c 1
 458 15 457 4 457 -5 c 0
 457 -47 481 -60 513 -60 c 2
 561 -57 l 1
 541 -150 l 1
 529 -152 514 -153 503 -153 c 0
 421 -153 384 -131 384 -43 c 0
 384 -31 385 -17 386 -2 c 1
 386 -2 322 -9 302 -9 c 0
 178 -9 109 102 109 246 c 0
353 95 m 0
 521 95 564 374 564 457 c 0
 564 535 540 612 456 612 c 0
 330 612 277 480 250 353 c 0
 244 323 239 289 239 256 c 0
 239 173 266 95 353 95 c 0
EndSplineSet
EndChar
StartChar: R
Encoding: 82 82 51
Width: 659
Flags: W
HStem: 0 21G<54 174.24 503.5 634.324> 283 114<254 507.575> 584 116<294 547.9>
VStem: 498 118<34.6078 110.154> 522 119<200.55 268.946> 595 122<508.006 571.712>
Fore
523 700 m 2xe8
 630 700 717 674 717 556 c 0xe4
 717 536 714 514 709 488 c 0
 693 415 661 393 591 345 c 1
 630 314 641 279 641 244 c 0xe8
 641 228 639 211 635 195 c 2
 622 130 l 2
 619 116 616 102 616 90 c 0
 616 70 622 53 638 37 c 1
 630 0 l 1
 506 0 l 1
 501 30 498 50 498 70 c 0xf0
 498 89 501 108 506 134 c 2
 516 177 l 2
 520 194 522 209 522 223 c 0
 522 259 504 283 440 283 c 2
 230 283 l 1
 170 0 l 1
 54 0 l 1
 203 700 l 1
 523 700 l 2xe8
500 397 m 2
 583 397 595 502 595 526 c 0
 595 583 545 584 500 584 c 2
 294 584 l 1
 254 397 l 1
 500 397 l 2
EndSplineSet
EndChar
StartChar: S
Encoding: 83 83 52
Width: 588
Flags: W
HStem: -6 110<224.711 392.935> 607 106<337.072 493.306>
VStem: 154 139<400 551.861> 449 137<163.981 329.048>
Fore
154 452 m 0
 154 573 248 713 431 713 c 0
 538 713 615 676 632 572 c 1
 517 535 l 1
 508 579 492 607 417 607 c 0
 318 607 293 543 293 497 c 0
 293 463 315 449 379 435 c 0
 418 426 586 397 586 259 c 0
 586 171 516 -6 273 -6 c 0
 158 -6 69 44 60 162 c 1
 60 162 181 198 189 198 c 1
 198 123 241 104 310 104 c 0
 348 104 449 125 449 212 c 0
 449 272 388 282 341 293 c 0
 240 317 154 348 154 452 c 0
EndSplineSet
EndChar
StartChar: T
Encoding: 84 84 53
Width: 530
Flags: W
HStem: 0 21G<202 326.25> 593 107<180 328 448 616>
VStem: 157 482<593 700>
Fore
448 593 m 1
 322 0 l 1
 202 0 l 1
 328 593 l 1
 157 593 l 1
 180 700 l 1
 639 700 l 1
 616 593 l 1
 448 593 l 1
EndSplineSet
EndChar
StartChar: U
Encoding: 85 85 54
Width: 646
Flags: W
HStem: -6 104<274.55 446.953> 680 20G<213.727 353 604.746 735>
Fore
325 -6 m 0
 186 -6 109 40 109 157 c 0
 109 179 112 204 118 232 c 2
 218 700 l 1
 353 700 l 1
 256 244 l 2
 251 222 249 203 249 186 c 0
 249 116 291 98 358 98 c 0
 441 98 487 126 512 244 c 2
 609 700 l 1
 735 700 l 1
 635 232 l 2
 603 82 480 -6 325 -6 c 0
EndSplineSet
EndChar
StartChar: V
Encoding: 86 86 55
Width: 588
Flags: W
HStem: 0 21G<220.8 383.514> 680 20G<180 310.697 584.801 707>
Fore
374 0 m 1
 222 0 l 1
 180 700 l 1
 310 700 l 1
 330 126 l 1
 594 700 l 1
 707 700 l 1
 374 0 l 1
EndSplineSet
EndChar
StartChar: W
Encoding: 87 87 56
Width: 882
Flags: W
HStem: 0 21G<189.571 325.062 560.76 699.857> 680 20G<175 298 523.142 652.447 885.205 1001>
VStem: 175 123<560 700> 555 97<501 700>
Fore
691 0 m 1
 561 0 l 1
 555 501 l 1
 543 501 l 1
 316 0 l 1
 190 0 l 1
 175 700 l 1
 298 700 l 1
 296 202 l 1
 296 202 302 201 311 201 c 1
 532 700 l 1
 652 700 l 1
 663 208 l 1
 675 202 l 1
 894 700 l 1
 1001 700 l 1
 691 0 l 1
EndSplineSet
EndChar
StartChar: X
Encoding: 88 88 57
Width: 628
Flags: W
HStem: 0 21G<41 184.552 434.403 579> 680 20G<215 359.677 569.59 708>
Fore
440 0 m 1
 365 268 l 1
 170 0 l 1
 41 0 l 1
 322 363 l 1
 215 700 l 1
 354 700 l 1
 419 471 l 1
 584 700 l 1
 708 700 l 1
 467 372 l 1
 579 0 l 1
 440 0 l 1
EndSplineSet
EndChar
StartChar: Y
Encoding: 89 89 58
Width: 588
Flags: W
HStem: 0 21G<235 358.255> 680 20G<184 329.894 572.383 705>
Fore
414 282 m 1
 354 0 l 1
 235 0 l 1
 298 297 l 1
 184 700 l 1
 325 700 l 1
 394 418 l 1
 586 700 l 1
 705 700 l 1
 414 282 l 1
EndSplineSet
EndChar
StartChar: Z
Encoding: 90 90 59
Width: 646
Flags: W
HStem: 0 102<244 593> 600 100<259 574>
Fore
86 0 m 1
 107 100 l 1
 574 600 l 1
 238 600 l 1
 259 700 l 1
 731 700 l 1
 710 600 l 1
 244 102 l 1
 615 102 l 1
 593 0 l 1
 86 0 l 1
EndSplineSet
EndChar
StartChar: bracketleft
Encoding: 91 91 60
Width: 372
Flags: W
HStem: -190 60<148 234> 639 61<312 410>
VStem: 58 365<-190 700>
Fore
58 -190 m 1
 247 700 l 1
 423 700 l 1
 410 639 l 1
 312 639 l 1
 148 -130 l 1
 246 -130 l 1
 234 -190 l 1
 58 -190 l 1
EndSplineSet
EndChar
StartChar: backslash
Encoding: 92 92 61
Width: 415
Flags: W
HStem: 0 21G<246.314 360> 680 20G<189 290.057>
VStem: 189 171<0 700> 189 99<537.061 689.871> 248 112<0 153.532>
Fore
248 0 m 1xc8
 189 700 l 1xe0
 288 700 l 1xd0
 360 0 l 1xe0
 248 0 l 1xc8
EndSplineSet
EndChar
StartChar: bracketright
Encoding: 93 93 62
Width: 372
Flags: W
HStem: -201 68<70 168> 633 67<247 331>
VStem: 55 368<-201 700>
Fore
55 -201 m 1
 70 -133 l 1
 168 -133 l 1
 331 633 l 1
 233 633 l 1
 247 700 l 1
 423 700 l 1
 231 -201 l 1
 55 -201 l 1
EndSplineSet
EndChar
StartChar: asciicircum
Encoding: 94 94 63
Width: 588
Flags: W
HStem: 684 20G<382.64 493.007>
VStem: 156 397<285 285>
Fore
483 285 m 1
 429 642 l 1
 227 285 l 1
 156 285 l 1
 394 704 l 1
 490 704 l 1
 553 285 l 1
 483 285 l 1
EndSplineSet
EndChar
StartChar: underscore
Encoding: 95 95 64
Width: 556
VWidth: 2048
Flags: W
HStem: -199 64<-44 527>
Fore
-57 -199 m 1
 -44 -135 l 1
 540 -135 l 1
 527 -199 l 1
 -57 -199 l 1
EndSplineSet
EndChar
StartChar: grave
Encoding: 96 96 65
Width: 372
Flags: W
HStem: 619 149<267 406>
VStem: 234 196<671 691>
Fore
406 619 m 1
 234 691 l 1
 267 768 l 1
 430 671 l 1
 406 619 l 1
EndSplineSet
EndChar
StartChar: a
Encoding: 97 97 66
Width: 536
Flags: W
HStem: -5 74<201.067 324.73> 452 74<285.942 420.985>
VStem: 72 120<79.4445 151.941> 436 114<377.538 436.707>
Fore
436 386 m 0
 436 416 421 452 363 452 c 0
 317 452 267 434 245 380 c 1
 147 380 l 1
 185 487 284 526 394 526 c 0
 471 526 500 510 530 478 c 0
 545 462 550 443 550 422 c 0
 550 406 546 388 542 369 c 2
 490 124 l 2
 489 118 488 112 488 107 c 0
 488 63 533 61 536 61 c 1
 523 0 l 1
 505 0 l 2
 478 0 429 3 417 26 c 0
 400 54 400 69 400 69 c 1
 350 1 285 -5 226 -5 c 2
 186 -5 l 2
 116 -5 72 27 72 92 c 0
 72 104 73 116 76 130 c 0
 115 315 346 311 425 319 c 1
 429 340 l 2
 433 357 436 372 436 386 c 0
410 250 m 1
 322 241 192 235 192 123 c 0
 192 85 216 69 259 69 c 0
 296 69 336 92 363 126 c 0
 392 164 396 182 405 225 c 2
 410 250 l 1
EndSplineSet
EndChar
StartChar: b
Encoding: 98 98 67
Width: 541
Flags: W
HStem: -3 69<227.491 345.047> 435 90<315.956 420.439> 680 20G<207.743 319>
VStem: 458 118<210.943 393.373>
Fore
576 343 m 0
 576 173 470 -3 309 -3 c 0
 244 -3 183 6 172 49 c 1
 162 0 l 1
 63 0 l 1
 212 700 l 1
 319 700 l 1
 269 468 l 1
 275 466 l 1
 307 515 364 525 415 525 c 0
 531 525 576 444 576 343 c 0
282 66 m 0
 374 66 458 197 458 306 c 0
 458 368 434 435 363 435 c 0
 282 435 248 359 234 290 c 2
 217 212 l 2
 212 189 210 168 210 150 c 0
 210 98 230 66 282 66 c 0
EndSplineSet
EndChar
StartChar: c
Encoding: 99 99 68
Width: 530
Flags: W
HStem: -4 90<248.908 366.225> 437 89<313.363 438.936>
VStem: 92 129<113.757 301.37> 457 102<349 416.579>
Fore
384 437 m 0
 254 437 221 265 221 192 c 0
 221 136 240 86 305 86 c 0
 361 86 402 131 421 180 c 1
 525 178 l 1
 483 68 407 -4 278 -4 c 0
 159 -4 92 70 92 183 c 0
 92 336 207 526 399 526 c 0
 513 526 559 461 559 367 c 0
 559 361 558 355 558 349 c 1
 456 349 l 1
 456 353 457 357 457 361 c 0
 457 403 437 437 384 437 c 0
EndSplineSet
EndChar
StartChar: d
Encoding: 100 100 69
Width: 530
Flags: W
HStem: -6 78<183 355.813> 422 103<314.602 421.376> 684 20G<522.72 634>
VStem: 92 118<111.484 294.533>
Fore
92 170 m 0
 92 315 193 525 345 525 c 0
 418 525 446 516 475 461 c 1
 527 704 l 1
 634 704 l 1
 484 0 l 1
 383 0 l 1
 393 48 l 1
 384 46 l 1
 353 -1 322 -6 229 -6 c 0
 137 -6 92 70 92 170 c 0
381 422 m 0
 281 422 210 298 210 200 c 0
 210 138 234 72 299 72 c 0
 382 72 416 184 422 213 c 0
 431 256 441 278 441 326 c 0
 441 360 431 422 381 422 c 0
EndSplineSet
EndChar
StartChar: e
Encoding: 101 101 70
Width: 530
Flags: W
HStem: -3 87<233.151 365.268> 259 78<238 448> 440 86<291.656 432.512>
VStem: 91 112<112.952 233.881> 450 99<337.305 423.548>
Fore
368 526 m 0
 520 526 549 455 549 368 c 0
 549 333 542 300 533 259 c 1
 214 259 l 1
 206 214 l 2
 204 203 203 192 203 182 c 0
 203 124 233 84 297 84 c 0
 343 84 386 106 408 159 c 1
 511 159 l 1
 485 113 424 -3 270 -3 c 0
 155 -3 91 77 91 192 c 0
 91 294 152 526 368 526 c 0
370 440 m 0
 316 440 264 426 238 337 c 1
 448 337 l 1
 450 348 450 358 450 367 c 0
 450 424 419 440 370 440 c 0
EndSplineSet
EndChar
StartChar: f
Encoding: 102 102 71
Width: 294
Flags: W
HStem: 0 21G<86 197.241> 415 83<134 174 299 370> 628 86<335.326 417.766 407.248 427>
VStem: 86 359<0 710>
Fore
388 628 m 0
 330 628 318 586 305 529 c 2
 299 498 l 1
 388 498 l 1
 370 415 l 1
 281 415 l 1
 193 0 l 1
 86 0 l 1
 174 415 l 1
 116 415 l 1
 134 498 l 1
 192 498 l 1
 201 543 l 2
 211 586 221 625 244 651 c 0
 280 695 334 714 383 714 c 0
 394 714 445 710 445 710 c 1
 427 627 l 1
 427 627 398 628 388 628 c 0
EndSplineSet
EndChar
StartChar: g
Encoding: 103 103 72
Width: 525
Flags: W
HStem: -231 81<144.483 297.834> -2 83<202.232 334.626> 431 92<268.955 396.548>
VStem: 18 100<-125.322 -58.4343> 65 99<120.573 294.635>
Fore
65 178 m 0xe8
 65 325 176 523 343 523 c 0
 396 523 443 507 474 460 c 1
 487 524 l 1
 580 524 l 1
 491 103 l 2
 453 -76 400 -231 197 -231 c 0
 104 -231 18 -188 18 -91 c 0
 18 -79 20 -68 22 -55 c 1
 120 -55 l 1
 119 -62 118 -68 118 -75 c 0xf0
 118 -127 163 -150 224 -150 c 0
 299 -150 356 -96 369 -31 c 2
 386 49 l 1
 343 19 296 -2 234 -2 c 0
 117 -2 65 78 65 178 c 0xe8
268 81 m 0
 382 81 433 219 433 307 c 0
 433 378 401 431 338 431 c 0
 229 431 164 295 164 199 c 0xe8
 164 127 201 81 268 81 c 0
EndSplineSet
EndChar
StartChar: h
Encoding: 104 104 73
Width: 530
Flags: W
HStem: 0 21G<64 176.28 365 476.266> 418 107<350.473 493.5> 680 20G<208.743 321>
VStem: 441 115<366.525 450.5>
Fore
365 0 m 1
 432 313 l 2
 437 338 441 359 441 376 c 0
 441 403 430 418 397 418 c 0
 350 418 285 383 263 347 c 0
 240 314 230 275 224 243 c 2
 172 0 l 1
 64 0 l 1
 213 700 l 1
 321 700 l 1
 266 442 l 1
 268 438 l 1
 308 505 405 525 458 525 c 0
 529 525 556 481 556 420 c 0
 556 402 553 382 549 361 c 2
 472 0 l 1
 365 0 l 1
EndSplineSet
EndChar
StartChar: i
Encoding: 105 105 74
Width: 254
Flags: W
HStem: 0 21G<72 183.267> 505 20G<179.733 291> 595 105<221 305>
VStem: 72 256<0 700>
Fore
198 595 m 1
 221 700 l 1
 328 700 l 1
 305 595 l 1
 198 595 l 1
72 0 m 1
 184 525 l 1
 291 525 l 1
 179 0 l 1
 72 0 l 1
EndSplineSet
EndChar
StartChar: j
Encoding: 106 106 75
Width: 254
Flags: W
HStem: -207 87<-51.5588 34.6551> 505 20G<179.745 291> 594 106<221 305>
VStem: -67 395<-205 700>
Fore
198 594 m 1
 221 700 l 1
 328 700 l 1
 305 594 l 1
 198 594 l 1
-50 -207 m 0
 -56 -207 -67 -205 -67 -205 c 1
 -48 -118 l 1
 -48 -118 -31 -120 -22 -120 c 0
 52 -120 60 -56 74 8 c 2
 184 525 l 1
 291 525 l 1
 181 8 l 2
 144 -165 112 -207 -50 -207 c 0
EndSplineSet
EndChar
StartChar: k
Encoding: 107 107 76
Width: 548
Flags: W
HStem: 0 21G<74 185.298 392.521 517> 684 20G<219.739 331>
Fore
397 0 m 1
 339 259 l 1
 207 121 l 1
 181 0 l 1
 74 0 l 1
 224 704 l 1
 331 704 l 1
 237 264 l 1
 499 521 l 1
 614 521 l 1
 441 354 l 1
 517 0 l 1
 397 0 l 1
EndSplineSet
EndChar
StartChar: l
Encoding: 108 108 77
Width: 254
Flags: W
HStem: 0 21G<72 183.257> 680 20G<216.743 328>
VStem: 72 256<0 700>
Fore
72 0 m 1
 221 700 l 1
 328 700 l 1
 179 0 l 1
 72 0 l 1
EndSplineSet
EndChar
StartChar: m
Encoding: 109 109 78
Width: 804
Flags: W
HStem: 0 21G<66 177.24 348 459.276 630 741.247> 435 91<324.723 444.319 591.271 699.059>
Fore
630 0 m 1
 705 354 l 2
 707 364 708 374 708 382 c 0
 708 418 687 435 641 435 c 0
 596 435 534 374 520 304 c 2
 455 0 l 1
 348 0 l 1
 413 304 l 2
 419 334 424 360 424 380 c 0
 424 417 410 437 366 437 c 0
 320 437 277 385 256 349 c 0
 241 319 233 282 226 250 c 2
 173 0 l 1
 66 0 l 1
 177 521 l 1
 278 521 l 1
 264 457 l 1
 264 449 l 1
 317 518 366 526 425 526 c 0
 472 526 512 475 514 435 c 1
 576 518 637 526 689 526 c 0
 792 526 821 474 821 416 c 0
 821 402 819 387 816 372 c 2
 737 0 l 1
 630 0 l 1
EndSplineSet
EndChar
StartChar: n
Encoding: 110 110 79
Width: 530
Flags: W
HStem: 0 21G<67 178.27 356 467.248> 430 96<336.56 418.874>
VStem: 429 117<334.632 463>
Fore
356 0 m 1
 419 298 l 2
 425 325 429 350 429 370 c 0
 429 407 415 430 373 430 c 0
 325 430 256 385 231 267 c 2
 174 0 l 1
 67 0 l 1
 178 521 l 1
 283 521 l 1
 266 443 l 1
 319 504 364 526 413 526 c 0
 505 526 546 502 546 424 c 0
 546 401 542 373 535 339 c 2
 463 0 l 1
 356 0 l 1
EndSplineSet
EndChar
StartChar: o
Encoding: 111 111 80
Width: 536
Flags: W
HStem: -3 78<232.342 347.54> 443 83<294.295 413.664>
VStem: 87 120<102.52 309.362> 441 117<214.915 415.65>
Fore
87 185 m 0
 87 357.057 207.024 526 376 526 c 0
 493 526 558 446 558 332 c 0
 558 163 432 -3 263 -3 c 0
 147 -3 87 73 87 185 c 0
284 75 m 0
 409 75 441 272 441 335 c 0
 441 389 424 443 358 443 c 0
 237 443 207 264 207 190 c 0
 207 131 223 75 284 75 c 0
EndSplineSet
EndChar
StartChar: p
Encoding: 112 112 81
Width: 536
Flags: W
HStem: -5 80<235.371 337.502> 432 94<321.296 474>
VStem: 439 121<217.916 398.85>
Fore
560 347 m 0
 560 178 450 -5 296 -5 c 0
 247 -5 198 -8 184 40 c 1
 169 38 l 1
 123 -179 l 1
 16 -179 l 1
 165 521 l 1
 263 521 l 1
 245 438 l 1
 295 508 362 526 425 526 c 0
 523 526 560 442 560 347 c 0
277 75 m 0
 359 75 439 198 439 308 c 0
 439 368 419 432 356 432 c 0
 304 432 243 387 223 291 c 2
 208 219 l 2
 204 201 202 185 202 170 c 0
 202 108 234 75 277 75 c 0
EndSplineSet
EndChar
StartChar: q
Encoding: 113 113 82
Width: 530
Flags: W
HStem: -5 85<219.761 321.61> 435 88<299.425 421.477>
VStem: 81 113<105.922 295.716>
Fore
81 183 m 0
 81 341 189 523 350 523 c 0
 413 523 462 515 479 454 c 1
 493 521 l 1
 592 521 l 1
 443 -179 l 1
 336 -179 l 1
 384 46 l 1
 339 -3 296 -5 255 -5 c 0
 126 -5 81 74 81 183 c 0
368 435 m 0
 261 435 194 297 194 179 c 0
 194 120 216 80 281 80 c 0
 352 80 412 163 425 224 c 2
 442 307 l 2
 444 318 446 330 446 342 c 0
 446 388 425 435 368 435 c 0
EndSplineSet
EndChar
StartChar: r
Encoding: 114 114 83
Width: 346
Flags: W
HStem: 0 21G<49 159.252> 419 107<314.593 408>
VStem: 49 382<0 526>
Fore
252 455 m 1
 291 498 342 526 376 526 c 2
 431 526 l 1
 408 419 l 1
 290 419 234 374 209 254 c 2
 155 0 l 1
 49 0 l 1
 160 521 l 1
 266 521 l 1
 252 455 l 1
EndSplineSet
EndChar
StartChar: s
Encoding: 115 115 84
Width: 482
Flags: W
HStem: -6 86<191.183 358.272> 435 91<253.135 400.573>
VStem: 64 101<104.013 172.813> 123 110<346.733 414.689> 389 104<111.641 192.677> 413 100<355.913 420.684>
Fore
493 186 m 0xd8
 493 122 427 -6 264 -6 c 0
 147 -6 64 13 64 124 c 0
 64 141 67 161 71 184 c 1
 166 184 l 1
 165 176 165 169 165 162 c 0
 165 92 216 80 285 80 c 0
 366 80 389 129 389 162 c 0xe8
 389 203 357 187 195 265 c 0
 163 280 123 295 123 349 c 0
 123 420 180 526 350 526 c 0
 465 526 513 485 513 400 c 0
 513 384 511 367 508 349 c 1
 410 349 l 1
 412 360 413 369 413 378 c 0xd4
 413 420 386 435 322 435 c 0
 278 435 233 412 233 378 c 0
 233 304 493 325 493 186 c 0xd8
EndSplineSet
EndChar
StartChar: t
Encoding: 116 116 85
Width: 372
Flags: W
HStem: -6 86<202.506 314.415> 435 86<134 197 323 414> 680 20G<253.754 361>
VStem: 128 115<52 158.485>
Fore
326 1 m 1
 300 -1 280 -6 253 -6 c 0
 156 -6 128 24 128 80 c 0
 128 102 132 128 139 158 c 2
 197 435 l 1
 115 435 l 1
 134 521 l 1
 220 521 l 1
 258 700 l 1
 361 700 l 1
 323 523 l 1
 433 523 l 1
 414 435 l 1
 304 435 l 1
 252 189 l 2
 247 167 243 146 243 129 c 0
 243 99 256 80 303 80 c 0
 315 80 319 81 344 83 c 1
 326 1 l 1
EndSplineSet
EndChar
StartChar: u
Encoding: 117 117 86
Width: 530
Flags: W
HStem: -6 100<158.5 292.877>
VStem: 98 116<63 168.126>
Fore
362 0 m 1
 377 69 l 1
 355 69 l 1
 300 6 258 -6 198 -6 c 0
 119 -6 98 36 98 90 c 0
 98 121 105 156 112 190 c 2
 183 521 l 1
 290 521 l 1
 219 190 l 2
 216 174 214 160 214 147 c 0
 214 115 227 94 273 94 c 0
 337 94 386 164 394 204 c 2
 462 521 l 1
 569 521 l 1
 458 0 l 1
 362 0 l 1
EndSplineSet
EndChar
StartChar: v
Encoding: 118 118 87
Width: 469
Flags: W
HStem: 0 21G<183.234 306.326>
VStem: 139 426<521 521> 139 115<158.927 511.207>
Fore
296 0 m 1xc0
 185 0 l 1
 139 521 l 1xc0
 254 521 l 1xa0
 284 170 l 1
 454 521 l 1
 565 521 l 1
 296 0 l 1xc0
EndSplineSet
EndChar
StartChar: w
Encoding: 119 119 88
Width: 726
Flags: W
HStem: 0 21G<165.848 284.877 457.572 568.635>
VStem: 450 84<374 521> 458 87<0 164>
Fore
559 0 m 1xa0
 458 0 l 1xa0
 450 374 l 1
 442 374 l 1
 276 0 l 1
 167 0 l 1
 137 521 l 1
 252 521 l 1
 259 162 l 1
 266 164 l 1
 424 521 l 1
 427 521 534 521 534 521 c 1xc0
 545 164 l 1
 549 162 l 1
 712 521 l 1
 810 521 l 1
 559 0 l 1xa0
EndSplineSet
EndChar
StartChar: x
Encoding: 120 120 89
Width: 530
Flags: W
HStem: 0 21G<49 176.783 347.022 477>
Fore
353 0 m 1
 298 184 l 1
 162 0 l 1
 49 0 l 1
 261 270 l 1
 175 521 l 1
 300 521 l 1
 344 360 l 1
 457 521 l 1
 565 521 l 1
 380 281 l 1
 477 0 l 1
 353 0 l 1
EndSplineSet
EndChar
StartChar: y
Encoding: 121 121 90
Width: 470
Flags: W
Fore
268 -52 m 2
 225 -135 162 -185 68 -192 c 2
 1 -196 l 1
 24 -94 l 1
 37 -95 48 -96 59 -96 c 0
 120 -96 163 -75 202 14 c 1
 149 521 l 1
 264 521 l 1
 285 150 l 1
 465 521 l 1
 560 521 l 1
 268 -52 l 2
EndSplineSet
EndChar
StartChar: z
Encoding: 122 122 91
Width: 412
Flags: W
HStem: 0 87<147 379> 436 85<152 354>
VStem: 23 456<0 521>
Fore
23 0 m 1
 45 103 l 1
 354 436 l 1
 134 436 l 1
 152 521 l 1
 479 521 l 1
 462 443 l 1
 147 87 l 1
 397 87 l 1
 379 0 l 1
 23 0 l 1
EndSplineSet
EndChar
StartChar: braceleft
Encoding: 123 123 92
Width: 372
Flags: W
HStem: -182 56<213.007 266> 239 52<132.126 168.44> 645 57<368.115 390 390 442>
VStem: 130 79<-120.243 -63.0986> 184 77<160.445 226.035>
Fore
202 -182 m 2xe8
 177 -182 130 -154 130 -94 c 0xf0
 130 -86 131 -77 133 -67 c 2
 181 161 l 2
 183 169 184 177 184 183 c 0
 184 227 147 238 118 239 c 1
 129 291 l 1
 162 293 212 305 223 359 c 2
 272 587 l 2
 288 665 362 702 390 702 c 2
 454 702 l 1
 442 645 l 1
 425 645 l 2
 362 645 352 601 346 573 c 2
 301 362 l 2
 288 302 235 277 188 273 c 1
 184 254 l 1
 223 251 261 240 261 188 c 0xe8
 261 179 260 170 258 159 c 2
 213 -54 l 2
 211 -63 209 -73 209 -84 c 0xf0
 209 -106 219 -126 261 -126 c 2
 278 -126 l 1
 266 -182 l 1
 202 -182 l 2xe8
EndSplineSet
EndChar
StartChar: bar
Encoding: 124 124 93
Width: 294
Flags: W
HStem: 0 21G<107 191.257> 680 20G<251.743 336>
VStem: 107 229<0 700>
Fore
107 0 m 1
 256 700 l 1
 336 700 l 1
 187 0 l 1
 107 0 l 1
EndSplineSet
EndChar
StartChar: braceright
Encoding: 125 125 94
Width: 372
Flags: W
HStem: -185 56<40 114.12> 236 52<310.414 355> 642 57<216 269.104>
VStem: 223 76<300.302 357.173> 274 78<579.38 635.326>
Fore
259 158 m 2xf0
 210 -71 l 2
 193 -149 120 -185 93 -185 c 2
 28 -185 l 1
 40 -129 l 1
 59 -129 l 2
 120 -129 131 -83 137 -57 c 2
 182 156 l 2
 199 233 245 247 292 250 c 1
 297 271 l 1
 257 275 223 293 223 338 c 0xf0
 223 344 223 351 225 359 c 2
 270 570 l 2
 272 578 274 588 274 598 c 0
 274 620 264 642 222 642 c 2
 203 642 l 1
 216 699 l 1
 281 699 l 2
 305 699 352 671 352 611 c 0xe8
 352 603 351 594 349 584 c 2
 301 356 l 2
 300 350 299 345 299 339 c 0
 299 299 338 290 366 288 c 1
 355 236 l 1
 323 235 272 221 259 158 c 2xf0
EndSplineSet
EndChar
StartChar: asciitilde
Encoding: 126 126 95
Width: 588
Flags: W
HStem: 220 85<433.084 514.904> 330 95<207.717 300.749>
Fore
624 391 m 1
 603 313 564 220 470 220 c 0
 383 220 310 330 243 330 c 0
 208 330 197 294 189 253 c 1
 100 253 l 1
 138 392 203 425 248 425 c 0
 344 425 425 305 483 305 c 0
 514 305 526 342 538 391 c 1
 624 391 l 1
EndSplineSet
EndChar
StartChar: uni0E10.descless
Encoding: 128 63232 96
Width: 613
Flags: W
HStem: -3 75<341.839 429.27> 168 65<202.549 232.179 227 237.358> 305 68<208.372 275.41> 497 75<493.18 677.725> 534 70<319.98 504.65>
VStem: 131 70<234.079 297.613> 276 89<246.446 303.973> 487 116<291.836 344.096>
Fore
131 243 m 0xef
 131 303 182 373 264 373 c 0
 347 373 365 325 365 277 c 0
 365 267 364 257 363 247 c 2
 341 115 l 2
 340 110 340 105 340 101 c 0
 340 83 347 72 378 72 c 0
 412 72 428 78 434 104 c 2
 479 268 l 2
 483 280 487 294 487 308 c 0
 487 322 483 336 474 351 c 0
 452 382 387 409 308 423 c 0
 225 438 162 445 161 445 c 1
 167 476 238 604 406 604 c 0xef
 496 604 544 572 606 572 c 0
 665 572 682 598 682 598 c 1
 703 532 l 1
 700 530 664 497 595 497 c 0xf7
 509 497 476 534 401 534 c 0
 328 534 308 502 300 495 c 1
 343 495 603 470 603 327 c 0
 603 306 595 285 593 273 c 2
 554 133 l 2
 523 17 427 -3 359 -3 c 0
 291 -3 230 16 230 92 c 0
 230 98 230 104 231 110 c 2
 238 170 l 1
 231 169 223 168 216 168 c 0
 171 168 131 195 131 243 c 0xef
231 233 m 0
 259 233 276 257 276 278 c 0
 276 292 267 305 246 305 c 0
 219 305 201 281 201 261 c 0
 201 246 211 233 231 233 c 0
EndSplineSet
EndChar
StartChar: ellipsis
Encoding: 133 8230 101
Width: 637
VWidth: 2048
Flags: W
HStem: 0 133<86.4056 172.608 297.953 385.017 509.179 592.732>
Fore
200 86 m 0
 200 41 167 0 116 0 c 0
 80 0 60 14 60 45 c 0
 60 77 77 133 144 133 c 0
 182 133 200 117 200 86 c 0
272 43 m 0
 272 77 289 133 354 133 c 0
 392 133 410 117 410 86 c 0
 410 55 395 0 326 0 c 0
 290 0 272 14 272 43 c 0
621 86 m 0
 621 33 578 0 538 0 c 0
 502 0 483 14 483 44 c 0
 483 77 500 133 566 133 c 0
 603 133 621 117 621 86 c 0
EndSplineSet
EndChar
StartChar: uni0E49.low_left
Encoding: 135 63238 103
Width: 0
Flags: W
HStem: 791 59<-367.572 -332> 946 58<-357.062 -276.426>
VStem: -436 65<853.747 931.249> -273 74<864.464 942.052>
Back
-359 716 m 0
 -359 716 l 0
 -333 742 -323 766 -323 766 c 1
 -349 766 -385 782 -392 814 c 0
 -394 820 -394 826 -394 832 c 0
 -394 883 -351 944 -285 947 c 0
 -281 947 l 0
 -227 947 -193 918 -193 874 c 0
 -193 872 -193 869 -193 868 c 0
 -198 809 -241 753 -261 740 c 1
 -230 745 -201 753 -166 768 c 0
 -124 786 -103 802 -75 823 c 0
 -18 868 21 923 21 923 c 1
 -8 785 l 1
 -8 785 -75 728 -173 699 c 0
 -241 679 -319 671 -374 671 c 0
 -391 671 -406 671 -417 673 c 1
 -417 673 -383 690 -359 716 c 0
-305 815 m 0
 -274 815 -256 843 -256 866 c 0
 -256 883 -267 898 -290 898 c 0
 -320 898 -339 871 -339 848 c 0
 -339 831 -328 815 -305 815 c 0
EndSplineSet
Refer: 108 63243 N 1 0 0 1 -166 0 2
EndChar
StartChar: uni0E4A.low_left
Encoding: 136 63239 104
Width: 0
Flags: W
HStem: 677 40<-417.697 -348.063> 797 32<-395 -371> 898 77<-218.665 -123> 901 74<-374.374 -278.122>
VStem: -481 62<718.671 787.763> -339 46<725.834 795.343> -157 43<771 853>
Back
-357 834 m 0xde
 -357 834 l 0
 -368 819 -369 802 -369 799 c 1
 -368 799 -353 805 -334 805 c 0
 -325 805 -314 803 -305 799 c 0
 -290 791 -284 774 -284 757 c 0
 -284 731 -297 704 -317 688 c 0
 -334 676 -351 670 -368 670 c 0
 -402 670 -431 691 -438 722 c 0
 -440 730 -441 739 -441 750 c 0
 -441 814 -399 907 -331 921 c 0
 -325 923 -319 923 -313 923 c 0xee
 -267 923 -248 887 -247 887 c 0
 -245 887 -204 923 -161 923 c 0xde
 -126 923 -94 900 -94 852 c 0
 -94 848 -95 843 -95 837 c 0
 -100 789 -130 750 -130 750 c 1
 -126 751 -89 769 -58 809 c 0
 -28 849 -12 898 -9 917 c 1
 61 875 l 1
 61 875 18 769 -83 719 c 0
 -149 685 -236 674 -261 674 c 0
 -256 674 -204 704 -181 768 c 0
 -173 786 -169 806 -169 822 c 0
 -169 843 -178 858 -199 858 c 0
 -222 858 -262 832 -262 832 c 2xee
 -264 832 -285 860 -319 860 c 0
 -339 860 -348 848 -357 834 c 0xde
-365 705 m 0
 -339 705 -323 728 -323 746 c 0
 -323 760 -333 773 -351 773 c 0
 -377 773 -392 750 -392 731 c 0
 -392 717 -383 705 -365 705 c 0
EndSplineSet
Refer: 109 63244 N 1 0 0 1 -166 0 2
EndChar
StartChar: uni0E4B.low_left
Encoding: 137 63240 105
Width: 0
Flags: W
HStem: 808 98<-420 -302 -163 -44>
VStem: -441 418<808 906>
Back
-259 981 m 1
 -147 981 l 1
 -170 871 l 1
 -51 871 l 1
 -69 788 l 1
 -189 788 l 1
 -212 679 l 1
 -323 679 l 1
 -300 788 l 1
 -418 788 l 1
 -400 871 l 1
 -282 871 l 1
 -259 981 l 1
EndSplineSet
Refer: 110 63245 N 1 0 0 1 -270 0 2
EndChar
StartChar: uni0E4C.low_left
Encoding: 138 63241 106
Width: 0
Flags: W
HStem: 668 48<-238.033 -155.753> 814 47<-180 -155.016>
VStem: -307 66<719.379 799.26> -141 50<731.369 810.886>
Back
-156 874 m 0
 -156 874 l 0
 -210 869 -221 843 -222 843 c 0
 -219 843 -143 843 -143 773 c 0
 -143 765 -144 756 -146 746 c 0
 -156 697 -210 668 -256 668 c 0
 -284 668 -310 679 -323 700 c 0
 -333 714 -337 731 -337 750 c 0
 -337 799 -305 857 -256 887 c 0
 -189 927 -141 914 -86 949 c 0
 -58 967 -49 1013 -48 1018 c 1
 37 1018 l 1
 37 1013 15 953 -15 926 c 0
 -46 898 -81 880 -156 874 c 0
-241 713 m 0
 -207 713 -187 742 -187 766 c 0
 -187 785 -198 800 -222 800 c 0
 -256 800 -276 771 -276 746 c 0
 -276 728 -265 713 -241 713 c 0
EndSplineSet
Refer: 111 63246 N 1 0 0 1 -166 0 2
EndChar
StartChar: uni0E48.low
Encoding: 139 63242 107
Width: 0
Flags: W
VStem: -57 172<684 938>
AnchorPoint: "AboveBase" 43.2969 613 mark 0
Fore
-57 684 m 1
 -3 938 l 1
 115 938 l 1
 61 684 l 1
 -57 684 l 1
EndSplineSet
EndChar
StartChar: uni0E49.low
Encoding: 140 63243 108
Width: 0
Flags: W
HStem: 791 59<-201.572 -166> 946 58<-191.062 -110.426>
VStem: -270 65<853.747 931.249> -107 74<864.464 942.052>
AnchorPoint: "AboveBase" 43.2969 613 mark 0
Fore
-270 872 m 0
 -270 930 -218 1004 -135 1004 c 0
 -76 1004 -33 974 -33 916 c 0
 -33 846 -88 776 -111 760 c 1
 93 788 214 972 218 976 c 1
 184 814 l 1
 135 772 -3 678 -240 678 c 0
 -262 678 -281 679 -295 681 c 1
 -295 681 -257 699 -227 731 c 0
 -197 762 -188 791 -188 791 c 1
 -223 791 -270 815 -270 872 c 0
-166 850 m 0
 -135 850 -107 877 -107 909 c 0
 -107 931 -122 946 -146 946 c 0
 -177 946 -205 919 -205 887 c 0
 -205 865 -190 850 -166 850 c 0
EndSplineSet
EndChar
StartChar: uni0E4A.low
Encoding: 141 63244 109
Width: 0
Flags: W
HStem: 677 40<-251.697 -182.063> 797 32<-229 -205> 898 77<-52.6651 43> 901 74<-208.374 -112.122>
VStem: -315 62<718.671 787.763> -173 46<725.834 795.343> 9 43<771 853>
AnchorPoint: "AboveBase" 43.2969 613 mark 0
Fore
-100 682 m 1xee
 -55 703 9 782 9 853 c 0
 9 879 -2 898 -30 898 c 0xee
 -54 898 -95 872 -101 868 c 1
 -105 872 -127 901 -164 901 c 0
 -205 901 -224 859 -227 845 c 0
 -229 837 -228 832 -229 829 c 1
 -228 829 -210 838 -188 838 c 0
 -152 838 -127 814 -127 777 c 0
 -127 720 -177 677 -230 677 c 0
 -266 677 -315 699 -315 771 c 0
 -315 853 -255 975 -157 975 c 0xde
 -103 975 -86 938 -84 933 c 1
 -78 937 -30 975 18 975 c 0
 68 975 96 939 96 889 c 0
 96 825 52 772 52 771 c 1
 129 804 183 902 196 966 c 1
 280 920 l 1
 280 920 227 794 108 734 c 0
 31 695 -65 682 -100 682 c 1xee
-205 797 m 0
 -234 797 -253 773 -253 747 c 0
 -253 731 -244 717 -222 717 c 0
 -193 717 -173 741 -173 766 c 0
 -173 783 -183 797 -205 797 c 0
EndSplineSet
EndChar
StartChar: uni0E4B.low
Encoding: 142 63245 110
Width: 0
Flags: W
HStem: 808 98<-150 -32 107 226>
VStem: -171 418<808 906>
AnchorPoint: "AboveBase" 147.297 613 mark 0
Fore
16 1033 m 1
 134 1033 l 1
 107 906 l 1
 247 906 l 1
 226 808 l 1
 86 808 l 1
 59 682 l 1
 -59 682 l 1
 -32 808 l 1
 -171 808 l 1
 -150 906 l 1
 -11 906 l 1
 16 1033 l 1
EndSplineSet
EndChar
StartChar: uni0E4C.low
Encoding: 143 63246 111
Width: 0
Flags: W
HStem: 668 48<-72.0332 10.2465> 814 47<-14 10.9836>
VStem: -141 66<719.379 799.26> 25 50<731.369 810.886>
AnchorPoint: "AboveBase" 43.2969 613 mark 0
Fore
75 786 m 0
 75 709 9 668 -51 668 c 0
 -109 668 -141 708 -141 760 c 0
 -141 815 -107 877 -52 910 c 0
 49 970 154 930 180 1056 c 1
 275 1056 l 1
 275 1052 254 986 218 953 c 0
 182 921 141 901 60 895 c 0
 -1 891 -12 861 -13 861 c 1
 -9 861 75 861 75 786 c 0
-14 814 m 0
 -53 814 -75 781 -75 752 c 0
 -75 732 -62 716 -35 716 c 0
 1 716 25 748 25 776 c 0
 25 797 13 814 -14 814 c 0
EndSplineSet
EndChar
StartChar: uni0E0D.descless
Encoding: 144 63247 112
Width: 882
Flags: W
HStem: -2 59<193.297 286.206> 0 78<419 458 576 693.088> 518 81<334.394 509.173>
VStem: 127 97<64.4287 121.026> 295 56<65.8543 134.936> 526 120<394.35 399 411 413.056 413.056 425.493 419.274 494.94>
Fore
351 128 m 0x7c
 351 58 299 -2 222 -2 c 0xbc
 162 -2 127 31 127 89 c 0
 127 102 129 115 132 130 c 2
 163 276 l 2
 180 368 262 397 262 397 c 1
 230 441 151 480 146 481 c 1
 172 509 284 599 452 599 c 0
 601 599 651 532 651 455 c 0
 651 440 649 426 646 411 c 2
 576 78 l 1
 651 78 l 2
 683 78 695 98 698 112 c 2
 800 595 l 1
 918 595 l 1
 820 130 l 2
 804 58 751 0 694 0 c 2
 402 0 l 1
 419 78 l 1
 458 78 l 1
 526 399 l 2
 529 414 531 427 531 439 c 0
 531 490 502 518 432 518 c 0
 357 518 307 483 307 483 c 1
 309 481 325 471 353 448 c 0
 376 426 393 402 393 402 c 1
 390 402 359 389 323 356 c 0
 293 326 284 291 281 276 c 2
 265 202 l 1
 282 202 351 199 351 128 c 0x7c
250 57 m 0
 278 57 295 85 295 108 c 0
 295 123 286 136 267 136 c 0
 241 136 224 108 224 86 c 0
 224 70 232 57 250 57 c 0
EndSplineSet
EndChar
StartChar: quoteleft
Encoding: 145 8216 113
Width: 295
Flags: W
HStem: 575 20G<266 284>
Fore
326 541 m 0
 326 493 287 450 230 450 c 0
 205 450 170 462 170 513 c 0
 170 576 229 705 350 723 c 1
 341 684 l 1
 306 677 258 630 250 593 c 1
 256 595 263 595 269 595 c 0
 299 595 326 577 326 541 c 0
EndSplineSet
EndChar
StartChar: quoteright
Encoding: 146 8217 114
Width: 280
Flags: W
Fore
207 641 m 0
 207 677 232 733 303 733 c 0
 330 733 366 723 366 673 c 0
 366 616 312 485 182 460 c 1
 190 500 l 1
 226 507 276 553 283 590 c 1
 276 588 270 588 264 588 c 0
 234 588 207 605 207 641 c 0
EndSplineSet
EndChar
StartChar: quotedblleft
Encoding: 147 8220 115
Width: 487
Flags: W
HStem: 687 53<295.976 354 513.658 568>
VStem: 386 94<512 595>
Fore
329 536 m 0
 329 496 291 448 234 448 c 0
 187 448 172 478 172 513 c 0
 172 578 240 734 365 740 c 1
 354 687 l 1
 268.252 687 266.587 596.587 265 595 c 1
 301 595 329 572 329 536 c 0
542 537 m 0
 542 495 506 448 449 448 c 0
 401 448 386 477 386 512 c 0
 386 576 451 734 579 740 c 1
 568 687 l 1
 483 687 480 595 480 595 c 1
 516 595 542 573 542 537 c 0
EndSplineSet
EndChar
StartChar: quotedblright
Encoding: 148 8221 116
Width: 493
Flags: W
HStem: 449 54<187 242.282 401 459.012>
VStem: 275 95<595 679> 489 95<595 677>
Fore
427 653 m 0
 427 693 465 742 521 742 c 0
 568 742 584 712 584 677 c 0
 584 613 516 456 389 449 c 1
 401 503 l 1
 466 503 489 555 489 595 c 1
 453 595 427 618 427 653 c 0
215 652 m 0
 215 703 256 742 307 742 c 0
 354 742 370 713 370 679 c 0
 370 640 322 457 175 449 c 1
 187 503 l 1
 243 503 275 546 275 595 c 1
 238 595 215 617 215 652 c 0
EndSplineSet
EndChar
StartChar: bullet
Encoding: 149 8226 117
Width: 531
Flags: W
Fore
166 229 m 0
 166 323 244 437 374 437 c 0
 469 437 511 377 511 308 c 0
 511 207 428 100 302 100 c 0
 208 100 166 160 166 229 c 0
EndSplineSet
EndChar
StartChar: endash
Encoding: 150 8211 118
Width: 665
Flags: W
HStem: 248 97<121 662>
Fore
662 248 m 1
 101 248 l 1
 121 345 l 1
 682 345 l 1
 662 248 l 1
EndSplineSet
EndChar
StartChar: emdash
Encoding: 151 8212 119
Width: 1056
Flags: W
HStem: 248 97<122 1060>
Fore
1060 248 m 1
 102 248 l 1
 122 345 l 1
 1080 345 l 1
 1069 313 1064 270 1060 248 c 1
EndSplineSet
EndChar
StartChar: uni0E31.left
Encoding: 152 63248 120
Width: 0
Flags: W
HStem: 682 78<-266.259 -121.174> 873 57<-373.376 -294.69>
VStem: -450 64<783.648 860.428> -292 66<794.183 870.493>
Back
176 788 m 1
 176 788 l 0
 175 788 104 725 -20 699 c 0
 -64 690 -110 685 -150 685 c 0
 -210 685 -259 693 -284 704 c 0
 -328 723 -346 759 -346 796 c 0
 -346 842 -317 889 -277 910 c 0
 -256 923 -233 927 -213 927 c 0
 -164 927 -123 898 -123 848 c 0
 -123 848 -123 846 -123 845 c 0
 -126 789 -166 757 -166 757 c 1
 -164 757 -159 757 -152 757 c 0
 -126 757 -66 760 -2 783 c 0
 141 834 204 914 204 914 c 1
 176 788 l 1
-187 828 m 0
 -187 831 -185 834 -185 837 c 0
 -185 861 -204 872 -224 872 c 0
 -247 872 -274 855 -281 825 c 0
 -281 822 -282 819 -282 815 c 0
 -282 792 -264 780 -244 780 c 0
 -221 780 -193 797 -187 828 c 0
EndSplineSet
Refer: 177 3633 N 1 0 0 1 -166 0 2
EndChar
StartChar: uni0E47.left
Encoding: 154 63250 122
Width: 0
Flags: W
HStem: 674 63<-209.607 -154.773> 759 94<-368.583 -298.786> 808 60<-203.911 -149.833> 926 80<-264.776 -85.168> 942 70<-372.928 -190.969>
VStem: -517 97<786.313 871.345> -149 54<741.593 802.337>
Back
25 1061 m 1x96
 25 1061 l 1
 25 1061 3 932 -103 917 c 0
 -120 914 -133 914 -147 914 c 0x96
 -198 914 -233 926 -287 926 c 0
 -300 926 l 0
 -346 923 -377 881 -386 840 c 0
 -388 835 -388 831 -388 828 c 0
 -388 799 -366 789 -366 789 c 1
 -365 792 -353 837 -314 846 c 0
 -310 848 -307 848 -303 848 c 0xce
 -267 848 -239 805 -239 805 c 1
 -239 805 -216 861 -155 861 c 0xa6
 -120 861 -97 837 -97 800 c 0
 -97 788 -100 774 -104 760 c 0
 -116 717 -152 691 -190 690 c 0
 -195 690 l 0
 -261 690 -271 765 -307 765 c 0
 -308 765 -308 765 -308 765 c 0
 -354 763 -356 690 -357 688 c 1
 -414 690 -461 716 -468 769 c 0
 -469 779 -469 788 -469 797 c 0
 -469 871 -426 956 -345 981 c 0
 -323 987 -302 989 -279 989 c 0xce
 -242 989 -204 984 -169 984 c 0
 -149 984 -129 986 -112 990 c 0
 -77 998 -74 1033 -64 1061 c 1
 25 1061 l 1x96
-164 806 m 0xa6
 -184 806 -198 785 -198 768 c 0
 -198 756 -192 746 -176 746 c 0
 -155 746 -144 766 -144 783 c 0
 -144 796 -150 806 -164 806 c 0xa6
EndSplineSet
Refer: 197 3655 N 1 0 0 1 -166 0 2
EndChar
StartChar: uni0E01
Encoding: 161 3585 129
Width: 674
Flags: W
HStem: 0 21G<116 238.275 474 596.234> 524 74<355.366 532.455>
VStem: 564 119<412.672 495.661>
Fore
274 397 m 1
 243 441 165 476 159 478 c 1
 183 506 303 598 463 598 c 0
 621 598 683 529 683 448 c 0
 683 436 682 424 679 411 c 2
 592 0 l 1
 474 0 l 1
 561 409 l 2
 563 420 564 430 564 440 c 0
 564 496 524 524 450 524 c 0
 370 524 320 483 320 483 c 1
 322 481 339 471 366 448 c 0
 389 426 406 402 406 402 c 1
 401 402 311 364 293 276 c 2
 234 0 l 1
 116 0 l 1
 175 276 l 2
 177 287 190 330 215 357 c 0
 244 386 274 397 274 397 c 1
EndSplineSet
EndChar
StartChar: uni0E02
Encoding: 162 3586 130
Width: 659
Flags: W
HStem: 0 78<137 207 325 472.272> 342 70<201.059 265.511> 531 67<311.695 369.476>
VStem: 122 78<413.756 481.416> 273 67<419.416 489.277> 386 99<395.497 517.838>
Fore
122 427 m 0
 122 482 170 598 334 598 c 0
 451 598 485 533 485 477 c 0
 485 368 373 304 357 230 c 2
 325 78 l 1
 427 78 l 2
 458 78 482 94 491 135 c 2
 588 595 l 1
 706 595 l 1
 608 133 l 2
 596 73 553 0 449 0 c 2
 120 0 l 1
 137 78 l 1
 207 78 l 1
 238 224 l 2
 257 313 386 350 386 459 c 0
 386 491 375 531 326 531 c 0
 319 531 313 530 309 530 c 1
 329 519 340 494 340 467 c 0
 340 409 289 342 214 342 c 0
 159 342 122 373 122 427 c 0
245 490 m 0
 218 490 200 463 200 441 c 0
 200 425 209 412 230 412 c 0
 256 412 273 437 273 461 c 0
 273 476 265 490 245 490 c 0
EndSplineSet
EndChar
StartChar: uni0E03
Encoding: 163 3587 131
Width: 669
Flags: W
HStem: 0 78<149 221 339 477.628> 289 62<159.11 216.089> 429 54<186 223.949> 500 43<340 385> 520 76<210.803 294.042>
VStem: 90 68<351.719 423.032> 225 60<358.16 428.568> 406 102<403.72 499.152>
Fore
90 373 m 0xef
 90 451 159 596 263 596 c 0xef
 313 596 339 543 340 543 c 0xf7
 347 543 392 596 434 596 c 0xef
 484 596 508 543 508 491 c 0
 508 362 389.983 318.85 368 215 c 2
 339 78 l 1
 426 78 l 2
 460 78 483 92 488 119 c 2
 589 595 l 1
 707 595 l 1
 607 120 l 2
 587 29 516 0 432 0 c 2
 132 0 l 1
 149 78 l 1
 221 78 l 1
 251 221 l 2
 268 303 406 384 406 464 c 0
 406 486 395 500 385 500 c 0xf7
 359 500 319 458 318 458 c 1
 318 462 296 520 248 520 c 0
 214 520 201 485 200 481 c 1
 200 481 206 483 216 483 c 0
 258 483 285 453 285 412 c 0
 285 355 238 289 168 289 c 0
 120 289 90 320 90 373 c 0xef
184 351 m 0
 207 351 225 379 225 399 c 0
 225 416 216 429 198 429 c 0
 174 429 158 403 158 382 c 0
 158 366 166 352 184 351 c 0
EndSplineSet
EndChar
StartChar: uni0E04
Encoding: 164 3588 132
Width: 702
Flags: W
HStem: 0 21G<147 277 502 624.263> 207 66<381.552 449.439> 348 66<388.56 457.05> 510 88<347.367 557.51>
VStem: 139 107<184.412 402.731> 458 67<280.312 346.602> 588 119<394.815 480.886>
Fore
139 286 m 0
 139 431 227 598 482 598 c 0
 628 598 707 535 707 431 c 0
 707 415 705 398 701 380 c 2
 620 0 l 1
 502 0 l 1
 581 374 l 2
 585 391 588 408 588 424 c 0
 588 473 562 510 457 510 c 0
 264 510 246 379 246 242 c 0
 246 202 248 171 249 169 c 1
 250 173 288 302 322 348 c 0
 350 386 381 412 442 414 c 0
 498 414 525 376 525 332 c 0
 525 263 469 207 400 207 c 0
 367 207 347 221 347 221 c 1
 347 221 287 96 267 0 c 1
 147 0 l 1
 151 21 l 2
 156 44 158 66 158 88 c 0
 158 156 139 216 139 286 c 0
412 273 m 0
 440 273 458 298 458 319 c 0
 458 334 448 348 428 348 c 0
 400 348 381 325 381 301 c 0
 381 286 390 273 412 273 c 0
EndSplineSet
EndChar
StartChar: uni0E05
Encoding: 165 3589 133
Width: 698
Flags: W
HStem: 0 21G<136 267 494 616.236> 184 66<370.206 436.993> 325 67<377.048 443.534> 499 99<309.387 349 564 575.393>
VStem: 128 107<169.275 321.306> 445 66<257.822 323.215> 584 120<416.695 491.783>
Fore
331 195 m 1
 331 195 280 90 254 0 c 1
 136 0 l 1
 141 25 l 2
 147 52 149 75 149 98 c 0
 149 166 128 218 128 286 c 0
 128 308 130 332 136 358 c 0
 175 539 327 598 372 598 c 1
 454 541 l 1
 564 598 l 1
 609 598 704 569 704 457 c 0
 704 442 702 425 698 406 c 2
 612 0 l 1
 494 0 l 1
 579 401 l 2
 583 418 584 432 584 444 c 0
 584 484 565 499 536 499 c 1
 435 452 l 1
 349 498 l 1
 319 498 263 449 245 361 c 0
 237 324 235 276 235 238 c 0
 235 200 237 171 238 169 c 1
 239 173 276 284 303 320 c 0
 328 355 361 392 430 392 c 0
 463 392 511 376 511 317 c 0
 511 235 445 184 381 184 c 0
 352 184 331 195 331 195 c 1
399 250 m 0
 427 250 445 275 445 296 c 0
 445 311 435 325 415 325 c 0
 387 325 369 300 369 279 c 0
 369 264 379 250 399 250 c 0
EndSplineSet
EndChar
StartChar: uni0E06
Encoding: 166 3590 134
Width: 767
Flags: W
HStem: -5 81<248.57 296.587> 200 81<272.17 305 305 318> 289 60<169.316 224.635> 428 55<197 233.089> 500 43<350.834 396> 520 76<221.345 304.07>
VStem: 100 68<349.352 419.968> 162 84<79.2665 175.055> 234 62<356.736 427.725> 412 107<421.845 495.143>
Fore
100 372 m 0xf6c0
 100 452 169 596 274 596 c 0xf6c0
 324 596 350 543 351 543 c 0xfac0
 358 543 401 596 444 596 c 0xf6c0
 497 596 519 536 519 492 c 0
 519 440 481 409 468 348 c 2
 449 258 l 1
 451 256 480 244 511 213 c 0
 572 152 578 130 588 130 c 0
 590 130 592 133 593 139 c 2
 689 595 l 1
 805 595 l 1
 698 89 l 2
 682 16 622 -3 588 -3 c 0
 540 -3 520 34 486 83 c 0
 446 138 429 150 427 155 c 1
 415 98 l 2
 396 11 324 -5 270 -5 c 0
 214 -5 162 29 162 99 c 0
 162 208 258 281 336 281 c 1
 351 351 l 2
 359 394 412 424 412 473 c 0
 412 489 406 500 396 500 c 0xf940
 370 500 328 458 327 458 c 1
 325 464 307 520 259 520 c 0
 228 520 213 491 211 481 c 1
 211 481 217 483 226 483 c 0
 261 483 296 458 296 411 c 0
 296 354 249 289 178 289 c 0
 144 289 100 306 100 372 c 0xf6c0
305 200 m 0
 268 200 246 141 246 111 c 0xf140
 246 93 255 76 284 76 c 0
 291 76 293 81 297 98 c 2
 318 198 l 1
 317 198 313 200 305 200 c 0
192 349 m 0
 217 349 234 376 234 401 c 0
 234 416 226 428 209 428 c 0
 185 428 168 403 168 379 c 0xf2c0
 168 363 175 350 192 349 c 0
EndSplineSet
EndChar
StartChar: uni0E07
Encoding: 167 3591 135
Width: 510
Flags: W
HStem: -3 89<239.634 316.745> 378 71<350.703 394> 527 71<357.874 427.441>
VStem: 277 72<451.027 517.473> 430 91<464.556 525.433>
Fore
277 461 m 0
 277 535 341 598 414 598 c 0
 502 598 521 546 521 502 c 0
 521 486 518 471 516 460 c 2
 450 152 l 2
 424 28 329 -3 262 -3 c 0
 211 -3 158 16 143 74 c 0
 130 123 138 167 120 212 c 0
 106 242 90 236 69 242 c 1
 91 345 l 1
 92 345 101 346 113 346 c 0
 137 346 176 341 197 307 c 0
 238 237 202 86 274 86 c 0
 313 86 324 113 331 146 c 2
 381 379 l 1
 381 379 376 378 369 378 c 0
 313 378 277 411 277 461 c 0
381 449 m 0
 407 449 430 470 430 497 c 0
 430 515 418 527 398 527 c 0
 372 527 349 506 349 479 c 0
 349 461 361 449 381 449 c 0
EndSplineSet
EndChar
StartChar: uni0E08
Encoding: 168 3592 136
Width: 606
Flags: W
HStem: -3 89<340.874 423.034> 337 67<215.743 284.311> 510 88<266.633 460.795>
VStem: 141 66<263.718 328.689> 286 79<271.046 335.016> 491 123<403.148 479.883>
Fore
365 316 m 0
 365 268 339 169 339 122 c 0
 339 99 348 86 381 86 c 0
 413 86 427 102 435 139 c 2
 486 379 l 2
 489 395 491 409 491 422 c 0
 491 486 448 510 369 510 c 0
 272 510 211 458 175 434 c 1
 118 486 l 1
 132 518 223 598 394 598 c 0
 532 598 614 546 614 448 c 0
 614 434 612 420 609 404 c 2
 559 170 l 2
 533 46 457 -3 356 -3 c 0
 274 -3 230 37 230 92 c 2
 230 94 l 2
 230 130 236 166 240 185 c 2
 243 198 l 1
 241 198 237 197 232 197 c 0
 160 197 141 238 141 275 c 0
 141 334 192 404 276 404 c 0
 316 404 365 386 365 316 c 0
238 262 m 0
 267 262 286 286 286 307 c 0
 286 324 275 337 254 337 c 0
 226 337 207 311 207 290 c 0
 207 275 216 262 238 262 c 0
EndSplineSet
EndChar
StartChar: uni0E09
Encoding: 169 3593 137
Width: 711
Flags: W
HStem: -3 89<550.5 632.459> -3 116<222 338.43> 319 67<187.627 277> 506 98<284.317 498.26>
VStem: 115 66<247.668 312.735> 247 90<265.487 318.325> 532 124<409.847 474.832> 652 77<124.09 211.071>
Fore
729 193 m 0x7d
 729 137 697 -3 568 -3 c 0xbd
 533 -3 463 13 463 74 c 0
 463 80 463 87 465 94 c 2
 479 162 l 1
 477 159 441 129 385 61 c 0
 343 12 309 -3 257 -3 c 0
 187 -3 173 31 173 57 c 0
 173 63 174 69 175 74 c 2
 197 179 l 1
 144 179 115 212 115 256 c 0
 115 315 162 386 248 386 c 0
 306 386 337 349 337 300 c 0
 337 292 336 284 334 276 c 2
 302 124 l 2
 301.381 121.064 301 119 301 118 c 0
 301 114 303 113 309 113 c 0
 327 113 354 149 404 198 c 0
 464 258 498 271 503 274 c 1
 528 389 l 2
 530 401 532 411 532 421 c 0
 532 488 473 506 398 506 c 0
 244 506 198 431 195 426 c 1
 126 475 l 1
 129 488 222 604 423 604 c 0
 564 604 656 555 656 456 c 0x7e
 656 443 655 431 652 417 c 2
 626 297 l 1
 679 289 729 269 729 193 c 0x7d
602 86 m 0
 637 86 652 146 652 168 c 0
 652 206 624 219 610 219 c 1
 587 114 l 2
 586 107 585 101 585 97 c 0
 585 88 589 86 602 86 c 0
208 247 m 0
 227 247 247 277 247 298 c 0
 247 315 233 319 222 319 c 0
 197 319 181 294 181 274 c 0
 181 260 190 247 208 247 c 0
EndSplineSet
EndChar
StartChar: uni0E0A
Encoding: 170 3594 138
Width: 656
Flags: W
HStem: 0 78<121 192 310 457.688> 345 67<183.452 247.699> 527 71<296.924 356.967>
VStem: 114 68<413.225 480.831> 256 68<419.889 489.181> 521 116<325.435 391.402>
Fore
114 428 m 0
 114 495 170 598 317 598 c 0
 451 598 470 515 470 489 c 2
 470 487 l 1
 477 491 658 577 724 670 c 1
 728 561 l 1
 726 552 615 479 557 468 c 1
 587 456 637 420 637 353 c 0
 637 337 634 319 630 300 c 2
 594 133 l 2
 582 76 540 0 434 0 c 2
 104 0 l 1
 121 78 l 1
 192 78 l 1
 223 225 l 2
 240 308 372 356 372 461 c 0
 372 492 358 527 306 527 c 2
 293 527 l 1
 299 524 324 514 324 474 c 0
 324 414 272 345 195 345 c 0
 148 345 114 375 114 428 c 0
412 78 m 2
 440 78 467 89 477 135 c 2
 517 325 l 2
 520 336 521 347 521 356 c 0
 521 369 518 380 511 391 c 0
 492 422 485 422 461 423 c 1
 459 425 l 1
 429 336 357 300 343 233 c 2
 310 78 l 1
 412 78 l 2
227 490 m 0
 200 490 182 463 182 441 c 0
 182 425 191 412 212 412 c 0
 238 412 256 439 256 460 c 0
 256 476 247 490 227 490 c 0
EndSplineSet
EndChar
StartChar: uni0E0B
Encoding: 171 3595 139
Width: 694
Flags: W
HStem: 0 78<164 236 354 505.177> 292 64<176.183 234.738> 429 57<203 241.57> 503 43<357.509 402> 522 77<224.7 311.247>
VStem: 105 70<357.278 422.437> 242 60<373.777 428.279> 564 115<324.502 388.677>
Fore
105 379 m 0xef
 105 461 175 599 280 599 c 0xef
 330 599 357 546 358 546 c 0xf7
 365 546 407 599 449 599 c 0xef
 498 599 512 552 512 507 c 0
 512 499 512 491 511 484 c 1
 676 559 739 634 769 668 c 1
 770 558 l 1
 769 556 737 526 678 495 c 0
 645 477 605 466 600 464 c 1
 612 464 679 430 679 354 c 0
 679 336 676 318 672 297 c 2
 637 133 l 2
 626 78 583 0 477 0 c 2
 147 0 l 1
 164 78 l 1
 236 78 l 1
 278 276 l 2
 297 368 416 398 416 477 c 0
 416 490 412 503 402 503 c 0xf7
 375 503 336 461 334 461 c 1
 332 469 313 522 265 522 c 0
 232 522 220 496 218 484 c 1
 218 484 223 486 232 486 c 0
 265 486 302 463 302 415 c 0
 302 359 256 292 187 292 c 0
 152 292 105 311 105 379 c 0xef
456 78 m 2
 504 78 514 110 520 135 c 2
 560 323 l 2
 562 334 564 344 564 354 c 0
 564 367 561 379 554 388 c 0
 536 417 520 423 491 423 c 1
 492 428 l 1
 454 369 411 350 399 291 c 2
 354 78 l 1
 456 78 l 2
200 356 m 0
 234 356 242 389 242 403 c 0
 242 418 234 429 215 429 c 0
 191 429 175 406 175 384 c 0
 175 369 183 356 200 356 c 0
EndSplineSet
EndChar
StartChar: uni0E0C
Encoding: 172 3596 140
Width: 882
Flags: W
HStem: -5 74<451.747 513.988> -2 59<193.399 284.209> 518 81<333.846 514.059>
VStem: 129 93<58.5438 120.741> 294 61<65.4821 134.98> 379 71<70.3359 134.045> 529 72<81.9472 165.243> 535 118<420.695 497.951>
Fore
266 136 m 0x7c
 241 136 222 109 222 87 c 0
 222 71 231 57 249 57 c 0
 277 57 294 85 294 108 c 0
 294 123 285 136 266 136 c 0x7c
601 152 m 0x7e
 601 108 573 -5 463 -5 c 0xbe
 416 -5 379 30 379 86 c 0
 379 95 380 105 382 116 c 0
 405 227 493 236 493 236 c 1
 530 409 l 2
 533 423 535 436 535 447 c 0
 535 497 504 518 432 518 c 0
 358 518 310 483 310 483 c 1
 312 481 329 471 356 448 c 0
 380 426 397 402 397 402 c 1
 392 402 301 364 283 276 c 2
 267 202 l 1
 285 202 355 200 355 128 c 0
 355 50 295 -2 224 -2 c 0
 164 -2 129 31 129 90 c 0
 129 102 131 116 134 130 c 2
 165 276 l 2
 182 367 263 397 263 397 c 1
 231 442 154 477 148 478 c 1
 179 512 286 599 455 599 c 0
 603 599 653 532 653 455 c 0x7d
 653 440 651 426 648 411 c 2
 613 244 l 1
 630 244 696 216 710 159 c 1
 802 595 l 1
 920 595 l 1
 809 72 l 2
 796 8 743 -3 719 -3 c 0
 657 -3 683 52 646 126 c 0
 628 166 601 173 598 175 c 1
 599 174 601 165 601 152 c 0x7e
501 166 m 0
 470 166 450 128 450 102 c 0
 450 84 459 69 479 69 c 0
 509 69 529 105 529 133 c 0
 529 151 520 166 501 166 c 0
EndSplineSet
EndChar
StartChar: uni0E0D
Encoding: 173 3597 141
Width: 882
Flags: W
HStem: -288 64<471.97 564.338> -224 29<428 470> -124 57<406.003 471.837> -2 59<193.297 286.206> 0 78<419 458 576 693.088> 518 81<334.394 509.173>
VStem: 127 97<64.4287 121.026> 295 56<65.8543 134.936> 334 65<-193.03 -142.076> 472 55<-188.54 -130.331> 526 120<394.35 399 411 413.056 413.056 425.493 419.274 494.94>
Fore
351 128 m 0xef20
 351 58 299 -2 222 -2 c 0xf720
 162 -2 127 31 127 89 c 0
 127 102 129 115 132 130 c 2
 163 276 l 2
 180 368 262 397 262 397 c 1
 230 441 151 480 146 481 c 1
 172 509 284 599 452 599 c 0
 601 599 651 532 651 455 c 0
 651 440 649 426 646 411 c 2
 576 78 l 1
 651 78 l 2
 683 78 695 98 698 112 c 2
 800 595 l 1
 918 595 l 1
 820 130 l 2
 804 58 751 0 694 0 c 2
 402 0 l 1
 419 78 l 1
 458 78 l 1
 526 399 l 2
 529 414 531 427 531 439 c 0
 531 490 502 518 432 518 c 0
 357 518 307 483 307 483 c 1
 309 481 325 471 353 448 c 0
 376 426 393 402 393 402 c 1
 390 402 359 389 323 356 c 0
 293 326 284 291 281 276 c 2
 265 202 l 1
 282 202 351 199 351 128 c 0xef20
250 57 m 0
 278 57 295 85 295 108 c 0
 295 123 286 136 267 136 c 0
 241 136 224 108 224 86 c 0
 224 70 232 57 250 57 c 0
527 -137 m 0xe6c0
 527 -192 486 -224 470 -224 c 1
 471 -224 482 -226 500 -226 c 0
 532 -226 589 -222 636 -161 c 0
 659 -131 663 -100 668 -74 c 1
 774 -72 l 1
 767 -111 717 -288 487 -288 c 0
 392 -288 334 -248 334 -186 c 0
 334 -149 361 -67 457 -67 c 0
 505 -67 527 -99 527 -137 c 0xe6c0
445 -124 m 0
 410 -124 399 -153 399 -168 c 0
 399 -183 409 -195 428 -195 c 0
 454 -195 472 -172 472 -149 c 0
 472 -136 464 -124 445 -124 c 0
EndSplineSet
Substitution2: "Thai Descender Removal Single Substitution" uni0E0D.descless
EndChar
StartChar: uni0E0E
Encoding: 174 3598 142
Width: 680
Flags: W
HStem: -313 75<90.4762 172.404> -147 70<107.209 206.332> -3 64<130.715 188.332> 135 63<139.559 177> 520 81<366.51 548.419>
VStem: 8 80<-235.292 -166.669> 61 69<61.8669 128.434> 567 118<421.227 502.248>
AnchorPoint: "BelowBase" 527.32 -309 basechar 0
Fore
8 -219 m 0xfd
 8 -161 58 -77 165 -77 c 0
 207 -77 240 -90 240 -90 c 1
 263 -35 l 1
 349 -35 l 1
 330 -97 311 -124 311 -124 c 1
 349 -148 382 -190 382 -190 c 1
 429 -167 445 -136 447 -133 c 1
 562 409 l 2
 565 424 567 438 567 450 c 0
 567 499 538 520 467 520 c 0
 387 520 338 483 338 483 c 1
 340 481 358 471 383 448 c 0
 407 426 424 402 424 402 c 1
 421 402 390 389 353 356 c 0
 323 326 315 291 312 276 c 2
 277 112 l 2
 263 48 218 -3 148 -3 c 0
 94 -3 61 27 61 73 c 0xfb
 61 127 105 198 177 198 c 1
 194 276 l 2
 214 370 294 397 294 397 c 1
 257 445 183 477 177 478 c 1
 203 506 315 601 484 601 c 0
 635 601 685 534 685 457 c 0
 685 442 683 426 680 411 c 2
 565 -133 l 1
 512 -235 355 -316 355 -316 c 1
 323 -261 273 -210 269 -210 c 1
 267 -220 209 -313 107 -313 c 0
 39 -313 8 -268 8 -219 c 0xfd
207 -159 m 0
 207 -157 185 -147 161 -147 c 0
 116 -147 88 -183 88 -208 c 0xfd
 88 -225 102 -238 125 -238 c 0
 180 -238 207 -165 207 -159 c 0
156 61 m 0
 180 61 196 87 196 108 c 0
 196 123 189 135 172 135 c 0
 147 135 130 109 130 88 c 0xfb
 130 73 138 61 156 61 c 0
EndSplineSet
EndChar
StartChar: uni0E0F
Encoding: 175 3599 143
Width: 689
Flags: W
HStem: -305 72<56.7583 114.786> -142 68<69.5468 132.61> -3 61<137.826 197.278> 132 66<144.28 185> 521 78<372.906 555.36>
VStem: -10 66<-231.959 -155.35> 70 67<58.9864 125.212> 575 119<421.57 501.758>
AnchorPoint: "BelowBase" 536.32 -309 basechar 0
Fore
70 72 m 0
 70 143 125 198 185 198 c 1
 202 276 l 2
 222 370 302 397 302 397 c 1
 266 443 191 476 185 478 c 1
 211 506 331 599 490 599 c 0
 643 599 694 533 694 456 c 0
 694 441 692 427 689 412 c 2
 573 -133 l 1
 522 -245 391 -311 386 -311 c 1
 327 -193 l 1
 232 -307 l 1
 184 -219 l 1
 184 -222 142 -305 68 -305 c 0
 19 -305 -10 -268 -10 -217 c 0
 -10 -168 26 -74 109 -74 c 0
 139 -74 162 -86 163 -86 c 1
 174 -35 l 1
 255 -35 l 1
 254 -36 253 -46 250 -59 c 0
 249 -66 232 -124 232 -124 c 1
 254 -175 l 1
 349 -66 l 1
 411 -178 l 1
 424 -173 447 -152 455 -133 c 1
 570 409 l 2
 573 424 575 438 575 450 c 0
 575 501 544 521 471 521 c 0
 394 521 345 483 345 483 c 1
 347 481 365 471 391 448 c 0
 414 426 431 402 431 402 c 1
 428 402 397 389 361 356 c 0
 331 326 323 291 320 276 c 2
 285 112 l 2
 271 48 224 -3 155 -3 c 0
 101 -3 70 26 70 72 c 0
107 -142 m 0
 85 -142 56 -165 56 -203 c 0
 56 -220 63 -233 79 -233 c 0
 112 -233 126 -195 133 -162 c 1
 131 -159 124 -142 107 -142 c 0
164 58 m 0
 189 58 205 84 205 106 c 0
 205 120 198 132 180 132 c 0
 155 132 137 109 137 86 c 0
 137 71 146 58 164 58 c 0
EndSplineSet
EndChar
StartChar: uni0E10
Encoding: 176 3600 144
Width: 613
Flags: W
HStem: -349 72<13.3776 73.082 290.322 382.729> -185 65<24.7286 88.2823> -110 56<381.775 445.831> -3 75<341.839 429.27> 168 65<202.549 232.179 227 237.358> 305 68<208.372 275.41> 497 75<493.18 677.725> 534 70<319.98 504.65>
VStem: -52 64<-276.357 -194.828> 131 70<234.079 297.613> 276 89<246.446 303.973> 315 61<-176.361 -116.975> 447 63<-166.291 -116.092> 487 116<291.836 344.096>
Fore
131 243 m 0xfde4
 131 303 182 373 264 373 c 0
 347 373 365 325 365 277 c 0
 365 267 364 257 363 247 c 2
 341 115 l 2
 340 110 340 105 340 101 c 0
 340 83 347 72 378 72 c 0
 412 72 428 78 434 104 c 2
 479 268 l 2
 483 280 487 294 487 308 c 0
 487 322 483 336 474 351 c 0
 452 382 387 409 308 423 c 0
 225 438 162 445 161 445 c 1
 167 476 238 604 406 604 c 0xfde4
 496 604 544 572 606 572 c 0
 665 572 682 598 682 598 c 1
 703 532 l 1
 700 530 664 497 595 497 c 0xfee4
 509 497 476 534 401 534 c 0
 328 534 308 502 300 495 c 1
 343 495 603 470 603 327 c 0
 603 306 595 285 593 273 c 2
 554 133 l 2
 523 17 427 -3 359 -3 c 0
 291 -3 230 16 230 92 c 0
 230 98 230 104 231 110 c 2
 238 170 l 1
 231 169 223 168 216 168 c 0
 171 168 131 195 131 243 c 0xfde4
231 233 m 0
 259 233 276 257 276 278 c 0
 276 292 267 305 246 305 c 0
 219 305 201 281 201 261 c 0
 201 246 211 233 231 233 c 0
-52 -263 m 0
 -52 -212 -13 -120 71 -120 c 0
 110 -120 134 -141 134 -141 c 1
 134 -139 145 -127 153 -104 c 0
 162 -77 166 -61 166 -60 c 1
 245 -60 l 1
 245 -61 235 -98 219 -133 c 0
 202 -172 186 -192 186 -193 c 1
 204 -238 l 1
 255 -196 l 1
 255 -196 284 -270 340 -270 c 0
 381 -270 388 -236 388 -236 c 1
 370 -236 315 -223 315 -168 c 0
 315 -114 360 -54 428 -54 c 0
 492 -54 510 -86 510 -127 c 0xfcd8
 510 -142 508 -159 504 -176 c 2
 496 -213 l 2
 493 -227 478 -276 450 -302 c 0
 416 -332 379 -343 339 -343 c 0
 257 -343 233 -284 233 -284 c 1
 165 -343 l 1
 134 -271 l 1
 134 -271 84 -349 23 -349 c 0
 -27 -349 -52 -309 -52 -263 c 0
55 -185 m 0
 30 -185 12 -222 12 -246 c 0
 12 -264 20 -277 35 -277 c 0
 70 -277 91 -219 93 -213 c 1
 93 -213 76 -185 55 -185 c 0
405 -178 m 0
 430 -178 447 -157 447 -135 c 0
 447 -122 439 -110 420 -110 c 0
 396 -110 376 -130 376 -151 c 0
 376 -165 385 -178 405 -178 c 0
EndSplineSet
Substitution2: "Thai Descender Removal Single Substitution" uni0E10.descless
EndChar
StartChar: uni0E11
Encoding: 177 3601 145
Width: 832
Flags: W
HStem: 0 21G<269 391.5 628 750.231> 270 60<173.367 230.757> 467 131<681.41 769.406> 500 40<346 394> 513 83<223.655 299.549>
VStem: 103 69<331.375 399.586> 238 60<335.675 405.147> 414 105<439.62 535>
Fore
448 287 m 1xcf
 449 292 605 598 752 598 c 0
 820 598 848 550 848 499 c 0
 848 489 847 478 845 468 c 2
 746 0 l 1
 628 0 l 1
 716 416 l 2
 718 426 719 434 719 441 c 0
 719 458 712 467 693 467 c 0xe7
 649 467 571 347 498 231 c 0
 440 136 392 6 391 0 c 1
 269 0 l 1
 336 317 l 2
 354 401 414 440 414 481 c 0
 414 496 403 500 394 500 c 0xd7
 368 500 323 451 321 451 c 1
 320 465 295 513 261 513 c 0
 233 513 216 488 210 461 c 1
 210 461 217 463 229 463 c 0
 272 463 298 435 298 393 c 0
 298 351 265 270 184 270 c 0
 150 270 103 285 103 357 c 0
 103 452 179 596 277 596 c 0xcf
 329 596 345 540 346 540 c 0xd7
 352 540 393 596 443 596 c 0
 488 596 519 558 519 512 c 0
 519 456 475 416 466 372 c 2
 448 287 l 1xcf
197 330 m 0
 220 330 238 351 238 379 c 0
 238 394 231 406 213 406 c 0
 188 406 172 379 172 358 c 0
 172 344 180 330 197 330 c 0
EndSplineSet
EndChar
StartChar: uni0E12
Encoding: 178 3602 146
Width: 924
Flags: W
HStem: -6 72<513.534 577.894> 342 66<359.919 419.176> 578 20G<314.5 393.471 512 573 836.75 959>
VStem: 130 109<182.309 400.629> 141 111<72.5 282.151> 286 66<266.435 334.52> 420 66<284.43 341.589> 439 74<67.8017 146.776> 581 118<414.563 496.273> 588 72<74.3725 161.42>
Fore
439 79 m 0xe540
 439 189.717 527.671 230 539 230 c 1
 573 389 l 2
 577 407 581 426 581 444 c 0
 581 470 572 504 535 504 c 1
 433 455 l 1
 358 504 l 1
 319 500 239 431 239 280 c 0xf580
 239 223 252 201 252 137 c 0
 252 120 251 112 251 112 c 1
 325 215 l 1
 325 215 286 222 286 277 c 0
 286 355 347 408 408 408 c 0
 454 408 486 381 486 335 c 0
 486 291 454 243 440 224 c 2
 440 224 278 7 277 0 c 1
 133 0 l 1
 139 28 141 58 141 87 c 0xee
 141 155 130 225 130 290 c 0
 130 487 272 591 357 598 c 1
 450 547 l 1
 552 598 l 1
 594 598 699 567 699 452 c 0xf480
 699 438 698 422 694 405 c 2
 662 254 l 1
 681 254 735 241 756 195 c 1
 841 595 l 1
 959 595 l 1
 852 91 l 2
 841 38 829 0 778 0 c 2
 727 0 l 1
 727 19 l 2
 727 155 666 176 651 176 c 1
 652 171 660 154 660 128 c 0
 660 78 619 -6 528 -6 c 0
 475 -6 439 23 439 79 c 0xe540
381 265 m 0
 412 265 420 303 420 317 c 0xe6
 420 333 411 342 395 342 c 0
 369 342 352 318 352 294 c 0
 352 279 360 265 381 265 c 0
543 66 m 0
 568 66 588 90 588 125 c 0
 588 147 579 162 561 162 c 0
 532 162 513 118 513 94 c 0xe540
 513 77 524 66 543 66 c 0
EndSplineSet
EndChar
StartChar: uni0E13
Encoding: 179 3603 147
Width: 958
Flags: W
HStem: -6 77<762 877.216> -2 62<192.797 283.683> 520 78<336.529 511.273>
VStem: 129 93<60.7916 124.584> 292 61<67.9867 137.723> 534 119<417.766 498.612> 901 78<98.8135 216.93>
Fore
353 127 m 0xbe
 353 50 291 -2 224 -2 c 0x7e
 163 -2 129 31 129 89 c 0
 129 101 131 115 134 130 c 2
 165 276 l 2
 182 367 263 397 263 397 c 1
 231 442 154 477 148 478 c 1
 174 506 279 598 444 598 c 0
 598 598 653 532 653 453 c 0
 653 440 651 425 648 411 c 2
 598 172 l 1
 643 234 728 280 737 287 c 1
 802 595 l 1
 920 595 l 1
 860 311 l 1
 908 311 979 281 979 192 c 0
 979 133 942 -6 796 -6 c 0
 728 -6 698 26 698 75 c 0
 698 85 700 95 702 106 c 2
 716 175 l 1
 655 148 584 20 569 0 c 1
 443 0 l 1
 529 403 l 2
 532 418 534 431 534 443 c 0
 534 494 505 520 433 520 c 0
 359 520 308 483 308 483 c 1
 310 481 327 471 354 448 c 0
 378 426 397 397 397 397 c 1
 362 397 303 371 283 276 c 2
 267 202 l 1
 279 202 353 200 353 127 c 0xbe
839 71 m 0xbe
 882 71 901 131 901 166 c 0
 901 205 879 230 843 230 c 1
 817 109 l 2
 816 105 816 101 816 97 c 0
 816 79 826 71 839 71 c 0xbe
248 60 m 0x7e
 274 60 292 86 292 110 c 0
 292 125 284 139 265 139 c 0
 240 139 222 113 222 89 c 0
 222 73 230 60 248 60 c 0x7e
EndSplineSet
EndChar
StartChar: uni0E14
Encoding: 180 3604 148
Width: 702
Flags: W
HStem: 0 21G<144 270 499 621.267> 362 68<371.483 442.598> 512 93<347.718 549.74>
VStem: 133 113<205.774 377.723> 150 107<97.5326 307.963> 293 68<283.54 352.214> 444 73<293.021 359.517> 585 120<396.274 479.543>
Fore
133 301 m 0xf7
 133 398 201 605 472 605 c 0
 622 605 705 541 705 437 c 0
 705 422 704 406 700 389 c 2
 617 0 l 1
 499 0 l 1
 580 383 l 2
 583 397 585 410 585 422 c 0
 585 479 547 512 454 512 c 0
 333 512 272 455 251 358 c 0
 248 343 246 331 246 319 c 0xf7
 246 288 257 256 257 183 c 0
 257 148 254 122 254 121 c 1
 256 123 339 216 347 225 c 1
 345 225 293 245 293 301 c 0
 293 366 350 430 425 430 c 0
 464 430 517 412 517 350 c 0
 517 255 427 178 369 113 c 0
 303 40 270 2 270 0 c 1
 144 0 l 1
 149 40 150 74 150 104 c 0xef
 150 196 133 245 133 301 c 0xf7
411 362 m 0
 381 362 361 335 361 313 c 0
 361 296 371 282 393 282 c 0
 424 282 444 309 444 332 c 0
 444 348 434 362 411 362 c 0
EndSplineSet
EndChar
StartChar: uni0E15
Encoding: 181 3605 149
Width: 717
Flags: W
HStem: 0 21G<152 316 517 639.238> 364 63<376.834 446.42> 579 20G<357.5 420.565 534.174 614>
VStem: 136 110<204.218 367.581> 161 111<85 226.498> 297 69<282.696 353.712> 448 69<290.816 361.699> 608 120<418.827 494.368>
Fore
297 299 m 0xef
 297 362 353 427 431 427 c 0
 488 427 517 395 517 348 c 0
 517 267 454 217 380 113 c 0
 348 69 330 48 302 0 c 1
 152 0 l 1
 159 31 161 59 161 85 c 0xef
 161 167 136 229 136 298 c 0
 136 315 138 333 142 352 c 0
 180 533 334 599 381 599 c 1
 472 553 l 1
 582 599 l 1
 646 599 728 548 728 457 c 0
 728 445 727 433 724 420 c 2
 635 0 l 1
 517 0 l 1
 604 408 l 2
 607 421 608 433 608 442 c 0
 608 500 567 506 562 506 c 1
 453 457 l 1
 367 506 l 1
 313 497 246 404 246 298 c 0xf7
 246 276 249 254 254 230 c 0
 271 155 272 98 272 98 c 1
 288 124 293 138 314 164 c 0
 338 195 354 219 354 219 c 1
 354 219 297 237 297 299 c 0xef
416 364 m 0
 393 364 366 343 366 311 c 0
 366 287 387 281 399 281 c 0
 424 281 448 302 448 332 c 0
 448 350 436 364 416 364 c 0
EndSplineSet
EndChar
StartChar: uni0E16
Encoding: 182 3606 150
Width: 663
Flags: W
HStem: -3 66<221.57 289.278> 520 81<344.455 528.818>
VStem: 131 89<64.6799 113.126> 299 66<72.6778 138.661> 556 118<415.247 493.536>
Fore
365 132 m 0
 365 51 305 -3 230 -3 c 0
 177 -3 131 19 131 90 c 0
 131 104 133 121 137 139 c 2
 166 276 l 2
 183 368 265 397 265 397 c 1
 228 447 150 478 150 478 c 1
 175 506 287 601 454 601 c 0
 613 601 674 530 674 449 c 0
 674 436 673 424 670 411 c 2
 583 0 l 1
 465 0 l 1
 552 409 l 2
 554 420 556 431 556 440 c 0
 556 495 516 520 441 520 c 0
 381 520 327 494 309 478 c 1
 356 461 394 404 397 402 c 1
 386 402 302 360 284 276 c 2
 270 210 l 1
 318 210 365 192 365 132 c 0
250 63 m 0
 279 63 299 89 299 111 c 0
 299 127 289 141 267 141 c 0
 229 141 220 105 220 91 c 0
 220 76 229 63 250 63 c 0
EndSplineSet
EndChar
StartChar: uni0E17
Encoding: 183 3607 151
Width: 721
Flags: W
HStem: 0 21G<159 286.5 517 639.264> 503 95<537.703 666> 529 69<219.738 288.943>
VStem: 136 75<452.296 509.458> 290 90<465.169 527.795>
Fore
136 462 m 0xd8
 136 530 193 598 273 598 c 0xb8
 361 598 380 547 380 502 c 0
 380 487 377 472 375 460 c 2
 347 331 l 1
 358 359 377 417 448 500 c 0
 516 578 562 598 621 598 c 0
 711 598 737 549 737 496 c 0
 737 483 735 468 732 455 c 2
 635 0 l 1
 517 0 l 1
 607 423 l 2
 610 436 612 451 612 465 c 0
 612 486 606 503 585 503 c 0
 472 503 296 83 277 0 c 1
 159 0 l 1
 240 379 l 1
 230 379 l 2
 178 379 136 409 136 462 c 0xd8
243 451 m 0
 271 451 290 474 290 499 c 0
 290 515 281 529 259 529 c 0
 220 529 211 496 211 482 c 0
 211 466 221 451 243 451 c 0
EndSplineSet
EndChar
StartChar: uni0E18
Encoding: 184 3608 152
Width: 646
Flags: W
HStem: 0 78<95 209 327 450.141> 480 81<494.279 669.754> 520 78<326.687 504.963>
Fore
709 523 m 1xa0
 698 512 660 480 601 480 c 0xc0
 516 480 481 520 405 520 c 0
 327 520 305 477 305 477 c 1
 308 477 398 461 452 445 c 0
 585 404 621 366 621 317 c 0
 621 308 620 299 618 290 c 2
 584 130 l 2
 567 51 527 0 457 0 c 2
 78 0 l 1
 95 78 l 1
 209 78 l 1
 277 399 l 1
 218 406 168 426 165 426 c 1
 168 441 234 598 408 598 c 0xa0
 482 598 525 561 589 561 c 0xc0
 658 561 684 595 690 598 c 1
 709 523 l 1xa0
391 78 m 2
 434 78 457 91 468 143 c 2
 499 289 l 2
 500 295 502 301 502 307 c 0
 502 332 481 351 390 377 c 1
 327 78 l 1
 391 78 l 2
EndSplineSet
EndChar
StartChar: uni0E19
Encoding: 185 3609 153
Width: 741
Flags: W
HStem: -5 82<563 651.491> 529 69<216.738 285.855>
VStem: 133 75<452.296 509.458> 287 89<465.184 527.194> 683 73<116.605 247.591>
Fore
756 216 m 0
 756 137 701 -5 582 -5 c 0
 544 -5 486 15 486 91 c 0
 486 102 487 115 490 129 c 2
 513 236 l 1
 421 207 277 20 273 0 c 1
 155 0 l 1
 236 379 l 1
 227 379 l 2
 175 379 133 409 133 462 c 0
 133 530 190 598 270 598 c 0
 357 598 376 548 376 503 c 0
 376 487 373 472 371 460 c 2
 313 190 l 1
 313 190 346 222 418 274 c 0
 471 311 532 339 535 339 c 1
 589 595 l 1
 707 595 l 1
 654 345 l 1
 726 327 756 279 756 216 c 0
619 77 m 0
 645 77 683 129 683 194 c 0
 683 230 669 255 635 255 c 1
 604 109 l 2
 603 105 603 101 603 98 c 0
 603 85 609 77 619 77 c 0
240 451 m 0
 268 451 287 474 287 499 c 0
 287 515 278 529 256 529 c 0
 217 529 208 496 208 482 c 0
 208 466 218 451 240 451 c 0
EndSplineSet
EndChar
StartChar: uni0E1A
Encoding: 186 3610 154
Width: 718
Flags: W
HStem: 0 78<117 189 307 506.548> 528 70<229.718 301.253>
VStem: 149 73<451.833 519.423> 303 89<464.909 526.315>
Fore
149 462 m 0
 149 531 206 598 285 598 c 0
 374 598 392 546 392 500 c 0
 392 485 390 471 388 460 c 2
 307 78 l 1
 478 78 l 2
 501 78 531 78 541 127 c 2
 640 595 l 1
 758 595 l 1
 653 100 l 2
 639 34 587 0 530 0 c 2
 100 0 l 1
 117 78 l 1
 189 78 l 1
 253 379 l 1
 242 379 l 2
 191 379 149 408 149 462 c 0
254 450 m 0
 283 450 303 474 303 496 c 0
 303 513 292 528 270 528 c 0
 239 528 222 504 222 482 c 0
 222 465 233 450 254 450 c 0
EndSplineSet
EndChar
StartChar: uni0E1B
Encoding: 187 3611 155
Width: 718
Flags: W
HStem: 0 78<117 189 307 506.548> 528 70<229.718 301.253>
VStem: 149 73<451.833 519.423> 303 89<464.909 526.315>
AnchorPoint: "AboveBase" 595.297 613 basechar 0
Fore
149 462 m 0
 149 531 206 598 285 598 c 0
 374 598 392 546 392 500 c 0
 392 485 390 471 388 460 c 2
 307 78 l 1
 478 78 l 2
 501 78 531 78 541 127 c 2
 702 884 l 1
 820 884 l 1
 653 100 l 2
 639 34 587 0 530 0 c 2
 100 0 l 1
 117 78 l 1
 189 78 l 1
 253 379 l 1
 242 379 l 2
 191 379 149 408 149 462 c 0
254 450 m 0
 283 450 303 474 303 496 c 0
 303 513 292 528 270 528 c 0
 239 528 222 504 222 482 c 0
 222 465 233 450 254 450 c 0
EndSplineSet
EndChar
StartChar: uni0E1C
Encoding: 188 3612 156
Width: 674
Flags: W
HStem: 0 21G<92 226.5 464.5 593.235> 379 72<291 359.129> 529 69<296.067 365.347>
VStem: 367 73<459.119 527.414>
Fore
440 515 m 0
 440 442 379 379 302 379 c 2
 291 379 l 1
 247 172 l 1
 247 173 289 221 324 253 c 0
 364 291 378 300 409 323 c 1
 411 322 442 290 468 253 c 0
 488 221 508 173 508 172 c 1
 597 595 l 1
 715 595 l 1
 589 0 l 1
 471 0 l 1
 458 115 385 210 385 210 c 1
 333 172 241 59 212 0 c 1
 92 0 l 1
 190 460 l 2
 199 505 231 598 351 598 c 0
 385 598 440 581 440 515 c 0
320 451 m 0
 348 451 367 474 367 499 c 0
 367 515 357 529 336 529 c 0
 307 529 288 506 288 481 c 0
 288 465 298 451 320 451 c 0
EndSplineSet
EndChar
StartChar: uni0E1D
Encoding: 189 3613 157
Width: 674
Flags: W
HStem: 0 21G<92 226.5 464.5 593.252> 379 72<291 359.129> 529 69<296.067 365.347>
VStem: 367 73<459.119 527.414>
AnchorPoint: "AboveBase" 551.297 613 basechar 0
Fore
440 515 m 0
 440 442 379 379 302 379 c 2
 291 379 l 1
 247 172 l 1
 247 173 289 221 324 253 c 0
 364 291 378 300 409 323 c 1
 411 322 442 290 468 253 c 0
 488 221 508 173 508 172 c 1
 660 889 l 1
 778 889 l 1
 589 0 l 1
 471 0 l 1
 458 115 385 210 385 210 c 1
 333 172 241 59 212 0 c 1
 92 0 l 1
 190 460 l 2
 199 505 231 598 351 598 c 0
 385 598 440 581 440 515 c 0
320 451 m 0
 348 451 367 474 367 499 c 0
 367 515 357 529 336 529 c 0
 307 529 288 506 288 481 c 0
 288 465 298 451 320 451 c 0
EndSplineSet
EndChar
StartChar: uni0E1E
Encoding: 190 3614 158
Width: 752
Flags: W
HStem: 0 21G<158 286.179 544.125 668.235> 384 70<211.097 255> 532 66<219.964 285.603>
VStem: 136 74<455.909 522.987> 288 91<468.644 530.945>
Fore
136 466 m 0
 136 517 177 598 273 598 c 0
 354 598 379 553 379 504 c 0
 379 491 378 478 375 466 c 2
 333 268 l 1
 497 595 l 1
 569 595 l 1
 603 268 l 1
 672 595 l 1
 790 595 l 1
 664 0 l 1
 546 0 l 1
 504 448 l 1
 276 0 l 1
 158 0 l 1
 240 385 l 1
 240 385 235 384 226 384 c 0
 172 384 136 416 136 466 c 0
241 454 m 0
 269 454 288 478 288 502 c 0
 288 518 279 532 257 532 c 0
 229 532 210 506 210 484 c 0
 210 468 220 454 241 454 c 0
EndSplineSet
EndChar
StartChar: uni0E1F
Encoding: 191 3615 159
Width: 752
Flags: W
HStem: 0 21G<158 286.179 544.125 668.251> 384 70<211.097 255> 532 66<219.964 285.603>
VStem: 136 74<455.909 522.987> 288 91<468.644 530.945>
AnchorPoint: "AboveBase" 629.297 613 basechar 0
Fore
136 466 m 0
 136 517 177 598 273 598 c 0
 354 598 379 553 379 504 c 0
 379 491 378 478 375 466 c 2
 333 268 l 1
 497 595 l 1
 569 595 l 1
 603 268 l 1
 746 941 l 1
 864 941 l 1
 664 0 l 1
 546 0 l 1
 504 448 l 1
 276 0 l 1
 158 0 l 1
 240 385 l 1
 240 385 235 384 226 384 c 0
 172 384 136 416 136 466 c 0
241 454 m 0
 269 454 288 478 288 502 c 0
 288 518 279 532 257 532 c 0
 229 532 210 506 210 484 c 0
 210 468 220 454 241 454 c 0
EndSplineSet
EndChar
StartChar: uni0E20
Encoding: 192 3616 160
Width: 680
Flags: W
HStem: -3 63<136.082 195.847> 133 65<143.916 180> 521 78<369.677 550.831>
VStem: 67 68<60.9347 126.526> 570 118<421.227 501.808>
Fore
67 72 m 0
 67 135 118 198 180 198 c 1
 197 276 l 2
 217 370 297 397 297 397 c 1
 260 445 186 477 180 478 c 1
 206 506 316 599 486 599 c 0
 638 599 688 534 688 457 c 0
 688 442 686 426 683 411 c 2
 596 0 l 1
 478 0 l 1
 565 409 l 2
 568 424 570 438 570 450 c 0
 570 499 540 521 467 521 c 0
 390 521 341 483 341 483 c 1
 343 481 361 471 386 448 c 0
 410 426 427 402 427 402 c 1
 424 402 393 389 357 356 c 0
 327 326 318 291 315 276 c 2
 280 112 l 2
 266 48 221 -3 151 -3 c 0
 98 -3 67 26 67 72 c 0
162 60 m 0
 186 60 202 83 202 106 c 0
 202 121 194 133 177 133 c 0
 152 133 135 108 135 88 c 0
 135 73 143 60 162 60 c 0
EndSplineSet
EndChar
StartChar: uni0E21
Encoding: 193 3617 161
Width: 718
Flags: W
HStem: -4 82<168.437 223.913> 231 86<201.036 273> 384 69<258.422 301.781> 531 67<265.371 333.067>
VStem: 82 83<79.7688 166.41> 184 73<454.179 509.87> 335 92<468.718 529.362>
Fore
184 466 m 0
 184 517 225 598 321 598 c 0
 402 598 427 553 427 504 c 0
 427 491 426 478 423 466 c 2
 390 310 l 1
 390 310 427 308 468 236 c 0
 497 182 501 152 524 123 c 1
 525 123 542 127 548 156 c 2
 641 595 l 1
 759 595 l 1
 656 107 l 2
 647 67 630 28 588 11 c 0
 567 2 547 -3 528 -3 c 0
 462 -3 439 50 425 95 c 0
 397 189 369 198 367 204 c 1
 347 109 l 2
 327 16 232 -4 188 -4 c 0
 105 -4 82 52 82 106 c 0
 82 122 84 138 87 152 c 0
 118 298 249 317 273 317 c 1
 288 385 l 1
 288 385 283 384 274 384 c 0
 220 384 184 416 184 466 c 0
238 231 m 0
 194 231 165 158 165 118 c 0
 165 95 173 78 194 78 c 0
 215 78 227 97 230 115 c 2
 254 228 l 1
 253 228 247 231 238 231 c 0
287 453 m 0
 316 453 335 479 335 501 c 0
 335 517 325 531 304 531 c 0
 266 531 257 495 257 481 c 0
 257 466 266 453 287 453 c 0
EndSplineSet
EndChar
StartChar: uni0E22
Encoding: 194 3618 162
Width: 657
Flags: W
HStem: 0 78<235 464.594> 228 75<298.842 396> 380 68<293.765 362.848> 526 70<302.411 370.937>
VStem: 173 110<319.247 382.543> 373 70<457.542 524.462>
Fore
286 383 m 1
 284 370 283 368 283 362 c 0
 283 319 328 303 355 303 c 2
 412 303 l 1
 396 228 l 1
 335 228 l 2
 306 228 263 213 251 155 c 2
 235 78 l 1
 404 78 l 2
 446 78 478 97 487 141 c 2
 583 595 l 1
 701 595 l 1
 602 126 l 2
 590 71 549 0 446 0 c 2
 100 0 l 1
 132 149 l 2
 146 216 203 268 268 271 c 1
 209 274 173 314 173 372 c 0
 173 384 174 396 177 408 c 2
 187 458 l 2
 197 503 245 596 354 596 c 0
 405 596 443 567 443 512 c 0
 443 426 376 380 311 380 c 0
 296 380 286 383 286 383 c 1
323 448 m 0
 353 448 373 475 373 495 c 0
 373 511 362 526 340 526 c 0
 312 526 293 499 293 477 c 0
 293 462 302 448 323 448 c 0
EndSplineSet
EndChar
StartChar: uni0E23
Encoding: 195 3619 163
Width: 551
Flags: W
HStem: -2 68<316.161 384.5> 144 69<324.631 388.388> 429 58<154 298.847> 486 80<450.156 607.477> 527 74<284.048 454.264>
VStem: 240 75<67.7642 134.942>
Fore
240 76 m 0xec
 240 142 294 213 374 213 c 0
 383 213 388 212 388 212 c 1
 405 293 l 2
 408 306 410 318 410 329 c 0
 410 345 405 359 387 371 c 0
 348 398 248 429 154 429 c 0
 141 429 132 428 129 428 c 1
 145 487 226 601 370 601 c 0xec
 442 601 487 566 543 566 c 0
 598 566 611 594 619 598 c 1
 639 518 l 1
 632 515 599 486 551 486 c 0xd4
 477 486 426 527 346 527 c 0
 293 527 274 494 265 487 c 1
 268 487 353 481 421 449 c 0
 472 426 532 400 532 345 c 0
 532 339 531 333 530 326 c 2
 489 130 l 2
 476 69 428 -2 331 -2 c 0
 278 -2 240 23 240 76 c 0xec
345 66 m 0
 374 66 393 90 393 114 c 0
 393 130 384 144 362 144 c 0
 334 144 315 117 315 96 c 0
 315 80 324 66 345 66 c 0
EndSplineSet
EndChar
StartChar: uni0E24
Encoding: 196 3620 164
Width: 677
Flags: W
HStem: -3 66<224.57 292.278> 520 81<347.455 531.818>
VStem: 134 89<64.6799 113.126> 302 66<72.6778 138.661> 559 118<415.247 493.536>
Fore
368 132 m 0
 368 51 308 -3 233 -3 c 0
 180 -3 134 19 134 90 c 0
 134 104 136 121 140 139 c 2
 169 276 l 2
 186 368 268 397 268 397 c 1
 231 447 153 478 153 478 c 1
 178 506 290 601 457 601 c 0
 616 601 677 530 677 449 c 0
 677 436 676 424 673 411 c 2
 540 -218 l 1
 422 -218 l 1
 555 409 l 2
 557 420 559 431 559 440 c 0
 559 495 519 520 444 520 c 0
 384 520 330 494 312 478 c 1
 359 461 397 404 400 402 c 1
 389 402 305 360 287 276 c 2
 273 210 l 1
 321 210 368 192 368 132 c 0
253 63 m 0
 282 63 302 89 302 111 c 0
 302 127 292 141 270 141 c 0
 232 141 223 105 223 91 c 0
 223 76 232 63 253 63 c 0
EndSplineSet
EndChar
StartChar: uni0E25
Encoding: 197 3621 165
Width: 660
Flags: W
HStem: -6 67<210.66 279.802> 331 90<284.948 386.934> 516 85<296.258 508.291>
VStem: 123 86<62.6441 131.923> 290 75<69.8963 139.492> 539 122<409.415 487.507>
Fore
365 126 m 0
 365 63 314 -6 227 -6 c 0
 157 -6 123 32 123 107 c 0
 123 130 127 156 133 186 c 0
 160 313 217 421 355 421 c 0
 392 421 427 411 454 385 c 0
 485 356 512 288 512 285 c 1
 533 385 l 2
 537 402 539 417 539 431 c 0
 539 486 506 516 410 516 c 0
 281 516 229 453 219 439 c 1
 155 485 l 1
 179 524 269 601 439 601 c 0
 616 601 661 520 661 450 c 0
 661 437 659 425 657 413 c 2
 569 0 l 1
 451 0 l 1
 461 48 l 2
 462 54 463 62 463 71 c 0
 463 106 453 162 437 218 c 0
 417 287 386 331 329 331 c 0
 286 331 272 294 264 256 c 2
 254 208 l 1
 260 209 269 210 276 210 c 0
 332 210 365 174 365 126 c 0
241 61 m 0
 270 61 290 86 290 111 c 0
 290 127 280 141 258 141 c 0
 229 141 209 114 209 92 c 0
 209 75 219 61 241 61 c 0
EndSplineSet
EndChar
StartChar: uni0E26
Encoding: 198 3622 166
Width: 689
Flags: W
HStem: -3 63<142.082 201.847> 133 65<148.368 186> 521 78<375.677 556.831>
VStem: 73 68<60.9347 125.646> 576 118<421.227 501.808>
Fore
73 72 m 0
 73 131 120 198 186 198 c 1
 203 276 l 2
 223 370 303 397 303 397 c 1
 266 445 192 477 186 478 c 1
 212 506 322 599 492 599 c 0
 644 599 694 534 694 457 c 0
 694 442 692 426 689 411 c 2
 554 -228 l 1
 436 -228 l 1
 571 409 l 2
 574 424 576 438 576 450 c 0
 576 499 546 521 473 521 c 0
 396 521 347 483 347 483 c 1
 349 481 367 471 392 448 c 0
 416 426 433 402 433 402 c 1
 430 402 399 389 363 356 c 0
 333 326 324 291 321 276 c 2
 286 112 l 2
 272 48 227 -3 157 -3 c 0
 104 -3 73 26 73 72 c 0
168 60 m 0
 192 60 208 83 208 106 c 0
 208 121 200 133 183 133 c 0
 158 133 141 108 141 88 c 0
 141 73 149 60 168 60 c 0
EndSplineSet
EndChar
StartChar: uni0E27
Encoding: 199 3623 167
Width: 593
Flags: W
HStem: -2 66<369.299 434.735> 143 70<376.375 443.05> 515 84<276.518 456.172>
VStem: 293 74<65.5381 134.127> 483 122<405.208 489.729>
Fore
293 83 m 0
 293 153 357 213 429 213 c 0
 437 213 442 212 442 212 c 1
 475 369 l 2
 479 389 483 410 483 430 c 0
 483 476 462 515 381 515 c 0
 294 515 243 488 213 422 c 1
 121 461 l 1
 125 482 202 599 394 599 c 0
 534 599 605 559 605 453 c 0
 605 431 602 407 596 380 c 2
 543 130 l 2
 530 71 483 -2 395 -2 c 0
 315 -2 293 44 293 83 c 0
397 64 m 0
 426 64 445 91 445 113 c 0
 445 129 435 143 413 143 c 0
 385 143 367 116 367 94 c 0
 367 78 376 64 397 64 c 0
EndSplineSet
EndChar
StartChar: uni0E28
Encoding: 200 3624 168
Width: 700
Flags: W
HStem: 0 21G<143 270 502 624.265> 211 66<388.865 457.354> 351 69<397.536 445> 518 83<351.015 530.471>
VStem: 137 109<178.027 402.298> 465 70<284.844 349.629>
Fore
467 518 m 0
 275 518 246 396 246 241 c 0
 246 202 248 171 249 169 c 1
 250 173 284 296 328 354 c 0
 353 388 383 420 445 420 c 1
 550 504 l 1
 531 513 504 518 467 518 c 0
137 275 m 0
 137 423 221 601 477 601 c 0
 578 601 608 576 622 575 c 1
 651 582 701 649 702 656 c 1
 831 656 l 1
 813 613 751 545 695 517 c 1
 697 509 712 493 712 452 c 0
 712 440 711 425 707 408 c 2
 620 0 l 1
 502 0 l 1
 585 389 l 2
 588 403 589 417 589 429 c 0
 589 440 588 449 586 454 c 1
 514 399 l 1
 529 385 535 363 535 341 c 0
 535 258 461 211 404 211 c 0
 372 211 355 225 355 225 c 1
 329 182 273 28 267 0 c 1
 143 0 l 1
 147 21 l 2
 152 45 154 68 154 89 c 0
 154 152 137 207 137 275 c 0
419 277 m 0
 447 277 465 302 465 322 c 0
 465 337 455 351 435 351 c 0
 407 351 388 326 388 306 c 0
 388 291 398 277 419 277 c 0
EndSplineSet
EndChar
StartChar: uni0E29
Encoding: 201 3625 169
Width: 748
Flags: W
HStem: 0 78<117 189 307 532.366> 193 101<443.871 549> 365 58<449.455 513.072> 529 69<229.28 298.846>
VStem: 149 73<452.354 509.017> 302 90<464.783 526.815> 378 64<294.56 356.01> 514 58<301.027 364.449>
Fore
572 354 m 0xfb
 572 306 536 277 536 276 c 1
 536 276 541 273 554 273 c 2
 566 271 572 273 574 273 c 1
 642 595 l 1
 760 595 l 1
 699 307 l 1
 713 307 781 356 790 400 c 1
 858 351 l 1
 828 279 695 213 679 213 c 1
 655 100 l 2
 638 18 570 0 533 0 c 2
 100 0 l 1
 117 78 l 1
 189 78 l 1
 253 379 l 1
 242 379 l 2
 187 379 149 411 149 462 c 0
 149 528 203 598 285 598 c 0
 374 598 392 546 392 500 c 0xfd
 392 485 390 471 388 460 c 2
 307 78 l 1
 479 78 l 2
 512 78 534 85 543 127 c 2
 557 193 l 1
 549 193 l 2
 524 193 455 197 418 224 c 0
 393 244 378 276 378 308 c 0
 378 365 426 423 494 423 c 0
 547 423 572 392 572 354 c 0xfb
253 451 m 0
 280 451 302 470 302 497 c 0
 302 514 291 529 269 529 c 0
 231 529 222 496 222 482 c 0
 222 466 232 451 253 451 c 0
470 294 m 0
 496 294 514 318 514 338 c 0
 514 352 505 365 486 365 c 0
 460 365 442 341 442 321 c 0xfb
 442 307 451 294 470 294 c 0
EndSplineSet
EndChar
StartChar: uni0E2A
Encoding: 202 3626 170
Width: 657
Flags: W
HStem: -2 67<217.246 288.683> 145 69<257.558 297.024> 346 46<337 432> 521 78<301.702 508.518>
VStem: 124 92<67.8422 135.69> 298 69<73.7688 143.848> 541 120<412.832 476>
Fore
229 -2 m 0
 180 -2 124 19 124 105 c 0
 124 131 129 163 137 201 c 0
 158 301 189 380 295 412 c 0
 360 431 429 456 510 503 c 1
 486 514 470 521 429 521 c 0
 290 521 247 467 223 441 c 1
 156 490 l 1
 187 529 267 599 433 599 c 0
 553 599 590 567 590 567 c 1
 610 584 637 618 645 655 c 1
 758 655 l 1
 725 574 645 529 638 521 c 1
 644 508 661 498 661 454 c 0
 661 438 659 417 653 390 c 2
 570 0 l 1
 452 0 l 1
 460 37 l 2
 462 47 463 59 463 74 c 0
 463 169 421 346 337 346 c 0
 292 346 275 295 266 256 c 2
 257 212 l 1
 263 213 270 214 277 214 c 0
 333 214 367 178 367 128 c 0
 367 68 319 -2 229 -2 c 0
512 282 m 1
 534 385 l 2
 539 412 541 427 541 436 c 0
 541 448 538 448 538 448 c 1
 535 446 507 422 475 409 c 2
 432 392 l 1
 434 392 453 385 473 356 c 0
 492 326 512 285 512 282 c 1
249 65 m 0
 278 65 298 90 298 115 c 0
 298 131 288 145 266 145 c 0
 236 145 216 118 216 96 c 0
 216 79 226 65 249 65 c 0
EndSplineSet
EndChar
StartChar: uni0E2B
Encoding: 203 3627 171
Width: 715
Flags: W
HStem: 0 21G<155 290 512 634.225> 525 73<215.934 285.331 586.436 661.142>
VStem: 132 75<449.031 505.295> 287 89<463.479 523.835> 492 81<436.595 512.685> 664 75<446.192 522.182>
Fore
492 451 m 0
 492 514 542 598 642 598 c 0
 678 598 739 580 739 512 c 0
 739 417 661 385 661 385 c 1
 671 382 695 356 695 319 c 0
 695 309 693 297 690 284 c 2
 630 0 l 1
 512 0 l 1
 574 293 l 2
 575 299 576 304 576 309 c 0
 576 320 571 328 553 328 c 0
 537 328 526 317 524 315 c 0
 515 309 468 264 410 192 c 0
 351 123 307 78 273 0 c 1
 155 0 l 1
 236 379 l 1
 225 379 l 2
 174 379 132 408 132 462 c 0
 132 529 190 598 268 598 c 0
 357 598 376 547 376 502 c 0
 376 486 373 472 371 460 c 2
 321 225 l 1
 321 225 369 286 409 324 c 0
 467 381 508 401 508 401 c 1
 506 401 492 419 492 451 c 0
239 447 m 0
 268 447 287 470 287 499 c 0
 287 518 275 525 256 525 c 0
 217 525 207 492 207 478 c 0
 207 462 217 447 239 447 c 0
609 434 m 0
 642 434 664 463 664 490 c 0
 664 509 653 525 629 525 c 0
 595 525 573 495 573 468 c 0
 573 450 584 434 609 434 c 0
EndSplineSet
EndChar
StartChar: uni0E2C
Encoding: 204 3628 172
Width: 754
Flags: W
HStem: 0 21G<156 287.517 540.759 666.261> 384 70<210.397 254> 474 44<572.052 645> 532 66<217.806 283.67> 602 60<540.263 659.67>
VStem: 135 74<455.097 523.38> 286 91<468.948 530.13> 453 74<525.339 586.996>
Fore
453 536 m 0
 453 583 495 662 620 662 c 0
 714 662 741 610 742 610 c 1
 762 622 796 663 804 687 c 1
 896 656 l 1
 873 614 819 552 773 521 c 1
 662 0 l 1
 546 0 l 1
 470 290 l 1
 274 0 l 1
 156 0 l 1
 238 385 l 1
 238 385 233 384 224 384 c 0
 166 384 135 419 135 466 c 0
 135 525 180 598 271 598 c 0
 353 598 377 554 377 504 c 0
 377 492 376 479 373 466 c 2
 314 190 l 1
 458 418 l 1
 530 418 l 1
 584 190 l 1
 645 474 l 1
 644 474 614 461 570 461 c 0
 518 461 453 477 453 536 c 0
588 518 m 0
 620 518 664 535 664 567 c 0
 664 589 634 602 606 602 c 0
 562 602 527 583 527 553 c 0
 527 527 561 518 588 518 c 0
240 454 m 0
 268 454 286 481 286 502 c 0
 286 518 277 532 256 532 c 0
 228 532 209 506 209 484 c 0
 209 468 219 454 240 454 c 0
EndSplineSet
EndChar
StartChar: uni0E2D
Encoding: 205 3629 173
Width: 669
Flags: W
HStem: 0 78<247.252 473.562> 195 69<262.91 330.634> 342 67<269.883 338.783> 516 84<310.742 519.018>
VStem: 340 71<272.58 340.171> 552 121<417.042 487.131>
Fore
411 324 m 0
 411 264 359 195 277 195 c 0
 268 195 264 196 264 196 c 1
 248 124 l 2
 247 119 246 114 246 110 c 0
 246 91 257 78 293 78 c 2
 418 78 l 2
 467 78 484 102 492 139 c 2
 548 403 l 2
 550 414 552 425 552 434 c 0
 552 489 511 516 418 516 c 0
 288 516 245 445 235 431 c 1
 169 486 l 1
 172 488 232 600 445 600 c 0
 634 600 673 515 673 454 c 0
 673 444 672 434 670 425 c 2
 608 130 l 2
 585 24 510 0 441 0 c 2
 235 0 l 2
 141 0 125 55 125 89 c 0
 125 98 126 105 127 110 c 2
 163 276 l 2
 176 339 223 409 320 409 c 0
 379 409 411 372 411 324 c 0
292 264 m 0
 321 264 340 288 340 312 c 0
 340 328 331 342 309 342 c 0
 280 342 261 318 261 294 c 0
 261 278 270 264 292 264 c 0
EndSplineSet
EndChar
StartChar: uni0E2E
Encoding: 206 3630 174
Width: 656
Flags: W
HStem: 0 78<255.272 463.586> 157 68<241.936 307.337> 302 69<245.443 313.241> 417 61<300.91 510.151> 540 62<308.973 515.956>
VStem: 315 77<232.836 300.685>
Fore
187 493 m 0
 187 558 305 602 439 602 c 0
 554 602 594 561 594 561 c 1
 603 561 633 593 641 630 c 1
 732 598 l 1
 723 579 683 518 649 497 c 1
 650 493 662 480 662 448 c 0
 662 439 661 428 658 415 c 2
 598 130 l 2
 584 67 542 0 429 0 c 2
 221 0 l 2
 127 0 111 55 111 90 c 0
 111 98 112 105 113 110 c 2
 141 238 l 2
 154 300 202 371 300 371 c 0
 353 371 392 338 392 286 c 0
 392 222 335 157 255 157 c 0
 246 157 242 158 242 158 c 1
 234 124 l 2
 233 119 232 115 232 111 c 0
 232 81 260 78 281 78 c 2
 413 78 l 2
 453 78 473 100 480 134 c 2
 539 409 l 2
 541 420 543 428 543 434 c 0
 543 439 542 442 539 443 c 1
 512 432 426 417 366 417 c 0
 297 417 187 436 187 493 c 0
527 512 m 1
 523 513 495 540 420 540 c 0
 364 540 300 533 300 503 c 0
 300 483 335 478 401 478 c 0
 491 478 514 501 527 512 c 1
269 225 m 0
 294 225 315 246 315 273 c 0
 315 289 306 302 285 302 c 0
 256 302 237 279 237 255 c 0
 237 239 247 225 269 225 c 0
EndSplineSet
EndChar
StartChar: uni0E2F
Encoding: 207 3631 175
Width: 623
Flags: W
HStem: 328 74<307.77 447.447> 427 52<304 343.491> 545 53<290.65 348.745>
VStem: 197 87<440.383 531.315> 350 67<484.59 538.472>
Fore
417 532 m 0
 417 477 368 427 304 427 c 1
 304 427 318 402 362 402 c 0
 512 402 565 562 571 595 c 1
 582 595 l 2
 638 595 669 574 669 533 c 0
 669 526 668 518 666 510 c 2
 596 179 l 2
 582 113 568 58 496 21 c 0
 443 -5 403 -6 379 -6 c 1
 344 77 l 1
 383 77 426 84 454 110 c 0
 466 121 476 164 481 190 c 2
 524 391 l 1
 524 391 468 328 355 328 c 0
 261 328 197 378 197 454 c 0
 197 533 258 598 338 598 c 0
 391 598 417 569 417 532 c 0
310 479 m 0
 334 479 350 501 350 520 c 0
 350 533 343 545 324 545 c 0
 300 545 284 522 284 504 c 0
 284 491 292 479 310 479 c 0
EndSplineSet
EndChar
StartChar: uni0E30
Encoding: 208 3632 176
Width: 531
Flags: W
HStem: 14 76<154.377 233.408> 187 61<166.35 244.563> 341 77<225.305 303.533> 515 59<234.821 314.739>
VStem: 82 69<93.7799 172.438> 152 69<421.999 500.96> 248 67<106.199 183.474> 318 66<432.286 511.827>
Fore
152 443 m 0
 152 510 215 574 294 574 c 0
 345 574 384 544 384 497 c 0
 384 467 365 432 365 432 c 1
 365 432 412 438 473 475 c 0
 552 523 596 587 596 587 c 1
 568 457 l 1
 509 393 378 341 289 341 c 0
 184 341 152 396 152 443 c 0
82 117 m 0
 82 178 142 248 224 248 c 0
 272 248 315 217 315 167 c 0
 315 137 296 106 296 106 c 1
 296 106 343 112 404 149 c 0
 482 195 526 261 526 261 c 1
 498 129 l 1
 437 63 305 14 224 14 c 0
 113 14 82 69 82 117 c 0
210 187 m 0
 175 187 151 157 151 127 c 0
 151 107 164 90 191 90 c 0
 220 90 248 114 248 149 c 0
 248 169 237 187 210 187 c 0
279 515 m 0
 242 515 221 483 221 456 c 0
 221 436 233 418 261 418 c 0
 296 418 318 448 318 476 c 0
 318 497 306 515 279 515 c 0
EndSplineSet
EndChar
StartChar: uni0E31
Encoding: 209 3633 177
Width: 0
Flags: W
HStem: 682 78<-100.259 44.8261> 873 57<-207.376 -128.69>
VStem: -284 64<783.648 860.428> -126 66<794.183 870.493>
AnchorPoint: "AboveMark" 40.0059 988 basemark 0
AnchorPoint: "AboveBase" 43.2969 613 mark 0
Fore
-60 850 m 0
 -60 793 -103 760 -103 760 c 1
 -101 760 -91 759 -74 759 c 0
 113 759 226 913 229 914 c 1
 202 786 l 1
 184 774 91 682 -80 682 c 0
 -143 682 -195 695 -222 707 c 0
 -266 726 -284 761 -284 797 c 0
 -284 857 -234 930 -151 930 c 0
 -103 930 -60 902 -60 850 c 0
-163 873 m 0
 -189 873 -220 853 -220 815 c 0
 -220 788 -197 781 -183 781 c 0
 -149 781 -126 811 -126 838 c 0
 -126 859 -141 873 -163 873 c 0
EndSplineSet
EndChar
StartChar: uni0E32
Encoding: 210 3634 178
Width: 493
Flags: W
HStem: 0 21G<314 436.259> 507 91<232.721 377.568>
VStem: 398 121<391.588 486.82>
Fore
196 449 m 1
 116 478 l 1
 116 480 153 598 348 598 c 0
 481 598 519 524 519 442 c 0
 519 418 516 394 511 371 c 2
 432 0 l 1
 314 0 l 1
 391 360 l 2
 395 380 398 401 398 420 c 0
 398 467 381 507 316 507 c 0
 221 507 197 451 196 449 c 1
EndSplineSet
EndChar
StartChar: uni0E34
Encoding: 212 3636 180
Width: 0
Flags: W
HStem: 718 59<-341.134 -53.6971> 848 66<-237.787 -72.9147>
VStem: -427 492<682 737.367 682 683>
AnchorPoint: "AboveMark" 63.0059 988 basemark 0
AnchorPoint: "AboveBase" 43.2969 613 mark 0
Fore
61 638 m 1
 25 675 -75 718 -224 718 c 0
 -350 718 -425 682 -427 682 c 1
 -398 792 -296 914 -134 914 c 0
 24 914 65 772 65 683 c 0
 65 665 64 650 61 638 c 1
-22 748 m 1
 -27 787 -60 848 -152 848 c 0
 -262 848 -298 766 -298 766 c 1
 -298 766 -254 777 -189 777 c 0
 -94 777 -22 748 -22 748 c 1
EndSplineSet
EndChar
StartChar: uni0E35
Encoding: 213 3637 181
Width: 0
Flags: W
HStem: 701 59<-344.252 -58.0996> 831 65<-240.275 -73.0957>
AnchorPoint: "AboveBase" 43.2969 613 mark 0
AnchorPoint: "AboveMark" 63.0059 988 basemark 0
Fore
58 621 m 1
 24 657 -77 701 -227 701 c 0
 -353 701 -429 665 -429 665 c 1
 -404 778 -292 896 -142 896 c 0
 -91 896 -49 882 -21 863 c 1
 -5 938 l 1
 110 938 l 1
 61 705 l 1
 62 697 62 687 62 676 c 0
 62 655 61 632 58 621 c 1
-24 731 m 1
 -29 769 -61 831 -154 831 c 0
 -264 831 -301 750 -301 750 c 1
 -301 750 -256 760 -192 760 c 0
 -96 760 -24 731 -24 731 c 1
EndSplineSet
EndChar
StartChar: uni0E36
Encoding: 214 3638 182
Width: 0
Flags: W
HStem: 700 59<-345.134 -48.6374> 829 66<-240.288 -88.7576> 907 52<-0.430187 78.0595>
AnchorPoint: "AboveBase" 43.2969 613 mark 0
AnchorPoint: "AboveMark" 54.0059 988 basemark 0
Fore
130 866 m 0
 117 805 77 779 43 765 c 1
 72 690 61 668 55 635 c 1
 18 666 -93 700 -228 700 c 0
 -354 700 -429 664 -431 664 c 1
 -418 724 -334 895 -142 895 c 0
 -112 895 -87 890 -70 884 c 1
 -68 894 -19 959 51 959 c 0
 107 959 142 922 130 866 c 0
-26 730 m 1
 -29 753 -50 829 -156 829 c 0
 -266 829 -302 748 -302 748 c 1
 -302 748 -258 759 -193 759 c 0
 -98 759 -26 730 -26 730 c 1
-13 860 m 0
 -19 832 -3 814 27 814 c 0
 55 814 75 837 80 860 c 0
 85 883 74 907 42 907 c 0
 6 907 -10 875 -13 860 c 0
EndSplineSet
EndChar
StartChar: uni0E37
Encoding: 215 3639 183
Width: 0
Flags: W
HStem: 712 59<-354.041 -68.7776> 842 65<-251.217 -144>
AnchorPoint: "AboveMark" -5.99414 988 basemark 0
AnchorPoint: "AboveBase" 43.2969 613 mark 0
Fore
48 632 m 1
 14 667 -87 712 -239 712 c 0
 -365 712 -438 676 -440 676 c 1
 -423 758 -330 907 -144 907 c 1
 -134 953 l 1
 -42 953 l 1
 -55 894 l 1
 -21 886 -16 857 -13 857 c 1
 8 953 l 1
 108 953 l 1
 50 684 l 1
 48 632 l 1
-35 742 m 1
 -38 766 -60 842 -166 842 c 0
 -276 842 -310 760 -310 760 c 1
 -310 760 -267 771 -203 771 c 0
 -107 771 -35 742 -35 742 c 1
EndSplineSet
EndChar
StartChar: uni0E38
Encoding: 216 3640 184
Width: 0
Flags: W
HStem: -196 59<-249.761 -219.5> -81 53<-246.898 -175>
VStem: -308 58<-136.876 -85.0501> -192 79<-128.551 -81.2636>
AnchorPoint: "BelowBase" -92.5264 -26 mark 0
Fore
-308 -131 m 0
 -308 -93 -279 -28 -191 -28 c 0
 -159 -28 -113 -37 -113 -104 c 0
 -113 -115 -114 -128 -117 -143 c 2
 -152 -308 l 1
 -258 -308 l 1
 -234 -195 l 1
 -239 -196 -243 -196 -247 -196 c 0
 -274 -196 -308 -173 -308 -131 c 0
-227 -137 m 0
 -212 -137 -192 -123 -192 -104 c 0
 -192 -91 -202 -81 -215 -81 c 0
 -230 -81 -250 -95 -250 -114 c 0
 -250 -127 -240 -137 -227 -137 c 0
EndSplineSet
Substitution2: "Thai Sara U Nikhahit Reordering" uni0E4D
Substitution2: "Thai Sara U Thanthakhat Reordering" uni0E4C.low
Substitution2: "Thai Sara U Mai Chattawa Reordering" uni0E4B.low
Substitution2: "Thai Sara U Mai Tri Reordering" uni0E4A.low
Substitution2: "Thai Sara U Mai Tho Reordering" uni0E49.low
Substitution2: "Thai Sara U Mai Ek Reordering" uni0E48.low
EndChar
StartChar: uni0E39
Encoding: 217 3641 185
Width: 0
Flags: W
HStem: -296 71<-304 -243.789> -84 58<-418.033 -362.346>
VStem: -489 64<-154.711 -89.279> -361 78<-144.477 -84.6581>
AnchorPoint: "BelowBase" -92.5264 -26 mark 0
Fore
-489 -153 m 0
 -489 -83 -435 -26 -366 -26 c 0
 -306 -26 -283 -64 -283 -110 c 0
 -283 -122 -285 -136 -288 -149 c 2
 -304 -225 l 1
 -270 -225 l 2
 -253 -225 -240 -201 -235 -181 c 2
 -204 -31 l 1
 -88 -31 l 1
 -129 -227 l 2
 -133 -245 -175 -296 -215 -296 c 2
 -420 -296 l 1
 -404 -219 l 1
 -409 -219 -414 -220 -418 -220 c 0
 -473 -220 -489 -188 -489 -153 c 0
-386 -84 m 0
 -410 -84 -425 -109 -425 -128 c 0
 -425 -143 -417 -155 -399 -155 c 0
 -375 -155 -361 -132 -361 -112 c 0
 -361 -97 -369 -84 -386 -84 c 0
EndSplineSet
Substitution2: "Thai Sara UU Nikhahit Reordering" uni0E4D
Substitution2: "Thai Sara UU Thanthakhat Reordering" uni0E4C.low
Substitution2: "Thai Sara UU Mai Chattawa Reordering" uni0E4B.low
Substitution2: "Thai Sara UU Mai Tri Reordering" uni0E4A.low
Substitution2: "Thai Sara UU Mai Tho Reordering" uni0E49.low
Substitution2: "Thai Sara UU Mai Ek Reordering" uni0E48.low
EndChar
StartChar: uni0E3A
Encoding: 218 3642 186
Width: 0
Flags: W
HStem: -261 21G<-237.5 -180.5>
AnchorPoint: "BelowBase" -92.5264 -26 mark 0
Fore
-283 -194 m 0
 -283 -142 -241 -86 -176 -86 c 0
 -127 -86 -105 -118 -105 -154 c 0
 -105 -206 -148 -261 -213 -261 c 0
 -262 -261 -283 -230 -283 -194 c 0
EndSplineSet
Substitution2: "Thai Phinthu Nikhahit Reordering" uni0E4D
Substitution2: "Thai Phinthu Thanthakhat Reordering" uni0E4C.low
Substitution2: "Thai Phinthu Mai Chattawa Reordering" uni0E4B.low
Substitution2: "Thai Phinthu Mai Tri Reordering" uni0E4A.low
Substitution2: "Thai Phinthu Mai Tho Reordering" uni0E49.low
Substitution2: "Thai Phinthu Mai Ek Reordering" uni0E48.low
Substitution2: "Thai Phinthu Maitaikhu Reordering" uni0E47
EndChar
StartChar: uni0E4D.high
Encoding: 219 63262 187
Width: 0
Flags: W
HStem: 995 66<-12.2996 77.4689> 1176 69<2.9696 92.41>
VStem: -88 70<1067.13 1154.21> 99 69<1082.67 1170.22>
AnchorPoint: "AboveMark" 13.0059 988 mark 0
Fore
-88 1091 m 0
 -88 1166 -27 1245 67 1245 c 0
 138 1245 168 1200 168 1149 c 0
 168 1074 107 995 13 995 c 0
 -58 995 -88 1040 -88 1091 c 0
52 1176 m 0
 8 1176 -18 1137 -18 1105 c 0
 -18 1082 -4 1061 28 1061 c 0
 70 1061 99 1097 99 1131 c 0
 99 1155 84 1176 52 1176 c 0
EndSplineSet
EndChar
StartChar: dottedcircle
Encoding: 221 9676 188
Width: 718
Flags: W
HStem: -14 75<346.092 407.697> 23 75<203.303 264.908> 34 75<485.227 546.042> 115 75<125.227 186.042> 127 74<587.646 647.404> 256 75<649.917 710.759> 264 75<120.092 181.697> 391 75<643.549 702.908> 397 75<192.797 251.958> 481 75<568.174 629.002> 489 75<314.046 375.445> 523 75<458.797 520.644>
VStem: 112 77<272.014 330.759> 117 77<123.127 181.873> 185 75<404.492 464.09> 196 77<31.241 90.3563> 306 77<497.242 556.09> 338 77<-6.3563 52.759> 451 77<531.309 590.09> 477 77<42.1274 100.873> 560 77<489.67 548.203> 580 75<134.625 193.781> 636 75<399.127 458.699> 642 77<264.879 322.5>
Fore
185 427 m 0x0082
 185 451 208 472 230 472 c 0
 249 472 260 460 260 444 c 0
 260 421 241 397 214 397 c 0
 197 397 185 410 185 427 c 0x0082
306 519 m 0x002080
 306 543 330 564 351 564 c 0
 370 564 383 551 383 533 c 0
 383 507 356 489 335 489 c 0
 318 489 306 502 306 519 c 0x002080
196 54 m 0x4001
 196 80 222 98 243 98 c 0
 261 98 273 85 273 68 c 0
 273 44 249 23 227 23 c 0
 209 23 196 36 196 54 c 0x4001
117 145 m 0x1004
 117 167 139 190 163 190 c 0
 181 190 194 177 194 160 c 0
 194 134 168 115 147 115 c 0
 129 115 117 128 117 145 c 0x1004
477 64 m 0x200010
 477 86 499 109 523 109 c 0
 541 109 554 96 554 79 c 0
 554 53 528 34 507 34 c 0
 489 34 477 47 477 64 c 0x200010
580 155 m 0x080004
 580 178 600 201 625 201 c 0
 643 201 655 188 655 171 c 0
 655 149 633 127 609 127 c 0
 591 127 580 138 580 155 c 0x080004
636 421 m 0x010002
 636 445 658 466 681 466 c 0
 699 466 711 453 711 436 c 0
 711 412 687 391 665 391 c 0
 647 391 636 404 636 421 c 0x010002
560 511 m 0x004008
 560 533 582 556 605 556 c 0
 624 556 637 544 637 527 c 0
 637 500 611 481 589 481 c 0
 572 481 560 494 560 511 c 0x004008
642 287 m 0x040001
 642 311 668 331 688 331 c 0
 706 331 719 318 719 302 c 0
 719 278 695 256 672 256 c 0
 654 256 642 269 642 287 c 0x040001
112 293 m 0x0208
 112 318 136 339 158 339 c 0
 176 339 189 326 189 308 c 0
 189 282 163 264 142 264 c 0
 124 264 112 277 112 293 c 0x0208
338 16 m 0x800040
 338 40 362 61 384 61 c 0
 402 61 415 48 415 30 c 0
 415 4 389 -14 368 -14 c 0
 350 -14 338 -1 338 16 c 0x800040
451 553 m 0x001020
 451 577 474 598 496 598 c 0
 515 598 528 585 528 568 c 0
 528 541 502 523 480 523 c 0
 463 523 451 536 451 553 c 0x001020
EndSplineSet
EndChar
StartChar: uni0E3F
Encoding: 223 3647 189
Width: 646
Flags: W
HStem: 0 97<223 273> 316 89<288 340> 608 92<331 402 518 549.732>
VStem: 519 124<161.453 290.146> 569 130<480.183 589.303>
Fore
359 405 m 1xe0
 402 608 l 1
 331 608 l 1
 288 405 l 1
 359 405 l 1xe0
294 97 m 1
 340 316 l 1
 269 316 l 1
 223 97 l 1
 294 97 l 1
390 98 m 1
 483 106 519 182 519 232 c 0xf0
 519 266 504 311 436 314 c 1
 390 98 l 1
456 407 m 1
 521 411 569 475 569 533 c 0xe8
 569 573 546 608 498 608 c 1
 456 407 l 1
446 813 m 1
 542 813 l 1
 518 700 l 1
 566 700 617 700 652 670 c 0
 683 645 699 611 699 568 c 0xe8
 699 460 614 387 535 365 c 1
 531 357 l 1
 603 340 643 286 643 218 c 0xf0
 643 131 581 69 535 37 c 0
 484 2 428 0 369 0 c 1
 343 -124 l 1
 247 -124 l 1
 273 0 l 1
 83 0 l 1
 232 700 l 1
 422 700 l 1
 446 813 l 1
EndSplineSet
EndChar
StartChar: uni0E40
Encoding: 224 3648 190
Width: 360
Flags: W
HStem: -2 68<206.008 273.134> 575 20G<213.785 336>
VStem: 116 88<67.4152 128.489> 283 75<75.0265 142.919>
Fore
358 131 m 0
 358 76 314 -2 214 -2 c 0
 139 -2 116 44 116 92 c 0
 116 105 117 118 120 130 c 2
 218 595 l 1
 336 595 l 1
 255 212 l 1
 256 212 260 213 268 213 c 0
 296 213 358 196 358 131 c 0
236 66 m 0
 265 66 283 93 283 115 c 0
 283 130 275 144 253 144 c 0
 224 144 204 119 204 96 c 0
 204 80 214 66 236 66 c 0
EndSplineSet
EndChar
StartChar: uni0E41
Encoding: 225 3649 191
Width: 649
Flags: W
HStem: -2 66<170.909 276.075 489.218 555.901> 143 70<251.314 284.674 525.502 563.692> 575 20G<208.785 331 503.785 626>
VStem: 111 96<65.2403 127.487> 286 67<73.3611 141.001> 406 81<65.8563 128.047> 565 83<73.0928 141.914>
Fore
648 132 m 0
 648 91 616 -2 504 -2 c 0
 428 -2 406 43 406 91 c 0
 406 104 407 117 410 130 c 2
 508 595 l 1
 626 595 l 1
 545 212 l 1
 545 212 550 213 557 213 c 0
 601 213 648 186 648 132 c 0
353 132 m 0
 353 77 311 -2 210 -2 c 0
 134 -2 111 44 111 92 c 0
 111 105 112 118 115 130 c 2
 213 595 l 1
 331 595 l 1
 250 212 l 1
 251 212 255 213 263 213 c 0
 299 213 353 192 353 132 c 0
518 64 m 0
 546 64 565 89 565 113 c 0
 565 129 556 143 534 143 c 0
 506 143 487 118 487 95 c 0
 487 78 497 64 518 64 c 0
238 64 m 0
 267 64 286 91 286 113 c 0
 286 129 276 143 254 143 c 0
 225 143 207 116 207 94 c 0
 207 78 216 64 238 64 c 0
EndSplineSet
EndChar
StartChar: uni0E42
Encoding: 226 3650 192
Width: 389
Flags: W
HStem: -2 66<238.145 303.633> 143 70<268 311.387> 941 80<505.642 663.506> 991 72<339.541 486.306>
VStem: 145 91<65.7632 127.83> 313 74<72.7562 141.173>
Fore
387 130 m 0xdc
 387 71 340 -2 243 -2 c 0
 167 -2 145 43 145 91 c 0
 145 104 146 117 149 130 c 2
 285 773 l 2
 287 783 288 792 288 801 c 0
 288 818 283 833 268 842 c 0
 219 868 173 869 145 869 c 1
 146 874 170 995 293 1042 c 0
 333 1057 365 1063 393 1063 c 0xdc
 465 1063 533 1021 605 1021 c 0
 653 1021 672 1053 678 1056 c 1
 696 975 l 1
 696 975 664 941 595 941 c 0xec
 531 941 463 991 393 991 c 0
 309 991 282 924 282 924 c 1
 283 924 347 910 379 883 c 0
 404 862 411 844 411 824 c 0
 411 813 409 801 406 787 c 2
 284 212 l 1
 284 212 289 213 297 213 c 0
 338 213 387 187 387 130 c 0xdc
266 64 m 0
 294 64 313 91 313 113 c 0
 313 129 303 143 282 143 c 0
 254 143 236 116 236 94 c 0
 236 78 245 64 266 64 c 0
EndSplineSet
EndChar
StartChar: uni0E43
Encoding: 227 3651 193
Width: 452
Flags: W
HStem: -2 66<304.295 371.568> 723 53<213.32 276.112> 881 48<237.306 281.449> 1007 67<287.696 423.917>
VStem: 137 72<778.476 869.711> 211 91<65.3429 127.282> 289 54<785.707 878.909> 381 72<72.4024 140.732> 442 99<878.414 988.184>
Fore
453 131 m 0xf9
 453 76 409 -2 309 -2 c 0
 234 -2 211 44 211 92 c 0xfd
 211 105 212 118 215 130 c 2
 329 670 l 2
 354 787 413 783 438 898 c 0
 441 911 442 923 442 933 c 0
 442 991 403 1007 357 1007 c 0
 269 1007 238 932 237 929 c 1
 239 929 248 932 262 932 c 0
 277 932 296 929 319 917 c 0
 335 907 343 885 343 859 c 0
 343 802 308 723 230 723 c 0
 172 723 137 772 137 836 c 0
 137 899 188 1074 387 1074 c 0
 480 1074 541 1023 541 943 c 0xfa80
 541 845 480 822 449 677 c 2
 350 212 l 1
 351 212 355 213 363 213 c 0
 397 213 453 193 453 131 c 0xf9
256 881 m 0
 227 881 209 849 209 818 c 0
 209 795 219 776 242 776 c 0
 271 776 289 808 289 839 c 0xfa
 289 862 279 881 256 881 c 0
334 64 m 0
 362 64 381 89 381 113 c 0
 381 129 372 143 350 143 c 0
 321 143 302 117 302 95 c 0xfd
 302 78 312 64 334 64 c 0
EndSplineSet
EndChar
StartChar: uni0E44
Encoding: 228 3652 194
Width: 458
Flags: W
HStem: -2 68<294.463 363.045>
VStem: 203 90<67.4152 128.489> 372 74<74.7846 142.423>
Fore
446 131 m 0
 446 75 401 -2 302 -2 c 0
 226 -2 203 44 203 92 c 0
 203 105 204 118 207 130 c 2
 330 710 l 2
 347 791 434 868 434 924 c 0
 434 939 424 943 416 943 c 0
 375 943 300 791 250 791 c 0
 192 791 225 951 165 951 c 0
 160 951 155 950 153 950 c 1
 204 1076 l 1
 213 1076 l 2
 305 1076 259 933 295 933 c 0
 331 933 389 1061 473 1061 c 0
 503 1061 551 1047 551 986 c 0
 551 901 468 806 447 708 c 2
 342 212 l 1
 343 212 347 213 355 213 c 0
 393 213 446 190 446 131 c 0
325 66 m 0
 353 66 372 93 372 114 c 0
 372 130 363 144 342 144 c 0
 313 144 293 119 293 96 c 0
 293 80 303 66 325 66 c 0
EndSplineSet
EndChar
StartChar: uni0E45
Encoding: 229 3653 195
Width: 308
Flags: W
HStem: 504 91<39.4056 183.86>
VStem: 204 121<388.95 482.193>
Fore
3 446 m 1
 -78 475 l 1
 -78 477 -41 595 155 595 c 0
 286 595 325 522 325 439 c 0
 325 416 322 392 317 368 c 2
 198 -192 l 1
 80 -192 l 1
 197 357 l 2
 201 377 204 398 204 417 c 0
 204 464 187 504 122 504 c 0
 29 504 3 448 3 446 c 1
EndSplineSet
EndChar
StartChar: uni0E46
Encoding: 230 3654 196
Width: 675
Flags: W
HStem: 263 63<299.4 354.955> 385 51<327.156 358.711> 578 20G<321.5 419.778 531.852 611>
VStem: 206 93<326.843 380.267> 359 62<330.216 384.132>
Fore
421 373 m 0
 421 335 389 263 303 263 c 0
 234 263 206 313 206 372 c 0
 206 441 251 577 392 598 c 1
 467 544 l 1
 570 598 l 1
 652 595 703 552 703 487 c 0
 703 478 702 469 700 459 c 2
 609 32 l 2
 592 -48 572 -116 506 -172 c 0
 434 -231 373 -236 372 -236 c 1
 313 -155 l 1
 318 -155 391 -138 426 -109 c 0
 465 -75 475 -41 484 2 c 2
 578 442 l 2
 579 448 580 453 580 459 c 0
 580 490 562 511 547 515 c 1
 449 463 l 1
 377 515 l 1
 375 515 335 502 323 449 c 0
 321 438 323 433 323 431 c 1
 325 431 339 436 355 436 c 0
 392 436 421 411 421 373 c 0
322 326 m 0
 343 326 359 346 359 362 c 0
 359 374 351 385 335 385 c 0
 313 385 299 364 299 348 c 0
 299 336 306 326 322 326 c 0
EndSplineSet
EndChar
StartChar: uni0E47
Encoding: 231 3655 197
Width: 0
Flags: W
HStem: 674 63<-43.6067 11.2271> 759 94<-202.583 -132.786> 808 60<-37.9109 16.1674> 926 80<-98.7757 80.832> 942 70<-206.928 -24.9691>
VStem: -351 97<786.313 871.345> 17 54<741.593 802.337>
AnchorPoint: "AboveBase" 43.2969 613 mark 0
Fore
-351 794 m 0xc6
 -351 868 -307 1012 -132 1012 c 0xce
 -88 1012 -44 1006 -3 1006 c 0
 98 1006 90 1043 108 1093 c 1
 207 1093 l 1
 181 995 138 926 15 926 c 0x96
 -41 926 -81 942 -140 942 c 0
 -242 942 -254 843 -254 827 c 0
 -254 797 -235 786 -233 786 c 1
 -231 796 -207 853 -161 853 c 0xce
 -121 853 -90 805 -90 805 c 1
 -90 805 -64 868 4 868 c 0xa6
 47 868 71 841 71 798 c 0
 71 736 28 674 -39 674 c 0
 -113 674 -126 759 -167 759 c 0
 -217 759 -222 673 -222 673 c 1
 -299 674 -351 714 -351 794 c 0xc6
-21 737 m 0
 2 737 17 760 17 782 c 0
 17 796 10 808 -6 808 c 0xa6
 -29 808 -45 783 -45 763 c 0
 -45 748 -37 737 -21 737 c 0
EndSplineSet
Substitution2: "Thai Mark High Variant" uni0E47.high
Substitution2: "Thai Phinthu Maitaikhu Reordering" uni0E3A
EndChar
StartChar: uni0E48
Encoding: 232 3656 198
Width: 0
Flags: W
VStem: 10 154<992 1194>
AnchorPoint: "AboveMark" 65.0059 988 mark 0
Fore
10 992 m 1
 53 1194 l 1
 164 1194 l 1
 121 992 l 1
 10 992 l 1
EndSplineSet
Substitution2: "Thai Phinthu Mai Ek Reordering" uni0E3A
Substitution2: "Thai Sara UU Mai Ek Reordering" uni0E39
Substitution2: "Thai Sara U Mai Ek Reordering" uni0E38
Substitution2: "Thai Tone Low Variant" uni0E48.low
MultipleSubs2: "Thai Tone Nikhahit Attachment" uni0E4D uni0E48
EndChar
StartChar: uni0E49
Encoding: 233 3657 199
Width: 0
Flags: W
HStem: 1058 47<-95.3145 -64> 1185 49<-88.6411 -18.3191>
VStem: -150 53<1106.84 1177.33> -17 64<1112.59 1183.72>
AnchorPoint: "AboveMark" -44.9941 988 mark 0
Fore
47 1161 m 0
 47 1112 12 1059 -18 1042 c 1
 12 1045 89 1063 165 1124 c 0
 220 1166 258 1222 258 1222 c 1
 229 1088 l 1
 177 1044 58 977 -127 977 c 0
 -143 977 -158 978 -169 979 c 1
 -169 979 -138 995 -113 1021 c 0
 -87 1047 -82 1058 -82 1058 c 1
 -113 1058 -150 1076 -150 1121 c 0
 -150 1178 -100 1234 -42 1234 c 0
 11 1234 47 1209 47 1161 c 0
-50 1185 m 0
 -79 1185 -97 1161 -97 1137 c 0
 -97 1120 -87 1105 -64 1105 c 0
 -36 1105 -17 1128 -17 1153 c 0
 -17 1170 -26 1185 -50 1185 c 0
EndSplineSet
Substitution2: "Thai Phinthu Mai Tho Reordering" uni0E3A
Substitution2: "Thai Sara UU Mai Tho Reordering" uni0E39
Substitution2: "Thai Sara U Mai Tho Reordering" uni0E38
Substitution2: "Thai Tone Low Variant" uni0E49.low
MultipleSubs2: "Thai Tone Nikhahit Attachment" uni0E4D uni0E49
EndChar
StartChar: uni0E4A
Encoding: 234 3658 200
Width: 0
Flags: W
HStem: 988 36<-126.605 -63.2107> 1090 27<-105 -85> 1177 29<10.7688 66> 1179 62<-88.5582 -2.53697>
VStem: -176 49<1025.03 1085> -58 40<1029.2 1089.29> 97 38<1068 1140>
AnchorPoint: "AboveMark" -12.9941 988 mark 0
Fore
4 992 m 1xee
 29 998 97 1069 97 1140 c 0
 97 1162 88 1177 66 1177 c 0xee
 43 1177 4 1151 4 1151 c 1
 3 1151 -19 1179 -52 1179 c 0
 -96 1179 -105 1117 -105 1117 c 1
 -104 1117 -88 1124 -69 1124 c 0
 -37 1124 -18 1105 -18 1074 c 0
 -18 1031 -54 988 -104 988 c 0
 -134 988 -176 1006 -176 1068 c 0
 -176 1123 -136 1241 -46 1241 c 0xde
 0 1241 17 1206 18 1206 c 0
 20 1206 62 1242 105 1242 c 0
 141 1242 172 1219 172 1171 c 0
 172 1113 135 1069 135 1068 c 1
 140 1070 176 1087 208 1128 c 0
 237 1168 253 1217 257 1235 c 1
 329 1194 l 1
 329 1194 283 1088 182 1036 c 0
 116 1004 29 992 4 992 c 1xee
-85 1090 m 0
 -111 1090 -127 1069 -127 1049 c 0
 -127 1035 -118 1024 -99 1024 c 0
 -75 1024 -58 1044 -58 1064 c 0
 -58 1078 -66 1090 -85 1090 c 0
EndSplineSet
Substitution2: "Thai Phinthu Mai Tri Reordering" uni0E3A
Substitution2: "Thai Sara UU Mai Tri Reordering" uni0E39
Substitution2: "Thai Sara U Mai Tri Reordering" uni0E38
Substitution2: "Thai Tone Low Variant" uni0E4A.low
MultipleSubs2: "Thai Tone Nikhahit Attachment" uni0E4D uni0E4A
EndChar
StartChar: uni0E4B
Encoding: 235 3659 201
Width: 0
Flags: W
HStem: 1064 69<-62 24 152 238>
VStem: -77 330<1064 1133>
AnchorPoint: "AboveMark" 65.0059 988 mark 0
Fore
59 1226 m 1
 172 1226 l 1
 152 1133 l 1
 253 1133 l 1
 238 1064 l 1
 137 1064 l 1
 120 984 l 1
 7 984 l 1
 24 1064 l 1
 -77 1064 l 1
 -62 1133 l 1
 39 1133 l 1
 59 1226 l 1
EndSplineSet
Substitution2: "Thai Phinthu Mai Chattawa Reordering" uni0E3A
Substitution2: "Thai Sara UU Mai Chattawa Reordering" uni0E39
Substitution2: "Thai Sara U Mai Chattawa Reordering" uni0E38
Substitution2: "Thai Tone Low Variant" uni0E4B.low
MultipleSubs2: "Thai Tone Nikhahit Attachment" uni0E4D uni0E4B
EndChar
StartChar: uni0E4C
Encoding: 236 3660 202
Width: 0
Flags: W
HStem: 883 41<46.2048 117.49> 1009 39<94 117.259>
VStem: -12 56<926.044 998.939> 128 44<933.679 1006.68>
AnchorPoint: "AboveMark" 76.3398 919 mark 0
Fore
172 982 m 0
 172 915 112 883 64 883 c 0
 16 883 -12 914 -12 960 c 0
 -12 1007 17 1062 63 1090 c 0
 150 1142 238 1108 260 1214 c 1
 341 1214 l 1
 340 1209 322 1151 291 1125 c 0
 260 1101 227 1082 157 1076 c 0
 105 1071 97 1048 97 1048 c 1
 100 1048 172 1048 172 982 c 0
94 1009 m 0
 64 1009 44 980 44 957 c 0
 44 939 54 924 76 924 c 0
 108 924 128 950 128 977 c 0
 128 994 117 1009 94 1009 c 0
EndSplineSet
Substitution2: "Thai Phinthu Thanthakhat Reordering" uni0E3A
Substitution2: "Thai Sara UU Thanthakhat Reordering" uni0E39
Substitution2: "Thai Sara U Thanthakhat Reordering" uni0E38
Substitution2: "Thai Tone Low Variant" uni0E4C.low
MultipleSubs2: "Thai Tone Nikhahit Attachment" uni0E4D uni0E4C
EndChar
StartChar: uni0E4D
Encoding: 237 3661 203
Width: 0
Flags: W
HStem: 696 66<-75.4138 13.1835> 877 69<-60.1954 28.4315>
VStem: -151 69<767.675 855.763> 35 70<782.891 871.38>
AnchorPoint: "AboveMark" 13.0059 988 basemark 0
AnchorPoint: "AboveBase" 43.2969 613 mark 0
Fore
-151 791 m 0
 -151 861 -95 946 3 946 c 0
 74 946 105 902 105 850 c 0
 105 780 47 696 -50 696 c 0
 -120 696 -151 740 -151 791 c 0
-12 877 m 0
 -54 877 -82 840 -82 807 c 0
 -82 783 -68 762 -36 762 c 0
 8 762 35 800 35 832 c 0
 35 856 20 877 -12 877 c 0
EndSplineSet
Substitution2: "Thai Phinthu Nikhahit Reordering" uni0E3A
Substitution2: "Thai Sara UU Nikhahit Reordering" uni0E39
Substitution2: "Thai Sara U Nikhahit Reordering" uni0E38
Substitution2: "Thai Mark High Variant" uni0E4D.high
EndChar
StartChar: uni0E4E
Encoding: 238 3662 204
Width: 0
Flags: W
HStem: 717 69<-72.5 58.436> 1018 61<90.5703 211.711>
VStem: -148 116<760 846.83> -31 105<946.895 1001.02>
AnchorPoint: "AboveBase" 43.2969 613 mark 0
Fore
-31 967 m 0
 -31 1057 110 1079 183 1079 c 0
 217 1079 237 1071 265 1056 c 1
 197 1010 l 1
 185 1013 175 1018 152 1018 c 0
 120 1018 74 998 74 969 c 0
 74 951 105 941 126 941 c 2
 148 941 l 1
 106 878 l 1
 97 878 l 2
 44 878 -32 856 -32 810 c 0
 -32 794 -16 786 0 786 c 0
 29 786 41 792 64 812 c 1
 111 766 l 1
 57 728 14 717 -46 717 c 0
 -99 717 -148 734 -148 786 c 0
 -148 844 -93 909 -13 926 c 1
 -25 937 -31 950 -31 967 c 0
EndSplineSet
EndChar
StartChar: uni0E4F
Encoding: 239 3663 205
Width: 596
Flags: W
HStem: 0 34<208.614 404.577> 109 35<266.228 402.021> 360 37<304.899 438.562> 472 34<306.66 486.855>
VStem: 92 35<114.097 299.789> 202 40<169.097 297.261> 464 34<215.819 335.086> 573 36<216.114 390.182>
Fore
92 194 m 0
 92 331 204 506 404 506 c 0
 546 506 609 416 609 312 c 0
 609 169 491 0 296 0 c 0
 154 0 92 90 92 194 c 0
396 472 m 0
 234 472 127 332 127 202 c 0
 127 112 181 34 303 34 c 0
 473 34 573 181 573 304 c 0
 573 394 519 472 396 472 c 0
319 109 m 0
 430 109 498 205 498 285 c 0
 498 345 462 397 380 397 c 0
 268 397 202 300 202 219 c 0
 202 160 238 109 319 109 c 0
242 226 m 0
 242 288 292 360 376 360 c 0
 437 360 464 321 464 277 c 0
 464 214 410 144 330 144 c 0
 269 144 242 182 242 226 c 0
EndSplineSet
EndChar
StartChar: uni0E50
Encoding: 240 3664 206
Width: 697
Flags: W
HStem: -9 76<269.73 447.035> 353 76<320.978 499.834>
VStem: 113 113<107.415 258.802> 541 114<163.31 314.425>
Fore
113 158 m 0
 113 267 191 429 430 429 c 0
 576 429 655 364 655 261 c 0
 655 157 579 -9 337 -9 c 0
 188 -9 113 54 113 158 c 0
350 67 m 0
 487 67 541 168 541 248 c 0
 541 309 503 353 414 353 c 0
 264 353 226 232 226 174 c 0
 226 112 266 67 350 67 c 0
EndSplineSet
EndChar
StartChar: uni0E51
Encoding: 241 3665 207
Width: 697
Flags: W
HStem: -3 64<263.631 354.372> 189 53<366.444 425.671> 356 67<357.511 530.6>
VStem: 136 106<82.4763 238.271> 303 58<126.512 184.669> 426 60<131.225 187.961> 573 117<145.992 315.309>
Fore
136 139 m 0
 136 239 201 423 459 423 c 0
 627 423 690 344 690 249 c 0
 690 129 592 -11 486 -55 c 1
 433 -6 l 1
 553 34 573 201 573 241 c 0
 573 305 543 356 445 356 c 0
 315 356 242 242 242 152 c 0
 242 101 265 61 312 61 c 0
 336 61 344 69 356 77 c 1
 324 82 303 108 303 140 c 0
 303 186 343 242 410 242 c 0
 469 242 486 206 486 171 c 0
 486 87 402 -3 288 -3 c 0
 217 -3 136 31 136 139 c 0
386 126 m 0
 409 126 426 147 426 164 c 0
 426 177 417 189 399 189 c 0
 375 189 361 167 361 150 c 0
 361 137 369 126 386 126 c 0
EndSplineSet
EndChar
StartChar: uni0E52
Encoding: 242 3666 208
Width: 697
Flags: W
HStem: 0 77<277.538 551.091> 122 50<415.775 465.852> 224 49<436.914 468.636> 351 71<449.687 511.6 567.337 659.926>
VStem: 216 121<428.807 500.605> 340 75<172.704 259.439> 469 52<174.588 220.969>
Fore
340 223 m 0
 340 274 370 422 491 422 c 0
 541 422 548 390 548 383 c 1
 555 391 582 422 644 422 c 0
 706 422 733 388 733 337 c 0
 733 325 732 313 729 300 c 2
 696 144 l 2
 676 52 620 0 540 0 c 2
 267 0 l 2
 186 0 150 43 150 104 c 0
 150 117 152 131 155 146 c 2
 210 403 l 2
 213 417 216 433 216 449 c 0
 216 479 201 524 116 524 c 1
 200 612 l 1
 249 610 337 575 337 474 c 0
 337 453 333 430 328 405 c 2
 272 139 l 2
 271 134 270 129 270 124 c 0
 270 90 300 77 319 77 c 2
 484 77 l 2
 538 77 568 101 578 147 c 2
 610 296 l 2
 612 306 614 317 614 327 c 0
 614 341 610 353 598 353 c 0
 578 353 557 331 553 311 c 1
 512 311 l 1
 513 314 513 317 513 320 c 0
 513 337 501 351 483 351 c 0
 443 351 433 285 433 268 c 1
 443 271 451 273 460 273 c 0
 484 273 521 262 521 219 c 0
 521 176 488 122 421 122 c 0
 373 122 340 159 340 223 c 0
437 172 m 0
 457 172 469 190 469 205 c 0
 469 215 463 224 448 224 c 0
 428 224 415 207 415 192 c 0
 415 181 423 172 437 172 c 0
EndSplineSet
EndChar
StartChar: uni0E53
Encoding: 243 3667 209
Width: 697
Flags: W
HStem: -3 51<197.927 258.159> 337 86<299.23 375.237 507.143 622.856>
VStem: 124 73<49.1049 106.153> 263 54<53.3349 112.693> 585 119<153.94 330.19>
Fore
317 104 m 0
 317 48 275 -3 213 -3 c 0
 149 -3 124 30 124 95 c 0
 124 186 168 423 346 423 c 0
 421 423 437 390 449 340 c 1
 485 390 518 423 585 423 c 0
 669 423 704 368 704 287 c 0
 704 227 679 100 619 0 c 1
 503 0 l 1
 518 11 585 182 585 270 c 0
 585 306 575 336 544 336 c 0
 506 336 488 290 480 256 c 2
 426 0 l 1
 326 0 l 1
 380 256 l 2
 382 264 383 273 383 282 c 0
 383 310 372 337 344 337 c 0
 260 337 252 167 251 164 c 1
 280 164 317 152 317 104 c 0
223 48 m 0
 247 48 263 68 263 88 c 0
 263 102 255 113 237 113 c 0
 213 113 197 91 197 73 c 0
 197 60 205 48 223 48 c 0
EndSplineSet
EndChar
StartChar: uni0E54
Encoding: 244 3668 210
Width: 697
Flags: W
HStem: -6 69<235.49 402.961> 20 64<305.312 460> 242 57<389.607 443.076> 339 76<489.349 620.336> 348 77<305.215 449.916> 575 20G<697 745.157>
VStem: 96 115<85.87 211.367> 324 62<150.004 239.132> 444 56<188.478 241.551>
Fore
500 238 m 0x6780
 500 166 437 146 437 146 c 1
 438 143 439 116 474 104 c 0
 507 92 526 92 554 84 c 0x6780
 591 75 600 54 601 54 c 1
 545 -6 l 1xa780
 534 5 500 20 460 20 c 0x6780
 395 20 322 -6 253 -6 c 0
 167 -6 96 35 96 137 c 0
 96 155 98 174 103 196 c 0
 135 347 233 425 382 425 c 0xaf80
 437 425 485 415 530 415 c 0
 646 415 681 480 713 595 c 1
 795 544 l 1
 777 462 711 339 552 339 c 0x3780
 506 339 456 348 402 348 c 0
 247 348 211 227 211 158 c 0
 211 109 230 63 288 63 c 0xaf80
 323 63 370 84 404 84 c 1
 400 84 324 115 324 186 c 0
 324 230 358 299 434 299 c 0
 479 299 500 272 500 238 c 0x6780
408 185 m 0
 429 185 444 203 444 220 c 0
 444 232 436 242 420 242 c 0
 400 242 386 223 386 207 c 0
 386 195 393 185 408 185 c 0
EndSplineSet
EndChar
StartChar: uni0E55
Encoding: 245 3669 211
Width: 697
Flags: W
HStem: -8 72<208.321 370.414> 244 55<363.149 417.423> 357 68<325.571 360> 380 78<552.181 645.4> 389 59<448 494.313> 546 55<422.978 505.356>
VStem: 69 118<84.5218 220.185> 295 64<153 240.354> 342 66<451.222 530.368> 418 56<190.43 241.066> 509 43<458 508>
Fore
342 474 m 0xe6e0
 342 521 384 601 484 601 c 0
 542 601 577 571 577 524 c 0
 577 479 552 459 552 458 c 1
 554 458 564 456 577 456 c 0
 696 456 716 599 718 601 c 1
 803 553 l 1
 757 415 641 380 558 380 c 0xd6e0
 516 380 487 389 485 389 c 1xcee0
 485 389 463 360 387 357 c 0
 261 353 211 292 194 212 c 0
 189 189 187 170 187 153 c 0
 187 79 230 64 263 64 c 0
 298 64 354 86 371 86 c 1
 361 86 295 122 295 184 c 0xe760
 295 217 322 299 406 299 c 0
 439 299 474 284 474 239 c 0
 474 165 410 146 410 146 c 1
 416 98 482 95 527 86 c 0
 569 78 575 55 576 55 c 1
 517 -5 l 1
 517 -5 479 20 435 20 c 0
 369 20 293 -8 222 -8 c 0
 148 -8 69 22 69 136 c 0
 69 207 101 361 242 406 c 0
 302 424 346 425 360 425 c 1
 360 425 342 441 342 474 c 0xe6e0
469 546 m 0
 430 546 408 513 408 484 c 0
 408 464 421 448 448 448 c 0xcee0
 485 448 509 480 509 508 c 0
 509 529 497 546 469 546 c 0
383 187 m 0
 404 187 418 206 418 223 c 0
 418 234 411 244 395 244 c 0
 377 244 359 229 359 209 c 0xc760
 359 197 367 187 383 187 c 0
EndSplineSet
EndChar
StartChar: uni0E56
Encoding: 246 3670 212
Width: 697
Flags: W
HStem: -3 67<370.928 517.249> 189 55<300.157 361.873> 363 64<378.084 563.725>
VStem: 229 65<91.5 183.009> 253 89<345.384 460.472> 362 64<128.755 188.504> 609 114<161.54 322.204>
Fore
439 64 m 0xf6
 557 64 609 171 609 253 c 0
 609 323 564 363 480 363 c 0
 416 363 353 342 304 293 c 1
 246 293 l 1
 246 293 253 335 253 382 c 0
 253 414 250 447 239 471 c 0
 201 550 153 556 153 556 c 1
 262 619 l 1
 265 619 310 589 331 517 c 0
 340 486 342 457 342 435 c 0xee
 342 404 338 384 337 383 c 1
 341 386 391 427 513 427 c 0
 676 427 723 352 723 269 c 0
 723 170 663 -3 425 -3 c 0
 269 -3 229 63 229 120 c 0
 229 179 274 244 355 244 c 0
 405 244 426 213 426 174 c 0
 426 103 370 79 370 78 c 1
 371 77 399 64 439 64 c 0xf6
322 124 m 0
 346 124 362 144 362 165 c 0
 362 178 354 189 336 189 c 0
 311 189 294 167 294 150 c 0xf6
 294 136 303 124 322 124 c 0
EndSplineSet
EndChar
StartChar: uni0E57
Encoding: 247 3671 213
Width: 697
Flags: W
HStem: -5 56<145.393 202.229> 113 39<144 199.506> 354 68<196.196 278.629 376.946 450.616>
VStem: 34 108<51.4893 189.358 101.766 271.336> 207 62<65.4166 112.699> 459 102<231.71 347.732>
Fore
34 152 m 0
 34 292 117 422 241 422 c 0
 326 422 332 359 333 354 c 1
 349 386 386 423 448 423 c 0
 497 423 561 405 561 306 c 0
 561 287 558 265 553 240 c 0
 531 136 484 101 484 101 c 1
 490 104 548 104 601 210 c 0
 652 310 654 372 684 481 c 0
 719 596 781 624 783 627 c 1
 860 570 l 1
 860 570 814 555 787 469 c 0
 747 343 741 253 664 150 c 0
 569 23 460 -3 330 -3 c 1
 356 18 459 167 459 288 c 0
 459 324 448 354 418 354 c 0
 369 354 342 273 341 270 c 1
 287 270 l 1
 288 272 289 279 289 289 c 0
 289 314 281 354 239 354 c 0
 178 354 142 240 142 178 c 0
 142 160 145 153 144 152 c 1
 145 152 169 167 201 167 c 0
 245 167 269 141 269 104 c 0
 269 60 234 -5 151 -5 c 0
 58 -5 34 78 34 152 c 0
170 51 m 0
 200 51 207 81 207 90 c 0
 207 103 199 113 183 113 c 0
 160 113 144 93 144 75 c 0
 144 62 152 51 170 51 c 0
EndSplineSet
EndChar
StartChar: uni0E58
Encoding: 248 3672 214
Width: 697
Flags: W
HStem: -3 65<477.028 545.347> 82 94<295.932 369.757> 213 54<556.953 619.347> 343 73<472.935 573.413> 350 74<318.131 452.772>
VStem: 112 117<91.0916 211.153> 487 64<144.923 207.065> 620 64<150.001 211.6>
Fore
112 140 m 0xef
 112 226 166 424 385 424 c 0xef
 427 424 466 416 512 416 c 0
 532 416 555 418 579 422 c 0
 704 441 737 622 738 624 c 1
 823 559 l 1
 823 559 775 399 645 357 c 0
 613 346 580 343 548 343 c 0xf7
 501 343 455 350 413 350 c 0
 336 350 262 323 235 196 c 0
 231 175 229 158 229 144 c 0
 229 99 247 90 247 90 c 1
 250 105 272 176 336 176 c 0
 396 176 405 114 481 71 c 0
 491 65 500 62 508 62 c 0
 533 62 548 87 550 87 c 1
 545 87 487 105 487 157 c 0
 487 206 538 267 602 267 c 0
 649 267 684 238 684 186 c 0
 684 105 596 -3 492 -3 c 0
 392 -3 376 82 332 82 c 0
 283 82 277 1 277 0 c 1
 276 0 260 -4 239 -4 c 0
 166 -4 112 47 112 140 c 0xef
578 144 m 0
 604 144 620 167 620 187 c 0
 620 201 611 213 592 213 c 0
 567 213 551 190 551 170 c 0
 551 156 560 144 578 144 c 0
EndSplineSet
EndChar
StartChar: uni0E59
Encoding: 249 3673 215
Width: 697
Flags: W
HStem: -3 67<189.873 244.086> 183 53<284.549 335.438> 342 57<588 670.275> 360 66<253.025 381.46>
VStem: 68 107<76.9528 257.55> 224 55<114.295 179.081> 336 56<130.319 182.892> 483 47<232 320>
Fore
483 320 m 1xdf
 483 337 499 424 566 424 c 0
 602 424 633 399 665 399 c 0
 701 399 716 428 733 506 c 2
 740 541 l 2
 751 593 751 624 751 627 c 1
 844 587 l 1
 844 587 842 568 836 541 c 0
 814 438 765 321 672 321 c 0
 635 321 611 342 588 342 c 0xef
 546 342 530 272 530 232 c 0
 530 154 577 85 607 72 c 1
 534 -3 l 1
 534 -3 473 18 453 155 c 0
 437 251 416 360 321 360 c 0
 214 360 175 228 175 151 c 0
 175 103 190 64 227 64 c 0
 240 64 248 72 250 72 c 1
 232 85 224 103 224 126 c 0
 224 168 252 236 324 236 c 0
 373 236 392 207 392 169 c 0
 392 103 341 -3 221 -3 c 0
 122 -3 68 57 68 152 c 0
 68 296 172 426 329 426 c 0
 468 426 483 320 483 320 c 1xdf
301 114 m 0
 329 114 336 148 336 159 c 0
 336 175 326 183 315 183 c 0
 299 183 279 167 279 140 c 0
 279 123 289 114 301 114 c 0
EndSplineSet
EndChar
StartChar: uni0E5A
Encoding: 250 3674 216
Width: 797
Flags: W
HStem: -6 86<321 383.487> 339 75<245.926 391.962> 570 45<231.736 304.385>
VStem: 131 90<428.5 533.696> 306 53<511.561 568.085>
Fore
256 487 m 0
 282 487 306 511 306 539 c 0
 306 555 298 570 273 570 c 0
 253 570 221 554 221 519 c 0
 221 501 231 487 256 487 c 0
131 459 m 0
 131 501 170 615 279 615 c 0
 326 615 359 588 359 545 c 0
 359 539 358 533 357 526 c 0
 342 456 289 444 243 438 c 1
 254 424 273 414 304 414 c 0
 460 414 505 574 514 595 c 1
 525 613 546 621 566 621 c 0
 594 621 622 604 618 582 c 1
 679 613 686 619 724 619 c 0
 817 619 836 578 836 540 c 0
 836 529 834 517 832 508 c 2
 762 178 l 2
 752 134 740 51 646 3 c 0
 603 -18 568 -18 552 -18 c 1
 524 64 l 1
 624 64 642 152 649 182 c 2
 712 478 l 2
 713 481 713 483 713 485 c 0
 713 506 694 517 668 517 c 0
 645 517 621 497 606 484 c 1
 542 185 l 2
 521 84 495 47 440 21 c 0
 402 3 362 -5 321 -6 c 1
 285 80 l 1
 397 80 412 127 419 161 c 2
 471 403 l 1
 430 363 370 339 293 339 c 0
 198 339 131 398 131 459 c 0
EndSplineSet
EndChar
StartChar: uni0E5B
Encoding: 251 3675 217
Width: 1109
Flags: W
HStem: 38 74<196.319 331.634> 172 82<245.182 311.925> 230 66<933.554 1072.33> 235 59<1007 1149> 340 49<252.196 286.799> 483 73<256.881 373.212>
VStem: 75 73<164.058 344.957> 187 57<260.557 336.522> 287 57<275.213 335.715> 392 73<317.628 463.49>
Fore
465 417 m 0xcfc0
 465 323 399 172 278 172 c 0xcfc0
 214 172 187 228 187 275 c 0
 187 328 225 389 282 389 c 0
 315 389 344 366 344 324 c 0
 344 294 329 264 318 250 c 1
 367 282 392 359 392 404 c 0
 392 450 370 483 315 483 c 0
 244 483 148 370 148 247 c 0
 148 162 200 112 259 112 c 0
 405 112 465 321 566 521 c 1
 606 521 l 1
 609 320 l 1
 678 498 l 1
 719 498 l 1
 720 313 l 1
 807 478 l 1
 826 325 l 1
 888 443 l 1
 893 423 929 296 952 296 c 0xafc0
 977 296 992 294 1007 294 c 2
 1161 294 l 1
 1149 235 l 1x9fc0
 1149 235 964 230 947 230 c 0xafc0
 896 230 880 244 869 271 c 1
 776 95 l 1
 763 258 l 1
 670 89 l 1
 652 254 l 1
 581 72 l 1
 539 72 l 1
 539 308 l 1
 476 182 403 38 243 38 c 0
 124 38 75 132 75 232 c 0
 75 377 184 556 330 556 c 0
 423 556 465 496 465 417 c 0xcfc0
274 340 m 0
 262 340 244 313 244 284 c 0
 244 268 250 254 261 254 c 0
 280 254 287 308 287 317 c 0
 287 331 282 340 274 340 c 0
EndSplineSet
EndChar
StartChar: DEL
Encoding: 255 63259 221
Width: 0
VWidth: 2048
Flags: W
HStem: 0 21G<-460 4.22976>
Fore
-297 766 m 1
 162 766 l 1
 0 0 l 1
 -460 0 l 1
 -297 766 l 1
EndSplineSet
EndChar
StartChar: exclamdown
Encoding: 256 161 222
Width: 332
VWidth: 2048
Flags: W
HStem: 382 136<211 320>
VStem: 53 296<-199 518>
Fore
349 518 m 1
 320 382 l 1
 182 382 l 1
 211 518 l 1
 349 518 l 1
278 331 m 1
 237 -31 l 1
 202 -199 l 1
 53 -199 l 1
 88 -31 l 1
 200 331 l 1
 278 331 l 1
EndSplineSet
EndChar
StartChar: cent
Encoding: 257 162 223
Width: 556
VWidth: 2048
Flags: W
HStem: -12 113<295 385.088> 422 108<313.54 397> 691 20G<534.783 612.059>
Fore
447 397 m 1
 295 101 l 1
 324 101 l 2
 373 101 411 133 437 199 c 1
 567 176 l 1
 514 51 420 -12 288 -12 c 0
 274 -12 259 -11 240 -8 c 1
 142 -196 l 1
 88 -181 l 1
 183 8 l 1
 118 41 87 98 87 178 c 0
 87 204 90 231 96 261 c 0
 135 441 246 530 432 530 c 0
 440 529 446 529 451 527 c 1
 545 711 l 1
 602 694 l 1
 508 513 l 1
 565 489 597 440 602 365 c 1
 461 342 l 1
 461 348 l 0
 461 367 457 383 447 397 c 1
397 422 m 1
 374 422 l 2
 306 422 261 371 239 268 c 0
 234 242 231 219 231 199 c 0
 231 170 236 148 247 132 c 1
 397 422 l 1
EndSplineSet
EndChar
StartChar: sterling
Encoding: 258 163 224
Width: 556
VWidth: 2048
Flags: W
HStem: -11 123<305.967 472.004> 31 107<168 292.285> 303 109<94 171 309 436> 619 111<353.796 474.113>
VStem: 168 135<422.017 564.797>
Fore
419 619 m 0x78
 375 619 303 591 303 475 c 0
 303 455 305 434 309 412 c 1
 460 412 l 1
 436 303 l 1
 308 303 l 1
 304 282 l 2
 296 238 260 185 197 126 c 1
 218 134 238 138 260 138 c 0x78
 325 138 364 112 412 112 c 0
 438 112 474 121 517 139 c 1
 546 23 l 1
 494 0 447 -11 404 -11 c 0xb8
 331 -11 244 31 188 31 c 0
 148 31 103 15 55 -12 c 1
 29 106 l 1
 149 182 166 243 171 303 c 1
 70 303 l 1
 94 412 l 1
 171 412 l 1
 169 427 168 443 168 458 c 0
 168 656 331 730 446 730 c 0
 568 730 629 675 629 565 c 0
 629 557 629 549 628 541 c 1
 493 521 l 1
 493 532 l 2
 493 590 469 619 419 619 c 0x78
EndSplineSet
EndChar
StartChar: currency
Encoding: 259 164 225
Width: 556
VWidth: 2048
Flags: W
HStem: 139 117<273.943 395.564> 454 119<305.462 431.558>
VStem: 131 120<278.917 399.003> 454 120<332.549 431.801>
Fore
131 311 m 0
 131 356 147 414 185 460 c 1
 132 524 l 1
 233 610 l 1
 286 544 l 1
 321 563 358 573 398 573 c 0
 438 573 471 563 499 544 c 1
 578 610 l 1
 642 527 l 1
 564 463 l 1
 571 442 574 420 574 398 c 0
 574 333 543 279 519 250 c 1
 571 184 l 1
 470 101 l 1
 418 167 l 1
 378 149 341 139 307 139 c 0
 268 139 234 149 207 167 c 1
 129 103 l 1
 64 185 l 1
 142 250 l 1
 134 270 131 290 131 311 c 0
374 454 m 0
 300 454 251 389 251 333 c 0
 251 284 290 256 331 256 c 0
 359 256 385 267 407 287 c 0
 451 320 454 363 454 376 c 0
 454 417 427 454 374 454 c 0
EndSplineSet
EndChar
StartChar: yen
Encoding: 260 165 226
Width: 556
VWidth: 2048
Flags: W
HStem: 0 21G<207 347.211> 133 109<76 235 394 555> 300 108<112 240 486 591> 696 20G<152 309.024 540.087 704>
Fore
235 133 m 1
 53 133 l 1
 76 242 l 1
 258 242 l 1
 271 300 l 1
 89 300 l 1
 112 408 l 1
 240 408 l 1
 152 716 l 1
 304 716 l 1
 356 509 l 2
 363 481 367 458 370 440 c 1
 378 458 392 481 410 509 c 2
 554 716 l 1
 704 716 l 1
 486 408 l 1
 614 408 l 1
 591 300 l 1
 407 300 l 1
 394 242 l 1
 578 242 l 1
 555 133 l 1
 371 133 l 1
 343 0 l 1
 207 0 l 1
 235 133 l 1
EndSplineSet
EndChar
StartChar: brokenbar
Encoding: 261 166 227
Width: 278
VWidth: 2048
Flags: W
VStem: 41 309<-210 730>
Fore
159 343 m 1
 241 730 l 1
 350 730 l 1
 268 343 l 1
 159 343 l 1
41 -210 m 1
 123 176 l 1
 232 176 l 1
 150 -210 l 1
 41 -210 l 1
EndSplineSet
EndChar
StartChar: section
Encoding: 262 167 228
Width: 556
VWidth: 2048
Flags: W
HStem: -210 104<207.888 324.145> 624 106<344.842 459.762>
VStem: 90 132<263.481 356.934> 449 126<187.954 347.5>
Fore
188 546 m 0
 188 635 279 730 422 730 c 0
 541 730 601 678 601 576 c 0
 601 564 l 1
 465 550 l 1
 467 558 468 566 468 573 c 0
 468 607 447 624 406 624 c 0
 343 624 330 591 330 568 c 0
 330 484 575 425 575 270 c 0
 575 238 563 154 452 84 c 1
 475 55 487 25 487 -8 c 0
 487 -97 406 -210 237 -210 c 0
 113 -210 49 -160 49 -56 c 0
 49 -48 49 -40 50 -32 c 1
 186 -17 l 1
 186 -77 212 -106 264 -106 c 0
 334 -106 347 -53 347 -40 c 0
 347 41 90 109 90 271 c 0
 90 314 111 408 218 461 c 1
 198 489 188 518 188 546 c 0
280 399 m 1
 243 377 222 350 222 317 c 0
 222 290 238 263 270 239 c 2
 389 143 l 1
 438 179 449 207 449 222 c 0
 449 244 430 271 392 302 c 2
 280 399 l 1
EndSplineSet
EndChar
StartChar: dieresis
Encoding: 263 168 229
Width: 332
VWidth: 2048
Flags: W
HStem: 610 120<157 251 368 461>
VStem: 132 354<610 730>
Fore
132 610 m 1
 157 730 l 1
 276 730 l 1
 251 610 l 1
 132 610 l 1
343 610 m 1
 368 730 l 1
 486 730 l 1
 461 610 l 1
 343 610 l 1
EndSplineSet
EndChar
StartChar: copyright
Encoding: 264 169 230
Width: 735
VWidth: 2048
Flags: W
HStem: -18 75<275.148 498.803> 147 71<358.111 476.135> 495 69<414.055 530.023> 658 73<397.106 614.877>
VStem: 62 76<188.998 404.08> 255 87<233.907 401.54> 754 76<311.107 522.453>
Fore
62 275 m 0
 62 509 278 731 524 731 c 0
 728 731 830 585 830 440 c 0
 830 387 819 230 655 92 c 0
 567 18 470 -18 365 -18 c 0
 164 -18 62 131 62 275 c 0
509 658 m 0
 313 658 138 482 138 291 c 0
 138 151 239 57 381 57 c 0
 584 57 754 239 754 423 c 0
 754 479 737 528 703 570 c 0
 657 628 594 658 509 658 c 0
479 495 m 0
 362 495 342 344 342 296 c 0
 342 244 365 218 412 218 c 0
 458 218 497 245 525 300 c 1
 598 274 l 1
 553 190 489 147 407 147 c 0
 331 147 255 183 255 291 c 0
 255 373 303 564 497 564 c 0
 577 564 623 524 635 446 c 1
 551 426 l 1
 543 472 519 495 479 495 c 0
EndSplineSet
EndChar
StartChar: ordfeminine
Encoding: 265 170 231
Width: 369
VWidth: 2048
Flags: W
HStem: 363 74<180 296.458> 651 79<266.506 360.483>
VStem: 114 106<413 501.303> 362 102<608.959 662.5>
Fore
114 438 m 0
 114 584 282 569 359 601 c 1
 361 609 362 614 362 621 c 0
 362 641 347 651 320 651 c 0
 290 651 269 639 254 612 c 1
 166 630 l 1
 194 696 250 730 334 730 c 0
 393 730 430 720 447 704 c 0
 458 693 464 675 464 650 c 0
 464 633 461 613 456 590 c 2
 432 474 l 2
 425 441 421 414 421 396 c 0
 421 385 422 377 425 372 c 1
 332 372 l 1
 329 380 328 392 328 406 c 1
 293 377 255 363 213 363 c 0
 147 363 114 388 114 438 c 0
345 535 m 1
 299 516 220 519 220 465 c 0
 220 446 233 437 260 437 c 0
 303 437 329 463 340 515 c 2
 345 535 l 1
EndSplineSet
EndChar
StartChar: guillemotleft
Encoding: 266 171 232
Width: 556
VWidth: 2048
Flags: W
HStem: 34 446<317 412>
Fore
412 480 m 1
 237 259 l 1
 317 34 l 1
 208 34 l 1
 103 259 l 1
 303 480 l 1
 412 480 l 1
603 480 m 1
 429 259 l 1
 508 34 l 1
 399 34 l 1
 294 259 l 1
 494 480 l 1
 603 480 l 1
EndSplineSet
EndChar
StartChar: logicalnot
Encoding: 267 172 233
Width: 583
VWidth: 2048
Flags: W
HStem: 400 124<152 502>
Fore
456 184 m 1
 502 400 l 1
 126 400 l 1
 152 524 l 1
 654 524 l 1
 582 184 l 1
 456 184 l 1
EndSplineSet
EndChar
StartChar: minus
Encoding: 268 173 234
AltUni2: 002212.ffffffff.0
Width: 332
VWidth: 2048
Flags: W
HStem: 192 136<102 343>
VStem: 73 299<192 328>
Fore
73 192 m 1
 102 328 l 1
 372 328 l 1
 343 192 l 1
 73 192 l 1
EndSplineSet
EndChar
StartChar: registered
Encoding: 269 174 235
Width: 735
VWidth: 2048
Flags: W
HStem: -18 73<276.234 499.135> 319 64<363 426.519> 490 63<386 527.198> 658 73<392.699 619.888>
VStem: 62 76<192.277 402.831> 532 88<402.234 480.088> 755 75<347.548 523.689>
Fore
365 -18 m 0
 164 -18 62 131 62 275 c 0
 62 323 72 486 236 622 c 0
 324 696 420 731 524 731 c 0
 630 731 712 696 768 622 c 0
 809 570 830 510 830 440 c 0
 830 388 820 230 655 92 c 0
 567 18 470 -18 365 -18 c 0
755 425 m 0
 755 549 664 658 511 658 c 0
 310 658 138 475 138 292 c 0
 138 236 155 186 189 144 c 0
 234 84 299 55 383 55 c 0
 467 55 544 84 614 143 c 0
 747 252 755 390 755 425 c 0
620 468 m 0
 620 437 608 350 485 330 c 1
 503 325 526 301 532 285 c 2
 580 156 l 1
 481 156 l 1
 461 221 l 2
 446 272 432 319 370 319 c 2
 350 319 l 1
 315 156 l 1
 234 156 l 1
 319 553 l 1
 527 553 l 2
 586 553 620 519 620 468 c 0
363 383 m 1
 434 383 l 2
 476 383 532 390 532 452 c 0
 532 485 493 490 418 490 c 2
 386 490 l 1
 363 383 l 1
EndSplineSet
EndChar
StartChar: macron
Encoding: 270 175 236
AltUni2: 0002c9.ffffffff.0
Width: 551
VWidth: 2048
Flags: W
HStem: 759 89<171 722>
Fore
152 759 m 1
 171 848 l 1
 741 848 l 1
 722 759 l 1
 152 759 l 1
EndSplineSet
EndChar
StartChar: degree
Encoding: 271 176 237
Width: 400
VWidth: 2048
Flags: W
HStem: 417 81<256.965 362.837> 647 83<278.75 383.63>
VStem: 159 85<511.174 612.417> 397 83<532.992 633.41>
Fore
480 607 m 0
 480 513 395 417 287 417 c 0
 203 417 159 473 159 539 c 0
 159 643 258 730 353 730 c 0
 428 730 480 679 480 607 c 0
304 498 m 0
 359 498 397 547 397 587 c 0
 397 616 378 647 336 647 c 0
 285 647 244 602 244 556 c 0
 244 519 273 498 304 498 c 0
EndSplineSet
EndChar
StartChar: plusminus
Encoding: 272 177 238
Width: 548
VWidth: 2048
Flags: W
HStem: 0 129<52 526> 360 129<129 289 441 603>
Fore
249 173 m 1
 289 360 l 1
 102 360 l 1
 129 489 l 1
 316 489 l 1
 355 674 l 1
 480 674 l 1
 441 489 l 1
 630 489 l 1
 603 360 l 1
 414 360 l 1
 374 173 l 1
 249 173 l 1
25 0 m 1
 52 129 l 1
 553 129 l 1
 526 0 l 1
 25 0 l 1
EndSplineSet
EndChar
StartChar: twosuperior
Encoding: 273 178 239
Width: 332
VWidth: 2048
Flags: W
HStem: 356 76<248 386> 599 21G<12 249> 656 69<260.661 346.11>
VStem: 348 96<585.22 653.435>
Fore
88 356 m 1
 121 477 348 555 348 626 c 0
 348 645 334 656 306 656 c 0
 275 656 256 638 242 599 c 1
 150 607 l 1
 175 685 232 725 323 725 c 0
 393 725 444 696 444 641 c 0
 444 564 366 517 295 466 c 2
 248 432 l 1
 402 432 l 1
 386 356 l 1
 88 356 l 1
EndSplineSet
EndChar
StartChar: threesuperior
Encoding: 274 179 240
Width: 332
VWidth: 2048
Flags: W
HStem: 349 69<215.547 303.56> 520 64<259 318.049> 656 69<256.256 334.212>
VStem: 320 95<450.64 517.104> 335 94<595.816 654.625>
Fore
415 488 m 0xf0
 415 405 317 349 238 349 c 0
 159 349 118 385 118 453 c 2
 118 463 l 1
 209 472 l 1
 208 437 222 418 253 418 c 0
 311 418 320 468 320 487 c 0xf0
 320 509 306 520 278 520 c 0
 269 520 253 518 233 513 c 1
 259 584 l 1
 321 584 335 612 335 631 c 0
 335 648 322 656 298 656 c 0
 271 656 252 639 241 607 c 1
 157 621 l 1
 187 690 240 725 316 725 c 0
 380 725 429 694 429 643 c 0xe8
 429 608 408 579 365 555 c 1
 398 541 415 519 415 488 c 0xf0
EndSplineSet
EndChar
StartChar: acute
Encoding: 275 180 241
Width: 332
VWidth: 2048
Flags: W
HStem: 582 148<216 314>
VStem: 216 252<582 730>
Fore
216 582 m 1
 314 730 l 1
 468 730 l 1
 302 582 l 1
 216 582 l 1
EndSplineSet
EndChar
StartChar: mu
Encoding: 276 181 242
AltUni2: 0003bc.ffffffff.0
Width: 576
VWidth: 2048
Flags: W
HStem: -12 110<259.269 357.536>
Fore
164 518 m 1
 302 518 l 1
 252 284 l 2
 244 248 241 217 241 192 c 0
 241 129 263 98 309 98 c 0
 375 98 422 159 448 282 c 2
 498 518 l 1
 636 518 l 1
 526 0 l 1
 399 0 l 1
 412 63 l 1
 375 12 334 -12 291 -12 c 0
 248 -12 219 12 205 63 c 1
 150 -199 l 1
 12 -199 l 1
 164 518 l 1
EndSplineSet
EndChar
StartChar: paragraph
Encoding: 277 182 243
Width: 556
VWidth: 2048
Flags: W
HStem: 589 127<436 507 622 677>
Fore
259 316 m 1
 156 316 103 375 103 462 c 0
 103 523.53 138.936 662.3 269 700 c 0
 301 711 350 716 411 716 c 2
 704 716 l 1
 677 589 l 1
 622 589 l 1
 455 -196 l 1
 340 -196 l 1
 507 589 l 1
 436 589 l 1
 269 -196 l 1
 150 -196 l 1
 259 316 l 1
EndSplineSet
EndChar
StartChar: periodcentered
Encoding: 278 183 244
AltUni2: 002219.ffffffff.0
Width: 277
VWidth: 2048
Flags: W
HStem: 281 136<161 268>
VStem: 132 165<281 417>
Fore
132 281 m 1
 161 417 l 1
 297 417 l 1
 268 281 l 1
 132 281 l 1
EndSplineSet
EndChar
StartChar: cedilla
Encoding: 279 184 245
Width: 332
VWidth: 2048
Flags: W
HStem: -205 61<8.5706 156.165> -58 52<104.204 169.174>
VStem: 172 95<-127.98 -62.6021>
Fore
267 -75 m 0
 267 -127 236 -205 69 -205 c 0
 30 -205 -2 -202 -24 -196 c 1
 -12 -139 l 1
 19 -143 49 -144 79 -144 c 0
 158 -144 172 -111 172 -89 c 0
 172 -69 153 -58 117 -58 c 0
 97 -58 74 -61 52 -67 c 1
 74 -18 l 1
 102 -11 131 -6 158 -6 c 0
 231 -6 267 -29 267 -75 c 0
EndSplineSet
EndChar
StartChar: onesuperior
Encoding: 280 185 246
Width: 332
VWidth: 2048
Flags: W
VStem: 163 233<558 725>
Fore
318 356 m 1
 225 356 l 1
 278 607 l 1
 245 586 207 570 163 558 c 1
 179 635 l 1
 248 655 295 685 321 725 c 1
 396 725 l 1
 318 356 l 1
EndSplineSet
EndChar
StartChar: ordmasculine
Encoding: 281 186 247
Width: 364
VWidth: 2048
Flags: W
HStem: 362 83<234.258 325.324> 642 88<267.646 359.621>
VStem: 122 105<452.181 590.745> 368 105<494.667 634.676>
Fore
473 597 m 0
 473 523 430 362 259 362 c 0
 166 362 122 417 122 494 c 0
 122 609 202 730 337 730 c 0
 419 730 473 684 473 597 c 0
317 642 m 0
 245 642 227 540 227 502 c 0
 227 464 243 445 276 445 c 0
 352 445 368 553 368 584 c 0
 368 623 350 642 317 642 c 0
EndSplineSet
EndChar
StartChar: guillemotright
Encoding: 282 187 248
Width: 556
VWidth: 2048
Flags: W
HStem: 34 446<251 346>
Fore
251 34 m 1
 425 256 l 1
 346 480 l 1
 453 480 l 1
 560 256 l 1
 358 34 l 1
 251 34 l 1
59 34 m 1
 233 256 l 1
 154 480 l 1
 261 480 l 1
 368 256 l 1
 166 34 l 1
 59 34 l 1
EndSplineSet
EndChar
StartChar: onequarter
Encoding: 283 188 249
Width: 833
VWidth: 2048
Flags: W
HStem: 51 72<622 696 799 836>
Fore
318 356 m 1
 226 356 l 1
 279 607 l 1
 245 586 205 569 163 558 c 1
 179 635 l 1
 249 655 296 685 321 725 c 1
 396 725 l 1
 318 356 l 1
238 -26 m 1
 160 -26 l 1
 744 725 l 1
 822 725 l 1
 238 -26 l 1
681 -20 m 1
 696 51 l 1
 521 51 l 1
 536 120 l 1
 771 349 l 1
 847 349 l 1
 799 123 l 1
 851 123 l 1
 836 51 l 1
 784 51 l 1
 769 -20 l 1
 681 -20 l 1
711 123 m 1
 734 231 l 1
 622 123 l 1
 711 123 l 1
EndSplineSet
EndChar
StartChar: onehalf
Encoding: 284 189 250
Width: 833
VWidth: 2048
Flags: W
HStem: -20 77<668 805> 281 68<682.021 766.701>
VStem: 768 95<209.198 278.158>
Fore
318 356 m 1
 226 356 l 1
 279 607 l 1
 245 586 205 569 163 558 c 1
 179 635 l 1
 249 655 296 685 321 725 c 1
 396 725 l 1
 318 356 l 1
238 -26 m 1
 160 -26 l 1
 744 725 l 1
 822 725 l 1
 238 -26 l 1
863 265 m 0
 863 166 728 106 668 57 c 1
 821 57 l 1
 805 -20 l 1
 508 -20 l 1
 541 102 768 176 768 252 c 0
 768 271 755 281 727 281 c 0
 696 281 674 261 663 224 c 1
 572 231 l 1
 598 310 655 349 744 349 c 0
 814 349 863 320 863 265 c 0
EndSplineSet
EndChar
StartChar: threequarters
Encoding: 285 190 251
Width: 833
VWidth: 2048
Flags: W
HStem: 51 72<622 696 799 836> 349 69<215.547 303.56> 520 64<259 318.049> 656 69<256.256 334.328>
VStem: 320 95<450.728 517.104> 335 94<595.885 653.909>
Fore
415 488 m 0xf8
 415 413 326 349 238 349 c 0
 159 349 118 385 118 453 c 2
 118 463 l 1
 209 472 l 1
 208 437 222 418 253 418 c 0
 311 418 320 468 320 487 c 0xf8
 320 509 306 520 278 520 c 0
 269 520 253 518 233 513 c 1
 259 584 l 1
 321 584 335 612 335 631 c 0
 335 648 322 656 298 656 c 0
 271 656 252 639 241 607 c 1
 157 621 l 1
 187 690 240 725 316 725 c 0
 381 725 429 694 429 644 c 0xf4
 429 608 408 579 365 555 c 1
 398 541 415 519 415 488 c 0xf8
250 -26 m 1
 172 -26 l 1
 756 725 l 1
 833 725 l 1
 250 -26 l 1
681 -20 m 1
 696 51 l 1
 520 51 l 1
 535 120 l 1
 770 349 l 1
 847 349 l 1
 799 123 l 1
 851 123 l 1
 836 51 l 1
 784 51 l 1
 769 -20 l 1
 681 -20 l 1
711 123 m 1
 734 231 l 1
 622 123 l 1
 711 123 l 1
EndSplineSet
EndChar
StartChar: questiondown
Encoding: 286 191 252
Width: 610
VWidth: 2048
Flags: W
HStem: -205 105<210.002 361.634> 382 136<346 453>
VStem: 45 136<-72.1406 35.5277>
Fore
482 518 m 1
 453 382 l 1
 317 382 l 1
 346 518 l 1
 482 518 l 1
264 -205 m 0
 135 -205 45 -140 45 -39 c 0
 45 119 254 191 293 256 c 0
 302 270 311 296 319 334 c 1
 443 334 l 1
 433 288 l 2
 406 162 255 91 226 61 c 0
 196 35 181 6 181 -24 c 0
 181 -72 224 -100 281 -100 c 0
 353 -100 407 -60 442 20 c 1
 565 5 l 1
 514 -135 413 -205 264 -205 c 0
EndSplineSet
EndChar
StartChar: AE
Encoding: 293 198 259
Width: 999
VWidth: 2048
Flags: W
HStem: 0 121<610 953> 169 124<308 475> 316 119<676 979> 595 121<710 1065> 607 109<513 570>
Fore
-41 0 m 1xf0
 443 716 l 1
 1091 716 l 1xe8
 1065 595 l 1
 710 595 l 1
 676 435 l 1
 1004 435 l 1
 979 316 l 1
 651 316 l 1
 610 121 l 1
 979 121 l 1
 953 0 l 1
 440 0 l 1
 475 169 l 1
 227 169 l 1
 118 0 l 1
 -41 0 l 1xf0
308 293 m 1
 504 293 l 1
 570 607 l 1
 513 607 l 1
 308 293 l 1
EndSplineSet
EndChar
StartChar: Eth
Encoding: 303 208 269
Width: 721
VWidth: 2048
Flags: W
HStem: 0 121<244 474.141> 313 90<84 139 304 438> 595 121<344 488.149>
VStem: 612 151<419.926 535.459>
CounterMasks: 1 e0
Fore
224 716 m 1
 489 716 l 2
 635 716 710 683 747 579 c 0
 758 551 763 519 763 481 c 0
 763 442 758 398 747 349 c 0
 698 116 564 0 345 0 c 2
 72 0 l 1
 139 313 l 1
 65 313 l 1
 84 403 l 1
 158 403 l 1
 224 716 l 1
344 595 m 1
 304 403 l 1
 457 403 l 1
 438 313 l 1
 285 313 l 1
 244 121 l 1
 351 121 l 2
 515 121 564 188 599 354 c 0
 608 395 612 430 612 461 c 0
 612 522 594 561 557 578 c 0
 530 590 482 595 408 595 c 2
 344 595 l 1
EndSplineSet
EndChar
StartChar: multiply
Encoding: 310 215 276
Width: 583
VWidth: 2048
Flags: W
HStem: 115 477<270 464>
Fore
97 205 m 1
 277 353 l 1
 161 501 l 1
 270 592 l 1
 388 445 l 1
 566 592 l 1
 636 503 l 1
 457 354 l 1
 573 205 l 1
 464 115 l 1
 346 264 l 1
 167 116 l 1
 97 205 l 1
EndSplineSet
EndChar
StartChar: Oslash
Encoding: 311 216 277
Width: 777
VWidth: 2048
Flags: W
HStem: -12 116<329.948 508.12> 605 125<418.652 609.97>
VStem: 107 151<230.946 357.282> 676 148<321.993 482.808>
Fore
107 252 m 0
 107 440 229 730 544 730 c 0
 630 730 697 707 746 664 c 1
 842 751 l 1
 898 691 l 1
 797 599 l 1
 815 559 824 514 824 463 c 0
 824 260 693 -12 391 -12 c 0
 300 -12 235 8 189 49 c 1
 91 -40 l 1
 35 20 l 1
 139 115 l 1
 118 153 107 199 107 252 c 0
635 564 m 1
 609 592 569 605 520 605 c 0
 388 605 303 523 268 359 c 0
 261 328 258 300 258 274 c 0
 258 257 260 240 263 225 c 1
 635 564 l 1
411 104 m 0
 606 104 676 325 676 447 c 0
 676 461 675 474 672 486 c 1
 300 149 l 1
 328 120 364 104 411 104 c 0
EndSplineSet
EndChar
StartChar: Thorn
Encoding: 317 222 283
Width: 666
VWidth: 2048
Flags: W
HStem: 0 21G<72 222.296> 135 121<272 420.253> 460 121<341 473.402> 696 20G<219.754 370>
VStem: 552 153<314.892 437.762>
Fore
72 0 m 1
 224 716 l 1
 370 716 l 1
 341 581 l 1
 467 581 l 2
 569 581 643 577 685 504 c 0
 699 481 705 453 705 420 c 0
 705 350 674 210 531 158 c 0
 490 143 428 135 342 135 c 2
 247 135 l 1
 218 0 l 1
 72 0 l 1
552 388 m 0
 552 462 473 460 386 460 c 2
 316 460 l 1
 272 256 l 1
 350 256 l 2
 408 256 449 261 472 268 c 0
 538 293 552 355 552 388 c 0
EndSplineSet
EndChar
StartChar: germandbls
Encoding: 318 223 284
Width: 610
VWidth: 2048
Flags: W
HStem: -12 110<376.81 457.149> 621 109<357.368 460.04>
VStem: 463 144<530.972 654.353>
Fore
354 370 m 0
 354 428 463 526 463 584 c 0
 463 609 446 621 413 621 c 0
 337 621 321 546 304 466 c 2
 205 0 l 1
 67 0 l 1
 166 466 l 2
 202 635 270 730 437 730 c 0
 537 730 607 692 607 614 c 0
 607 508 505 449 505 403 c 0
 505 358 612 284 612 181 c 0
 612 97 527 -12 400 -12 c 0
 328 -12 283 18 261 81 c 1
 369 136 l 1
 377 110 392 98 412 98 c 0
 465 98 471 150 471 156 c 0
 471 210 354 298 354 370 c 0
EndSplineSet
EndChar
StartChar: ae
Encoding: 325 230 291
Width: 889
VWidth: 2048
Flags: W
HStem: -12 98<170 337.379> -12 106<566.772 695.232> 219 86<565 772> 426 104<296.897 429.83 627.924 755.281>
VStem: 777 127<310.861 403.903>
Fore
73 141 m 0xb8
 107 299 267 291 435 337 c 1
 437.198 346.898 440 361.46 440 372 c 0
 440 409 416 426 368 426 c 0
 318 426 282 405 259 360 c 1
 140 385 l 1
 189 481 280 530 407 530 c 0
 476 530 526 515 557 483 c 1
 601 515 653 530 708 530 c 0
 838 530 904 465 904 336 c 0
 904 301 899 262 890 219 c 1
 545 219 l 1
 544 210 544 202 544 194 c 0
 544 127 570 94 625 94 c 0
 673 94 710 116 737 166 c 1
 865 141 l 1
 808 40 719 -12 604 -12 c 0x78
 529 -12 474 12 435 60 c 1
 365 12 291 -12 216 -12 c 0
 124 -12 69 31 69 105 c 0
 69 116 70 128 73 141 c 0xb8
772 305 m 1
 775 320 777 335 777 347 c 0
 777 399 748 426 692 426 c 0
 624 426 577 363 565 305 c 1
 772 305 l 1
415 248 m 1
 281 214 211 210 211 132 c 0
 211 100 232 86 274 86 c 0xb8
 365 86 393 145 415 248 c 1
EndSplineSet
EndChar
StartChar: eth
Encoding: 335 240 301
Width: 610
VWidth: 2048
Flags: W
HStem: -12 112<265.814 395.322> 411 107<321.47 453.8> 696 20G<314 477.93 554.419 604.583>
VStem: 87 146<131.24 306.038> 491 150<220.576 370.602>
Fore
302 -12 m 0
 150 -12 87 91 87 192 c 0
 87 278 124 370 196 438 c 0
 252 492 312 518 378 518 c 0
 415 518 448 507 480 484 c 1
 461 528 480 497 431 592 c 1
 297 533 l 1
 285 579 l 1
 402 630 l 1
 376 659 347 688 314 716 c 1
 457 716 l 1
 502 673 l 1
 600 716 l 1
 611 668 l 1
 534 636 l 1
 605 544 641 449 641 351 c 0
 641 158 505 -12 302 -12 c 0
328 100 m 0
 418 100 491 199 491 296 c 0
 491 361 456 411 392 411 c 0
 294 411 233 305 233 207 c 0
 233 153 254 100 328 100 c 0
EndSplineSet
EndChar
StartChar: divide
Encoding: 342 247 308
Width: 548
VWidth: 2048
Flags: W
HStem: 90 137<253 363> 290 127<113 586> 480 136<336 446>
Fore
308 480 m 1
 336 616 l 1
 474 616 l 1
 446 480 l 1
 308 480 l 1
86 290 m 1
 113 417 l 1
 613 417 l 1
 586 290 l 1
 86 290 l 1
225 90 m 1
 253 227 l 1
 391 227 l 1
 363 90 l 1
 225 90 l 1
EndSplineSet
EndChar
StartChar: oslash
Encoding: 343 248 309
Width: 610
VWidth: 2048
Flags: W
HStem: -12 107<263.436 405.351> 426 104<330.231 464.657>
VStem: 91 137<176.509 307.185> 502 138<210.088 338.918>
Fore
91 193 m 0
 91 355 212 530 423 530 c 0
 481 530 528 517 567 487 c 1
 629 547 l 1
 676 503 l 1
 609 441 l 1
 629 407 640 368 640 324 c 0
 640 165 511 -12 307 -12 c 0
 251 -12 204 2 165 29 c 1
 96 -35 l 1
 51 11 l 1
 122 77 l 1
 101 110 91 149 91 193 c 0
402 426 m 0
 313 426 228 339 228 196 c 0
 228 189 228 182 229 176 c 1
 470 400 l 1
 452 417 430 426 402 426 c 0
330 95 m 0
 455 95 502 232 502 313 c 0
 502 322 501 331 500 340 c 1
 261 118 l 1
 278 103 301 95 330 95 c 0
EndSplineSet
EndChar
StartChar: thorn
Encoding: 349 254 315
Width: 610
VWidth: 2048
Flags: W
HStem: -12 109<281.662 414.274> 426 104<379.571 530.723> 696 20G<214.755 357>
VStem: 497 143<251.866 400.661>
Fore
640 339 m 0
 640 211 549 -12 354 -12 c 0
 297 -12 253 14 219 64 c 1
 163 -198 l 1
 25 -198 l 1
 219 716 l 1
 357 716 l 1
 302 458 l 1
 361 507 416 530 470 530 c 0
 589 530 640 444 640 339 c 0
262 271 m 0
 256 244 253 220 253 199 c 0
 253 131 285 97 346 97 c 0
 418 97 466 150 489 258 c 0
 494 284 497 307 497 327 c 0
 497 393 468 426 410 426 c 0
 333 426 283 374 262 271 c 0
EndSplineSet
EndChar
StartChar: dotlessi
Encoding: 351 305 317
Width: 277
VWidth: 2048
Flags: W
HStem: 0 21G<72 212.286>
VStem: 72 247<0 518>
Fore
72 0 m 1
 182 518 l 1
 319 518 l 1
 208 0 l 1
 72 0 l 1
EndSplineSet
EndChar
StartChar: OE
Encoding: 352 338 318
Width: 999
VWidth: 2048
Flags: W
HStem: -12 127<292.138 430.473> 0 123<661 970> 316 119<727 996> 595 121<761 1082> 605 125<386.987 547.199>
VStem: 96 152<163.493 294.037>
Fore
111 359 m 0xa4
 156 570 280 730 471 730 c 0xac
 554 730 612 699 645 638 c 1
 661 716 l 1
 1108 716 l 1
 1082 595 l 1
 761 595 l 1
 727 435 l 1
 1021 435 l 1
 996 316 l 1
 702 316 l 1
 661 123 l 1
 996 123 l 1
 970 0 l 1
 509 0 l 1x74
 527 84 l 1
 476 20 406 -12 319 -12 c 0
 170 -12 96 80 96 231 c 0
 96 270 101 313 111 359 c 0xa4
472 605 m 0
 367 605 296 526 262 369 c 0
 253 326 248 289 248 257 c 0
 248 162 288 115 367 115 c 0
 472 115 543 199 579 366 c 0
 587 405 591 439 591 468 c 0
 591 560 551 605 472 605 c 0
EndSplineSet
EndChar
StartChar: oe
Encoding: 353 339 319
Width: 944
VWidth: 2048
Flags: W
HStem: -12 113<267.436 396.909> -12 106<631.457 754.939> 219 86<629 836> 417 113<322.401 459.756> 429 101<690.258 814.791>
VStem: 91 142<137.301 305.717> 488 118<183 316> 840 124<307.773 404.25>
Fore
91 191 m 0xa7
 91 330 193 530 421 530 c 0xb7
 493 530 549 507 586 458 c 1
 643 507 705 530 775 530 c 0
 901 530 964 466 964 338 c 0
 964 303 959 264 950 219 c 1
 610 219 l 1
 607 206 606 194 606 183 c 0
 606 128 637 94 691 94 c 0
 736 94 771 118 798 167 c 1
 928 146 l 1
 870 40 783 -12 668 -12 c 0x6f
 595 -12 539 12 500 61 c 1
 440 12 373 -12 304 -12 c 0
 168 -12 91 71 91 191 c 0xa7
836 305 m 1
 839 318 840 330 840 341 c 0
 840 395 810 429 756 429 c 0x2f
 689 429 643 372 629 305 c 1
 836 305 l 1
328 101 m 0xb7
 434 101 488 229 488 316 c 0
 488 368 467 417 396 417 c 0
 260 417 233 254 233 214 c 0
 233 154 263 101 328 101 c 0xb7
EndSplineSet
EndChar
StartChar: florin
Encoding: 357 402 323
Width: 556
VWidth: 2048
Flags: W
HStem: -210 115<35.5235 125.647> 415 103<263 321 499 560> 612 118<538.486 620.608>
Fore
223 415 m 1
 263 518 l 1
 361 518 l 1
 379 563 l 2
 426 684 455 730 583 730 c 0
 626 730 668 722 708 708 c 1
 659 598 l 1
 629 607 604 612 584 612 c 0
 553 612 528 590 510 546 c 2
 499 518 l 1
 600 518 l 1
 560 415 l 1
 460 415 l 1
 275 -63 l 2
 236 -164 192 -210 82 -210 c 0
 30 -210 -14 -204 -50 -192 c 1
 0 -83 l 1
 35 -90 61 -95 80 -95 c 0
 119 -95 134 -73 157 -11 c 2
 321 415 l 1
 223 415 l 1
EndSplineSet
EndChar
StartChar: circumflex
Encoding: 358 710 324
Width: 332
VWidth: 2048
Flags: W
VStem: 126 331<584 584>
Fore
126 584 m 1
 259 730 l 1
 386 730 l 1
 457 584 l 1
 346 584 l 1
 305 658 l 1
 236 584 l 1
 126 584 l 1
EndSplineSet
EndChar
StartChar: caron
Encoding: 359 711 325
Width: 332
VWidth: 2048
Flags: W
VStem: 156 331<730 730>
Fore
156 730 m 1
 267 730 l 1
 305 656 l 1
 377 730 l 1
 487 730 l 1
 356 584 l 1
 228 584 l 1
 156 730 l 1
EndSplineSet
EndChar
StartChar: ring
Encoding: 361 730 326
Width: 332
VWidth: 2048
Flags: W
HStem: 559 53<262.746 339.402> 699 52<271.976 350.011>
VStem: 208 53<613.582 674.501> 351 52<636.795 697.678>
Fore
208 634 m 0
 208 695 261 751 327 751 c 0
 374 751 403 719 403 677 c 0
 403 609 339 559 286 559 c 0
 240 559 208 588 208 634 c 0
297 612 m 0
 345 612 351 658 351 671 c 0
 351 690 339 699 316 699 c 0
 270 699 261 660 261 642 c 0
 261 622 273 612 297 612 c 0
EndSplineSet
EndChar
StartChar: tilde
Encoding: 362 732 327
Width: 332
VWidth: 2048
Flags: W
HStem: 590 81<303.626 409.862> 632 81<189.542 298.009>
VStem: 119 364<671 713 589 713>
Fore
235 713 m 0x60
 286 713 327 671 371 671 c 0xa0
 394 671 411 685 420 713 c 1
 483 713 l 1x60
 465 632 427 590 370 590 c 0xa0
 329 590 263 632 224 632 c 0
 201 632 188 618 182 589 c 1
 119 589 l 1
 123 607 l 2
 138 677 175 713 235 713 c 0x60
EndSplineSet
EndChar
StartChar: quotesinglbase
Encoding: 365 8218 328
Width: 277
VWidth: 2048
Flags: W
VStem: 35 199<-103 136>
Fore
96 136 m 1
 234 136 l 1
 213 38 l 2
 193 -57 161 -121 50 -159 c 1
 35 -103 l 1
 91 -87 124 -54 135 0 c 1
 67 0 l 1
 96 136 l 1
EndSplineSet
EndChar
StartChar: quotedblbase
Encoding: 366 8222 329
Width: 499
VWidth: 2048
Flags: W
VStem: 45 432<-103 136>
Fore
339 136 m 1
 477 136 l 1
 456 38 l 2
 432 -75 385 -129 291 -159 c 1
 277 -103 l 1
 331 -87 365 -52 376 0 c 1
 310 0 l 1
 339 136 l 1
109 136 m 1
 245 136 l 1
 224 38 l 2
 200 -75 155 -129 61 -159 c 1
 45 -103 l 1
 102 -86 135 -52 146 0 c 1
 80 0 l 1
 109 136 l 1
EndSplineSet
EndChar
StartChar: dagger
Encoding: 367 8224 330
Width: 556
VWidth: 2048
Flags: W
HStem: 406 112<142 298 450 604> 688 20G<357.789 490>
Fore
175 -172 m 1
 298 406 l 1
 118 406 l 1
 142 518 l 1
 322 518 l 1
 362 708 l 1
 490 708 l 1
 450 518 l 1
 628 518 l 1
 604 406 l 1
 426 406 l 1
 303 -172 l 1
 175 -172 l 1
EndSplineSet
EndChar
StartChar: daggerdbl
Encoding: 368 8225 331
Width: 556
VWidth: 2048
Flags: W
HStem: -8 114<55 211 365 516> 426 115<147 304 457 609> 688 20G<358.808 492>
Fore
176 -172 m 1
 211 -8 l 1
 30 -8 l 1
 55 106 l 1
 236 106 l 1
 304 426 l 1
 123 426 l 1
 147 541 l 1
 328 541 l 1
 363 708 l 1
 492 708 l 1
 457 541 l 1
 633 541 l 1
 609 426 l 1
 433 426 l 1
 365 106 l 1
 541 106 l 1
 516 -8 l 1
 340 -8 l 1
 305 -172 l 1
 176 -172 l 1
EndSplineSet
EndChar
StartChar: perthousand
Encoding: 369 8240 332
Width: 999
VWidth: 2048
Flags: W
HStem: -29 77<514.601 574.865 842.003 901.962> 271 77<553.265 613.904 883.14 941.948> 353 76<204.969 266.171> 653 77<244.703 305.754>
VStem: 107 94<430.498 507.155> 310 98<575.087 651.824> 416 94<49.46 124.65> 618 98<191.66 268.668> 743 96<50.0637 125.247> 947 97<154.243 257.326>
Fore
116 547 m 0
 142 668 203 730 298 730 c 0
 371 730 408 692 408 616 c 0
 408 596 406 572 400 546 c 0
 373 417 311 353 216 353 c 0
 144 353 107 392 107 471 c 0
 107 493 110 518 116 547 c 0
280 653 m 0
 217 653 201 492 201 474 c 0
 201 446 209 429 232 429 c 0
 294 429 310 589 310 605 c 0
 310 637 300 653 280 653 c 0
130 -26 m 1
 592 730 l 1
 687 730 l 1
 227 -26 l 1
 130 -26 l 1
426 166 m 0
 452 287 512 348 606 348 c 0
 679 348 716 310 716 235 c 0
 716 214 714 190 708 164 c 0
 680 35 619 -29 526 -29 c 0
 453 -29 416 9 416 86 c 0
 416 109 420 136 426 166 c 0
588 271 m 0
 526 271 510 114 510 96 c 0
 510 64 520 48 540 48 c 0
 603 48 618 206 618 224 c 0
 618 256 608 271 588 271 c 0
752 166 m 0
 778 287 839 348 934 348 c 0
 1007 348 1044 310 1044 235 c 0
 1044 214 1042 190 1036 164 c 0
 1008 35 947 -29 852 -29 c 0
 780 -29 743 10 743 88 c 0
 743 111 746 137 752 166 c 0
947 231 m 0
 947 241 941 271 916 271 c 0
 855 271 839 108 839 93 c 0
 839 63 849 48 868 48 c 0
 924 48 947 192 947 231 c 0
EndSplineSet
EndChar
StartChar: guilsinglleft
Encoding: 370 8249 333
Width: 332
VWidth: 2048
Flags: W
HStem: 34 446<306 401>
VStem: 92 309<259 480>
Fore
401 480 m 1
 227 259 l 1
 306 34 l 1
 199 34 l 1
 92 259 l 1
 294 480 l 1
 401 480 l 1
EndSplineSet
EndChar
StartChar: guilsinglright
Encoding: 371 8250 334
Width: 332
VWidth: 2048
Flags: W
HStem: 34 446<44 139>
VStem: 44 309<34 256>
Fore
44 34 m 1
 218 256 l 1
 139 480 l 1
 246 480 l 1
 353 256 l 1
 151 34 l 1
 44 34 l 1
EndSplineSet
EndChar
StartChar: trademark
Encoding: 372 8482 335
Width: 999
VWidth: 2048
Flags: W
HStem: 647 69<258 366 449 569>
Fore
295 316 m 1
 366 647 l 1
 244 647 l 1
 258 716 l 1
 583 716 l 1
 569 647 l 1
 449 647 l 1
 378 316 l 1
 295 316 l 1
545 316 m 1
 630 716 l 1
 757 716 l 1
 771 441 l 1
 903 716 l 1
 1030 716 l 1
 945 316 l 1
 867 316 l 1
 935 636 l 1
 781 316 l 1
 708 316 l 1
 690 636 l 1
 622 316 l 1
 545 316 l 1
EndSplineSet
EndChar
StartChar: uniF71C
Encoding: 375 63260 336
Width: 338
VWidth: 2048
Flags: W
HStem: 0 2<0 0>
VStem: 0 2<0 0>
Fore
0 0 m 1
 0 2 l 1
 2 0 l 1
 0 0 l 1
EndSplineSet
EndChar
StartChar: uniF71D
Encoding: 376 63261 337
Width: 338
VWidth: 2048
Flags: W
HStem: -118 115<67 228>
VStem: -5 317<-162 -3>
Fore
219 -162 m 1
 228 -118 l 1
 67 -118 l 1
 58 -162 l 1
 -5 -162 l 1
 28 -3 l 1
 312 -3 l 1
 279 -162 l 1
 219 -162 l 1
EndSplineSet
EndChar
StartChar: uni0E47.high
Encoding: 222 63263 341
Width: 0
Flags: W
HStem: 999.151 43.1046<-8.8357 28.6816> 1057.31 64.3148<-117.607 -69.8522> 1090.83 41.052<-4.93864 32.0617> 1171.57 54.736<-46.5823 76.3053> 1182.52 47.894<-120.58 3.91614>
VStem: -219.154 66.3674<1076 1134.17> 32.6314 36.9468<1045.4 1086.96>
AnchorPoint: "AboveMark" -99 988 mark 0
Back
-246 1104 m 0
 -246 1166 -209 1287 -62 1287 c 0
 -25 1287 12 1282 47 1282 c 0xd4
 132 1282 125 1314 141 1356 c 1
 224 1356 l 1
 202 1273 166 1215 62 1215 c 0
 15 1215 -19 1228 -68 1228 c 0
 -152 1228 -165 1150 -165 1132 c 0
 -165 1107 -148 1097 -147 1097 c 1
 -145 1105 -125 1153 -86 1153 c 0
 -52 1153 -26 1113 -26 1113 c 1
 -26 1113 -4 1166 53 1166 c 0
 89 1166 109 1143 109 1107 c 0
 109 1056 74 1003 17 1003 c 0
 -45 1003 -56 1074 -91 1074 c 0
 -137 1074 -137 1002 -137 1002 c 1
 -202 1003 -246 1037 -246 1104 c 0
31 1056 m 0
 51 1056 64 1074 64 1093 c 0
 64 1105 58 1116 44 1116 c 0
 24 1116 11 1093 11 1078 c 0
 11 1066 18 1056 31 1056 c 0
EndSplineSet
Refer: 197 3655 N 0.6842 0 0 0.6842 21 538 2
EndChar
